G75*
G70*
%OFA0B0*%
%FSLAX24Y24*%
%IPPOS*%
%LPD*%
%AMOC8*
5,1,8,0,0,1.08239X$1,22.5*
%
%ADD10C,0.1340*%
%ADD11R,0.0190X0.0312*%
%ADD12R,0.0312X0.0190*%
%ADD13R,0.0513X0.0474*%
%ADD14R,0.0474X0.0513*%
%ADD15R,0.0960X0.0560*%
%ADD16R,0.0946X0.1497*%
%ADD17R,0.0671X0.0592*%
%ADD18R,0.0730X0.0250*%
%ADD19R,0.0640X0.0640*%
%ADD20C,0.0640*%
%ADD21C,0.0740*%
%ADD22C,0.1380*%
%ADD23C,0.0940*%
%ADD24R,0.0780X0.1480*%
%ADD25R,0.0592X0.0710*%
%ADD26R,0.0710X0.0592*%
%ADD27C,0.0820*%
%ADD28R,0.0690X0.0474*%
%ADD29R,0.1680X0.0680*%
%ADD30R,0.0580X0.1080*%
D10*
X003500Y001706D03*
X030666Y001706D03*
X030666Y017060D03*
X003500Y017060D03*
D11*
X021880Y013692D03*
X022077Y013692D03*
X022274Y013692D03*
X022471Y013692D03*
X022668Y013692D03*
X022865Y013692D03*
X023061Y013692D03*
X023258Y013692D03*
X023258Y011858D03*
X023061Y011858D03*
X022865Y011858D03*
X022668Y011858D03*
X022471Y011858D03*
X022274Y011858D03*
X022077Y011858D03*
X021880Y011858D03*
X021908Y005316D03*
X021711Y005316D03*
X021515Y005316D03*
X022105Y005316D03*
X022302Y005316D03*
X022499Y005316D03*
X022499Y003859D03*
X022302Y003859D03*
X022105Y003859D03*
X021908Y003859D03*
X021711Y003859D03*
X021515Y003859D03*
D12*
X021278Y004095D03*
X021278Y004292D03*
X021278Y004489D03*
X021278Y004686D03*
X021278Y004883D03*
X021278Y005080D03*
X022735Y005080D03*
X022735Y004883D03*
X022735Y004686D03*
X022735Y004489D03*
X022735Y004292D03*
X022735Y004095D03*
X023487Y012086D03*
X023487Y012283D03*
X023487Y012480D03*
X023487Y012677D03*
X023487Y012873D03*
X023487Y013070D03*
X023487Y013267D03*
X023487Y013464D03*
X021652Y013464D03*
X021652Y013267D03*
X021652Y013070D03*
X021652Y012873D03*
X021652Y012677D03*
X021652Y012480D03*
X021652Y012283D03*
X021652Y012086D03*
D13*
X019779Y010963D03*
X019110Y010963D03*
X018966Y008963D03*
X018297Y008963D03*
X023235Y006088D03*
X023904Y006088D03*
X023904Y005400D03*
X023235Y005400D03*
X023235Y003775D03*
X023904Y003775D03*
X023904Y003088D03*
X023235Y003088D03*
X020341Y003338D03*
X019672Y003338D03*
X019672Y004025D03*
X020341Y004025D03*
X014068Y003783D03*
X013399Y003783D03*
X012818Y003776D03*
X012149Y003776D03*
X012149Y004451D03*
X012818Y004451D03*
X013399Y004458D03*
X014068Y004458D03*
X008904Y007025D03*
X008235Y007025D03*
X023672Y008213D03*
X024341Y008213D03*
X025110Y008213D03*
X025779Y008213D03*
X026360Y008213D03*
X027029Y008213D03*
X025779Y008900D03*
X025110Y008900D03*
X025110Y009588D03*
X025779Y009588D03*
X025779Y010275D03*
X025110Y010275D03*
X025110Y010963D03*
X025779Y010963D03*
X025779Y011650D03*
X025110Y011650D03*
X024797Y012713D03*
X025466Y012713D03*
X025985Y012713D03*
X026654Y012713D03*
X026404Y013588D03*
X025735Y013588D03*
X025216Y014025D03*
X024547Y014025D03*
X024547Y014713D03*
X025216Y014713D03*
X025735Y016150D03*
X026404Y016150D03*
X017029Y016588D03*
X016360Y016588D03*
X016360Y017275D03*
X017029Y017275D03*
D14*
X020194Y014797D03*
X020882Y014797D03*
X020882Y014128D03*
X020194Y014128D03*
X020189Y012982D03*
X019495Y012982D03*
X019495Y012313D03*
X020189Y012313D03*
X021318Y011300D03*
X021999Y011300D03*
X021999Y010630D03*
X021318Y010630D03*
X019819Y010297D03*
X019069Y010297D03*
X019069Y009628D03*
X019819Y009628D03*
X020882Y009610D03*
X021569Y009610D03*
X022257Y009610D03*
X022944Y009610D03*
X023632Y009610D03*
X023632Y008940D03*
X022944Y008940D03*
X022257Y008940D03*
X021569Y008940D03*
X020882Y008940D03*
X018319Y009628D03*
X018319Y010297D03*
X024132Y011253D03*
X024132Y011922D03*
X023819Y014628D03*
X023132Y014628D03*
X022444Y014940D03*
X023132Y015297D03*
X023819Y015297D03*
X022444Y015610D03*
X022569Y006860D03*
X021882Y006860D03*
X021069Y006422D03*
X020382Y006422D03*
X020382Y005753D03*
X021069Y005753D03*
X021882Y006190D03*
X022569Y006190D03*
X026319Y005940D03*
X027007Y005940D03*
X027007Y006610D03*
X026319Y006610D03*
X021694Y003235D03*
X021007Y002797D03*
X021694Y002565D03*
X022382Y002797D03*
X022382Y002128D03*
X021007Y002128D03*
X025444Y001878D03*
X026132Y001878D03*
X026132Y002547D03*
X025444Y002547D03*
D15*
X015352Y008115D03*
X015352Y009025D03*
X015352Y009935D03*
X015352Y011053D03*
X015352Y011963D03*
X015352Y012873D03*
D16*
X012912Y011963D03*
X012912Y009025D03*
D17*
X016453Y009509D03*
X016453Y010257D03*
X016453Y011506D03*
X016453Y012254D03*
X016453Y008307D03*
X016453Y007559D03*
D18*
X010121Y006156D03*
X010121Y005906D03*
X010121Y005646D03*
X010121Y005396D03*
X010121Y005136D03*
X010121Y004876D03*
X010121Y004626D03*
X010121Y004366D03*
X010121Y004116D03*
X010121Y003856D03*
X010121Y003596D03*
X010121Y003346D03*
X010121Y003086D03*
X010121Y002836D03*
X007261Y002836D03*
X007261Y003086D03*
X007261Y003346D03*
X007261Y003596D03*
X007261Y003856D03*
X007261Y004116D03*
X007261Y004366D03*
X007261Y004626D03*
X007261Y004876D03*
X007261Y005136D03*
X007261Y005396D03*
X007261Y005646D03*
X007261Y005906D03*
X007261Y006156D03*
D19*
X010281Y001794D03*
D20*
X009493Y001794D03*
X008706Y001794D03*
X007919Y001794D03*
X007131Y001794D03*
D21*
X008194Y014758D02*
X008194Y015418D01*
X009194Y015418D02*
X009194Y014758D01*
X010194Y014758D02*
X010194Y015418D01*
D22*
X009194Y009188D03*
D23*
X004569Y013524D03*
X004569Y014901D03*
D24*
X005807Y016963D03*
X008207Y016963D03*
X009494Y016963D03*
X011894Y016963D03*
D25*
X024676Y005900D03*
X025463Y005900D03*
X025463Y005025D03*
X024676Y005025D03*
X024676Y004150D03*
X025463Y004150D03*
X025463Y003275D03*
X024676Y003275D03*
D26*
X029444Y003694D03*
X029444Y004481D03*
X029444Y005131D03*
X029444Y005919D03*
X019544Y015658D03*
X019544Y016642D03*
X017969Y016642D03*
X017969Y015658D03*
X025132Y016131D03*
X025132Y016919D03*
D27*
X023444Y017025D03*
X022444Y017025D03*
X021444Y017025D03*
X014194Y015713D03*
X013194Y015713D03*
X003757Y011463D03*
X003757Y010463D03*
X003757Y009463D03*
X003757Y007650D03*
X003757Y006650D03*
X003757Y005650D03*
X003757Y004650D03*
X003757Y003650D03*
D28*
X026443Y003747D03*
X026443Y004338D03*
X026443Y004928D03*
X028195Y004928D03*
X028195Y003747D03*
X028633Y009309D03*
X026881Y009309D03*
X026881Y009900D03*
X026881Y010491D03*
X028633Y010491D03*
D29*
X031059Y010383D03*
X031059Y009383D03*
X031059Y008383D03*
X031059Y005462D03*
X031059Y004462D03*
X031059Y003462D03*
X031059Y013305D03*
X031059Y014305D03*
X031059Y015305D03*
D30*
X021694Y015338D03*
M02*
