G75*
G70*
%OFA0B0*%
%FSLAX24Y24*%
%IPPOS*%
%LPD*%
%AMOC8*
5,1,8,0,0,1.08239X$1,22.5*
%
%ADD10C,0.0000*%
D10*
X002319Y000525D02*
X002319Y018242D01*
X031847Y018242D01*
X031847Y000525D01*
X002319Y000525D01*
X002870Y001706D02*
X002872Y001756D01*
X002878Y001806D01*
X002888Y001855D01*
X002902Y001903D01*
X002919Y001950D01*
X002940Y001995D01*
X002965Y002039D01*
X002993Y002080D01*
X003025Y002119D01*
X003059Y002156D01*
X003096Y002190D01*
X003136Y002220D01*
X003178Y002247D01*
X003222Y002271D01*
X003268Y002292D01*
X003315Y002308D01*
X003363Y002321D01*
X003413Y002330D01*
X003462Y002335D01*
X003513Y002336D01*
X003563Y002333D01*
X003612Y002326D01*
X003661Y002315D01*
X003709Y002300D01*
X003755Y002282D01*
X003800Y002260D01*
X003843Y002234D01*
X003884Y002205D01*
X003923Y002173D01*
X003959Y002138D01*
X003991Y002100D01*
X004021Y002060D01*
X004048Y002017D01*
X004071Y001973D01*
X004090Y001927D01*
X004106Y001879D01*
X004118Y001830D01*
X004126Y001781D01*
X004130Y001731D01*
X004130Y001681D01*
X004126Y001631D01*
X004118Y001582D01*
X004106Y001533D01*
X004090Y001485D01*
X004071Y001439D01*
X004048Y001395D01*
X004021Y001352D01*
X003991Y001312D01*
X003959Y001274D01*
X003923Y001239D01*
X003884Y001207D01*
X003843Y001178D01*
X003800Y001152D01*
X003755Y001130D01*
X003709Y001112D01*
X003661Y001097D01*
X003612Y001086D01*
X003563Y001079D01*
X003513Y001076D01*
X003462Y001077D01*
X003413Y001082D01*
X003363Y001091D01*
X003315Y001104D01*
X003268Y001120D01*
X003222Y001141D01*
X003178Y001165D01*
X003136Y001192D01*
X003096Y001222D01*
X003059Y001256D01*
X003025Y001293D01*
X002993Y001332D01*
X002965Y001373D01*
X002940Y001417D01*
X002919Y001462D01*
X002902Y001509D01*
X002888Y001557D01*
X002878Y001606D01*
X002872Y001656D01*
X002870Y001706D01*
X008544Y009188D02*
X008546Y009238D01*
X008552Y009288D01*
X008562Y009338D01*
X008575Y009386D01*
X008592Y009434D01*
X008613Y009480D01*
X008637Y009524D01*
X008665Y009566D01*
X008696Y009606D01*
X008730Y009643D01*
X008767Y009678D01*
X008806Y009709D01*
X008847Y009738D01*
X008891Y009763D01*
X008937Y009785D01*
X008984Y009803D01*
X009032Y009817D01*
X009081Y009828D01*
X009131Y009835D01*
X009181Y009838D01*
X009232Y009837D01*
X009282Y009832D01*
X009332Y009823D01*
X009380Y009811D01*
X009428Y009794D01*
X009474Y009774D01*
X009519Y009751D01*
X009562Y009724D01*
X009602Y009694D01*
X009640Y009661D01*
X009675Y009625D01*
X009708Y009586D01*
X009737Y009545D01*
X009763Y009502D01*
X009786Y009457D01*
X009805Y009410D01*
X009820Y009362D01*
X009832Y009313D01*
X009840Y009263D01*
X009844Y009213D01*
X009844Y009163D01*
X009840Y009113D01*
X009832Y009063D01*
X009820Y009014D01*
X009805Y008966D01*
X009786Y008919D01*
X009763Y008874D01*
X009737Y008831D01*
X009708Y008790D01*
X009675Y008751D01*
X009640Y008715D01*
X009602Y008682D01*
X009562Y008652D01*
X009519Y008625D01*
X009474Y008602D01*
X009428Y008582D01*
X009380Y008565D01*
X009332Y008553D01*
X009282Y008544D01*
X009232Y008539D01*
X009181Y008538D01*
X009131Y008541D01*
X009081Y008548D01*
X009032Y008559D01*
X008984Y008573D01*
X008937Y008591D01*
X008891Y008613D01*
X008847Y008638D01*
X008806Y008667D01*
X008767Y008698D01*
X008730Y008733D01*
X008696Y008770D01*
X008665Y008810D01*
X008637Y008852D01*
X008613Y008896D01*
X008592Y008942D01*
X008575Y008990D01*
X008562Y009038D01*
X008552Y009088D01*
X008546Y009138D01*
X008544Y009188D01*
X002870Y017060D02*
X002872Y017110D01*
X002878Y017160D01*
X002888Y017209D01*
X002902Y017257D01*
X002919Y017304D01*
X002940Y017349D01*
X002965Y017393D01*
X002993Y017434D01*
X003025Y017473D01*
X003059Y017510D01*
X003096Y017544D01*
X003136Y017574D01*
X003178Y017601D01*
X003222Y017625D01*
X003268Y017646D01*
X003315Y017662D01*
X003363Y017675D01*
X003413Y017684D01*
X003462Y017689D01*
X003513Y017690D01*
X003563Y017687D01*
X003612Y017680D01*
X003661Y017669D01*
X003709Y017654D01*
X003755Y017636D01*
X003800Y017614D01*
X003843Y017588D01*
X003884Y017559D01*
X003923Y017527D01*
X003959Y017492D01*
X003991Y017454D01*
X004021Y017414D01*
X004048Y017371D01*
X004071Y017327D01*
X004090Y017281D01*
X004106Y017233D01*
X004118Y017184D01*
X004126Y017135D01*
X004130Y017085D01*
X004130Y017035D01*
X004126Y016985D01*
X004118Y016936D01*
X004106Y016887D01*
X004090Y016839D01*
X004071Y016793D01*
X004048Y016749D01*
X004021Y016706D01*
X003991Y016666D01*
X003959Y016628D01*
X003923Y016593D01*
X003884Y016561D01*
X003843Y016532D01*
X003800Y016506D01*
X003755Y016484D01*
X003709Y016466D01*
X003661Y016451D01*
X003612Y016440D01*
X003563Y016433D01*
X003513Y016430D01*
X003462Y016431D01*
X003413Y016436D01*
X003363Y016445D01*
X003315Y016458D01*
X003268Y016474D01*
X003222Y016495D01*
X003178Y016519D01*
X003136Y016546D01*
X003096Y016576D01*
X003059Y016610D01*
X003025Y016647D01*
X002993Y016686D01*
X002965Y016727D01*
X002940Y016771D01*
X002919Y016816D01*
X002902Y016863D01*
X002888Y016911D01*
X002878Y016960D01*
X002872Y017010D01*
X002870Y017060D01*
X030036Y017060D02*
X030038Y017110D01*
X030044Y017160D01*
X030054Y017209D01*
X030068Y017257D01*
X030085Y017304D01*
X030106Y017349D01*
X030131Y017393D01*
X030159Y017434D01*
X030191Y017473D01*
X030225Y017510D01*
X030262Y017544D01*
X030302Y017574D01*
X030344Y017601D01*
X030388Y017625D01*
X030434Y017646D01*
X030481Y017662D01*
X030529Y017675D01*
X030579Y017684D01*
X030628Y017689D01*
X030679Y017690D01*
X030729Y017687D01*
X030778Y017680D01*
X030827Y017669D01*
X030875Y017654D01*
X030921Y017636D01*
X030966Y017614D01*
X031009Y017588D01*
X031050Y017559D01*
X031089Y017527D01*
X031125Y017492D01*
X031157Y017454D01*
X031187Y017414D01*
X031214Y017371D01*
X031237Y017327D01*
X031256Y017281D01*
X031272Y017233D01*
X031284Y017184D01*
X031292Y017135D01*
X031296Y017085D01*
X031296Y017035D01*
X031292Y016985D01*
X031284Y016936D01*
X031272Y016887D01*
X031256Y016839D01*
X031237Y016793D01*
X031214Y016749D01*
X031187Y016706D01*
X031157Y016666D01*
X031125Y016628D01*
X031089Y016593D01*
X031050Y016561D01*
X031009Y016532D01*
X030966Y016506D01*
X030921Y016484D01*
X030875Y016466D01*
X030827Y016451D01*
X030778Y016440D01*
X030729Y016433D01*
X030679Y016430D01*
X030628Y016431D01*
X030579Y016436D01*
X030529Y016445D01*
X030481Y016458D01*
X030434Y016474D01*
X030388Y016495D01*
X030344Y016519D01*
X030302Y016546D01*
X030262Y016576D01*
X030225Y016610D01*
X030191Y016647D01*
X030159Y016686D01*
X030131Y016727D01*
X030106Y016771D01*
X030085Y016816D01*
X030068Y016863D01*
X030054Y016911D01*
X030044Y016960D01*
X030038Y017010D01*
X030036Y017060D01*
X030036Y001706D02*
X030038Y001756D01*
X030044Y001806D01*
X030054Y001855D01*
X030068Y001903D01*
X030085Y001950D01*
X030106Y001995D01*
X030131Y002039D01*
X030159Y002080D01*
X030191Y002119D01*
X030225Y002156D01*
X030262Y002190D01*
X030302Y002220D01*
X030344Y002247D01*
X030388Y002271D01*
X030434Y002292D01*
X030481Y002308D01*
X030529Y002321D01*
X030579Y002330D01*
X030628Y002335D01*
X030679Y002336D01*
X030729Y002333D01*
X030778Y002326D01*
X030827Y002315D01*
X030875Y002300D01*
X030921Y002282D01*
X030966Y002260D01*
X031009Y002234D01*
X031050Y002205D01*
X031089Y002173D01*
X031125Y002138D01*
X031157Y002100D01*
X031187Y002060D01*
X031214Y002017D01*
X031237Y001973D01*
X031256Y001927D01*
X031272Y001879D01*
X031284Y001830D01*
X031292Y001781D01*
X031296Y001731D01*
X031296Y001681D01*
X031292Y001631D01*
X031284Y001582D01*
X031272Y001533D01*
X031256Y001485D01*
X031237Y001439D01*
X031214Y001395D01*
X031187Y001352D01*
X031157Y001312D01*
X031125Y001274D01*
X031089Y001239D01*
X031050Y001207D01*
X031009Y001178D01*
X030966Y001152D01*
X030921Y001130D01*
X030875Y001112D01*
X030827Y001097D01*
X030778Y001086D01*
X030729Y001079D01*
X030679Y001076D01*
X030628Y001077D01*
X030579Y001082D01*
X030529Y001091D01*
X030481Y001104D01*
X030434Y001120D01*
X030388Y001141D01*
X030344Y001165D01*
X030302Y001192D01*
X030262Y001222D01*
X030225Y001256D01*
X030191Y001293D01*
X030159Y001332D01*
X030131Y001373D01*
X030106Y001417D01*
X030085Y001462D01*
X030068Y001509D01*
X030054Y001557D01*
X030044Y001606D01*
X030038Y001656D01*
X030036Y001706D01*
M02*
