G75*
G70*
%OFA0B0*%
%FSLAX24Y24*%
%IPPOS*%
%LPD*%
%AMOC8*
5,1,8,0,0,1.08239X$1,22.5*
%
%ADD10C,0.0030*%
%ADD11C,0.0050*%
%ADD12R,0.0180X0.0300*%
%ADD13C,0.0220*%
%ADD14C,0.0080*%
%ADD15C,0.0060*%
%ADD16C,0.0000*%
%ADD17C,0.0020*%
%ADD18R,0.0300X0.0250*%
%ADD19R,0.0500X0.1100*%
%ADD20C,0.0120*%
%ADD21C,0.0100*%
%ADD22C,0.0040*%
%ADD23R,0.0300X0.0180*%
D10*
X004459Y003276D02*
X004459Y003372D01*
X004508Y003421D01*
X004508Y003522D02*
X004459Y003570D01*
X004459Y003715D01*
X004750Y003715D01*
X004750Y003570D01*
X004701Y003522D01*
X004653Y003522D01*
X004604Y003570D01*
X004604Y003715D01*
X004604Y003817D02*
X004556Y003865D01*
X004556Y004010D01*
X004459Y004010D02*
X004750Y004010D01*
X004750Y003865D01*
X004701Y003817D01*
X004604Y003817D01*
X004556Y003913D02*
X004459Y003817D01*
X004604Y003570D02*
X004556Y003522D01*
X004508Y003522D01*
X004701Y003421D02*
X004750Y003372D01*
X004750Y003276D01*
X004701Y003227D01*
X004653Y003227D01*
X004604Y003276D01*
X004556Y003227D01*
X004508Y003227D01*
X004459Y003276D01*
X004604Y003276D02*
X004604Y003324D01*
X007291Y001179D02*
X007477Y001179D01*
X007538Y001117D01*
X007538Y000994D01*
X007477Y000932D01*
X007291Y000932D01*
X007291Y000809D02*
X007291Y001179D01*
X007660Y001179D02*
X007783Y001179D01*
X007721Y001179D02*
X007721Y000809D01*
X007660Y000809D02*
X007783Y000809D01*
X007905Y000870D02*
X007967Y000809D01*
X008090Y000809D01*
X008152Y000870D01*
X008274Y000747D02*
X008521Y000747D01*
X008642Y000809D02*
X008642Y001179D01*
X008827Y001179D01*
X008889Y001117D01*
X008889Y000994D01*
X008827Y000932D01*
X008642Y000932D01*
X009010Y000932D02*
X009195Y000932D01*
X009257Y000994D01*
X009257Y001117D01*
X009195Y001179D01*
X009010Y001179D01*
X009010Y000809D01*
X009134Y000932D02*
X009257Y000809D01*
X009379Y000870D02*
X009440Y000809D01*
X009564Y000809D01*
X009625Y000870D01*
X009625Y001117D01*
X009564Y001179D01*
X009440Y001179D01*
X009379Y001117D01*
X009379Y000870D01*
X009747Y000870D02*
X009747Y001117D01*
X009809Y001179D01*
X009932Y001179D01*
X009994Y001117D01*
X009994Y000994D02*
X009870Y000994D01*
X009994Y000994D02*
X009994Y000870D01*
X009932Y000809D01*
X009809Y000809D01*
X009747Y000870D01*
X011009Y000953D02*
X011194Y000953D01*
X011256Y001014D01*
X011256Y001261D01*
X011194Y001323D01*
X011009Y001323D01*
X011009Y000953D01*
X011378Y001014D02*
X011378Y001138D01*
X011439Y001199D01*
X011563Y001199D01*
X011624Y001138D01*
X011624Y001076D01*
X011378Y001076D01*
X011378Y001014D02*
X011439Y000953D01*
X011563Y000953D01*
X011746Y000953D02*
X011931Y000953D01*
X011993Y001014D01*
X011931Y001076D01*
X011808Y001076D01*
X011746Y001138D01*
X011808Y001199D01*
X011993Y001199D01*
X012114Y001199D02*
X012176Y001199D01*
X012176Y000953D01*
X012114Y000953D02*
X012238Y000953D01*
X012360Y001014D02*
X012360Y001138D01*
X012421Y001199D01*
X012607Y001199D01*
X012607Y000891D01*
X012545Y000829D01*
X012483Y000829D01*
X012421Y000953D02*
X012607Y000953D01*
X012728Y000953D02*
X012728Y001199D01*
X012913Y001199D01*
X012975Y001138D01*
X012975Y000953D01*
X013096Y000953D02*
X013096Y001014D01*
X013158Y001014D01*
X013158Y000953D01*
X013096Y000953D01*
X013096Y001138D02*
X013096Y001199D01*
X013158Y001199D01*
X013158Y001138D01*
X013096Y001138D01*
X013649Y001323D02*
X013649Y000953D01*
X013896Y000953D01*
X014017Y000953D02*
X014017Y001199D01*
X014141Y001323D01*
X014264Y001199D01*
X014264Y000953D01*
X014385Y001014D02*
X014447Y000953D01*
X014571Y000953D01*
X014632Y001014D01*
X014632Y001076D01*
X014571Y001138D01*
X014509Y001138D01*
X014571Y001138D02*
X014632Y001199D01*
X014632Y001261D01*
X014571Y001323D01*
X014447Y001323D01*
X014385Y001261D01*
X014264Y001138D02*
X014017Y001138D01*
X013894Y001417D02*
X014018Y001540D01*
X013956Y001540D01*
X013956Y001602D01*
X014018Y001602D01*
X014018Y001540D01*
X013773Y001540D02*
X013773Y001787D01*
X013650Y001910D01*
X013526Y001787D01*
X013526Y001540D01*
X013405Y001540D02*
X013281Y001663D01*
X013343Y001663D02*
X013158Y001663D01*
X013036Y001663D02*
X013036Y001910D01*
X013158Y001910D02*
X013343Y001910D01*
X013405Y001849D01*
X013405Y001725D01*
X013343Y001663D01*
X013526Y001725D02*
X013773Y001725D01*
X013956Y002103D02*
X014141Y002103D01*
X014203Y002164D01*
X014203Y002288D01*
X014141Y002349D01*
X013956Y002349D01*
X013956Y002473D02*
X013956Y002103D01*
X014324Y002164D02*
X014324Y002288D01*
X014386Y002349D01*
X014509Y002349D01*
X014571Y002288D01*
X014571Y002226D01*
X014324Y002226D01*
X014324Y002164D02*
X014386Y002103D01*
X014509Y002103D01*
X014692Y002164D02*
X014754Y002226D01*
X014939Y002226D01*
X014939Y002288D02*
X014939Y002103D01*
X014754Y002103D01*
X014692Y002164D01*
X014754Y002349D02*
X014878Y002349D01*
X014939Y002288D01*
X015061Y002288D02*
X015061Y002164D01*
X015122Y002103D01*
X015308Y002103D01*
X015429Y002164D02*
X015491Y002103D01*
X015614Y002103D01*
X015676Y002164D01*
X015676Y002288D01*
X015614Y002349D01*
X015491Y002349D01*
X015429Y002288D01*
X015429Y002164D01*
X015308Y002349D02*
X015122Y002349D01*
X015061Y002288D01*
X015062Y001910D02*
X015123Y001849D01*
X015123Y001787D01*
X015062Y001725D01*
X014877Y001725D01*
X015062Y001725D02*
X015123Y001663D01*
X015123Y001602D01*
X015062Y001540D01*
X014877Y001540D01*
X014877Y001910D01*
X015062Y001910D01*
X015245Y001910D02*
X015492Y001910D01*
X015613Y001787D02*
X015737Y001910D01*
X015860Y001787D01*
X015860Y001540D01*
X015982Y001417D02*
X016105Y001540D01*
X016043Y001540D01*
X016043Y001602D01*
X016105Y001602D01*
X016105Y001540D01*
X015860Y001725D02*
X015613Y001725D01*
X015613Y001787D02*
X015613Y001540D01*
X015614Y001323D02*
X015737Y001199D01*
X015737Y000953D01*
X015737Y001138D02*
X015490Y001138D01*
X015490Y001199D02*
X015614Y001323D01*
X015490Y001199D02*
X015490Y000953D01*
X015307Y001076D02*
X015122Y001076D01*
X015122Y000953D02*
X015122Y001323D01*
X015307Y001323D01*
X015369Y001261D01*
X015369Y001138D01*
X015307Y001076D01*
X014939Y001014D02*
X014939Y001323D01*
X014877Y001323D02*
X015001Y001323D01*
X015245Y001540D02*
X015245Y001910D01*
X015245Y001725D02*
X015368Y001725D01*
X015797Y002103D02*
X015797Y002349D01*
X015983Y002349D01*
X016044Y002288D01*
X016044Y002103D01*
X016534Y002103D02*
X016719Y002103D01*
X016781Y002164D01*
X016781Y002288D01*
X016719Y002349D01*
X016534Y002349D01*
X016534Y001979D01*
X016657Y001910D02*
X016595Y001849D01*
X016657Y001910D02*
X016781Y001910D01*
X016842Y001849D01*
X016842Y001787D01*
X016781Y001725D01*
X016842Y001663D01*
X016842Y001602D01*
X016781Y001540D01*
X016657Y001540D01*
X016595Y001602D01*
X016719Y001725D02*
X016781Y001725D01*
X016964Y001602D02*
X017025Y001540D01*
X017087Y001540D01*
X017149Y001602D01*
X017149Y001910D01*
X017087Y001910D02*
X017211Y001910D01*
X017332Y001910D02*
X017517Y001910D01*
X017579Y001849D01*
X017579Y001725D01*
X017517Y001663D01*
X017332Y001663D01*
X017332Y001540D02*
X017332Y001910D01*
X017271Y002103D02*
X017209Y002164D01*
X017209Y002288D01*
X017271Y002349D01*
X017394Y002349D01*
X017456Y002288D01*
X017456Y002164D01*
X017394Y002103D01*
X017271Y002103D01*
X017087Y002349D02*
X017026Y002349D01*
X016902Y002226D01*
X016902Y002103D02*
X016902Y002349D01*
X017578Y001979D02*
X017639Y001979D01*
X017701Y002041D01*
X017701Y002349D01*
X017701Y002473D02*
X017701Y002535D01*
X017885Y002349D02*
X018008Y002349D01*
X018070Y002288D01*
X018070Y002226D01*
X017823Y002226D01*
X017823Y002164D02*
X017823Y002288D01*
X017885Y002349D01*
X017823Y002164D02*
X017885Y002103D01*
X018008Y002103D01*
X018191Y002164D02*
X018253Y002103D01*
X018438Y002103D01*
X018621Y002164D02*
X018683Y002103D01*
X018621Y002164D02*
X018621Y002411D01*
X018560Y002349D02*
X018683Y002349D01*
X018438Y002349D02*
X018253Y002349D01*
X018191Y002288D01*
X018191Y002164D01*
X018130Y001910D02*
X018192Y001849D01*
X018192Y001787D01*
X018254Y001725D01*
X018192Y001663D01*
X018192Y001602D01*
X018130Y001540D01*
X018069Y001540D01*
X017947Y001540D02*
X017947Y001787D01*
X017824Y001910D01*
X017700Y001787D01*
X017700Y001540D01*
X017700Y001725D02*
X017947Y001725D01*
X018069Y001910D02*
X018130Y001910D01*
X018130Y001323D02*
X018069Y001261D01*
X018130Y001323D02*
X018254Y001323D01*
X018316Y001261D01*
X018316Y001199D01*
X018069Y000953D01*
X018316Y000953D01*
X017947Y000953D02*
X017700Y000953D01*
X017824Y000953D02*
X017824Y001323D01*
X017700Y001199D01*
X017579Y001261D02*
X017332Y001014D01*
X017394Y000953D01*
X017517Y000953D01*
X017579Y001014D01*
X017579Y001261D01*
X017517Y001323D01*
X017394Y001323D01*
X017332Y001261D01*
X017332Y001014D01*
X017211Y000953D02*
X016964Y000953D01*
X017211Y001199D01*
X017211Y001261D01*
X017149Y001323D01*
X017025Y001323D01*
X016964Y001261D01*
X016474Y001138D02*
X016227Y001138D01*
X014939Y001014D02*
X014877Y000953D01*
X014816Y000953D01*
X014754Y001014D01*
X014755Y001540D02*
X014508Y001540D01*
X014632Y001540D02*
X014632Y001910D01*
X014508Y001787D01*
X013466Y002103D02*
X013466Y002473D01*
X013219Y002473D02*
X013219Y002103D01*
X013343Y002226D01*
X013466Y002103D01*
X013158Y001910D02*
X013158Y001540D01*
X013036Y001663D02*
X012913Y001540D01*
X012789Y001663D01*
X012789Y001910D01*
X012668Y001910D02*
X012668Y001849D01*
X012421Y001602D01*
X012421Y001540D01*
X012299Y001540D02*
X012238Y001540D01*
X012176Y001602D01*
X012176Y001663D01*
X012114Y001725D01*
X012176Y001787D01*
X012176Y001849D01*
X012238Y001910D01*
X012299Y001910D01*
X012421Y001910D02*
X012668Y001910D01*
X012913Y002103D02*
X013036Y002103D01*
X013098Y002164D01*
X012913Y002103D02*
X012851Y002164D01*
X012851Y002411D01*
X012913Y002473D01*
X013036Y002473D01*
X013098Y002411D01*
X012361Y002473D02*
X012114Y002226D01*
X012176Y002288D02*
X012361Y002103D01*
X012114Y002103D02*
X012114Y002473D01*
X011869Y002473D02*
X011746Y002349D01*
X011624Y002349D02*
X011624Y002103D01*
X011746Y002103D02*
X011993Y002103D01*
X011869Y002103D02*
X011869Y002473D01*
X011624Y002349D02*
X011501Y002473D01*
X011378Y002349D01*
X011378Y002103D01*
X011256Y002103D02*
X011009Y002103D01*
X011009Y002473D01*
X011378Y002288D02*
X011624Y002288D01*
X011501Y001910D02*
X011624Y001787D01*
X011624Y001540D01*
X011624Y001725D02*
X011378Y001725D01*
X011378Y001787D02*
X011501Y001910D01*
X011378Y001787D02*
X011378Y001540D01*
X011256Y001540D02*
X011009Y001540D01*
X011009Y001910D01*
X012176Y001385D02*
X012176Y001323D01*
X012360Y001014D02*
X012421Y000953D01*
X008152Y001117D02*
X008090Y001179D01*
X007967Y001179D01*
X007905Y001117D01*
X007905Y000870D01*
X011023Y003702D02*
X011072Y003654D01*
X011168Y003654D01*
X011217Y003702D01*
X011318Y003654D02*
X011511Y003847D01*
X011511Y003896D01*
X011463Y003944D01*
X011366Y003944D01*
X011318Y003896D01*
X011217Y003896D02*
X011168Y003944D01*
X011072Y003944D01*
X011023Y003896D01*
X011023Y003702D01*
X011318Y003654D02*
X011511Y003654D01*
X011612Y003702D02*
X011661Y003654D01*
X011758Y003654D01*
X011806Y003702D01*
X011806Y003751D01*
X011758Y003799D01*
X011709Y003799D01*
X011758Y003799D02*
X011806Y003847D01*
X011806Y003896D01*
X011758Y003944D01*
X011661Y003944D01*
X011612Y003896D01*
X012273Y004954D02*
X012467Y004954D01*
X012568Y005002D02*
X012616Y004954D01*
X012713Y004954D01*
X012761Y005002D01*
X012761Y005099D01*
X012713Y005147D01*
X012665Y005147D01*
X012568Y005099D01*
X012568Y005244D01*
X012761Y005244D01*
X012273Y005244D02*
X012273Y004954D01*
X013461Y004960D02*
X013654Y004960D01*
X013755Y005008D02*
X013804Y004960D01*
X013900Y004960D01*
X013949Y005008D01*
X013949Y005057D01*
X013900Y005105D01*
X013755Y005105D01*
X013755Y005008D01*
X013755Y005105D02*
X013852Y005202D01*
X013949Y005250D01*
X013461Y005250D02*
X013461Y004960D01*
X014447Y003951D02*
X014398Y003902D01*
X014398Y003709D01*
X014447Y003660D01*
X014543Y003660D01*
X014592Y003709D01*
X014693Y003660D02*
X014886Y003854D01*
X014886Y003902D01*
X014838Y003951D01*
X014741Y003951D01*
X014693Y003902D01*
X014592Y003902D02*
X014543Y003951D01*
X014447Y003951D01*
X014693Y003660D02*
X014886Y003660D01*
X014987Y003805D02*
X015181Y003805D01*
X015133Y003660D02*
X015133Y003951D01*
X014987Y003805D01*
X019297Y002832D02*
X019297Y002638D01*
X019345Y002590D01*
X019442Y002590D01*
X019490Y002638D01*
X019591Y002590D02*
X019785Y002590D01*
X019688Y002590D02*
X019688Y002880D01*
X019591Y002783D01*
X019490Y002832D02*
X019442Y002880D01*
X019345Y002880D01*
X019297Y002832D01*
X019886Y002735D02*
X020031Y002735D01*
X020080Y002687D01*
X020080Y002638D01*
X020031Y002590D01*
X019934Y002590D01*
X019886Y002638D01*
X019886Y002735D01*
X019983Y002832D01*
X020080Y002880D01*
X020345Y001693D02*
X020297Y001644D01*
X020297Y001451D01*
X020345Y001403D01*
X020442Y001403D01*
X020490Y001451D01*
X020591Y001451D02*
X020640Y001403D01*
X020737Y001403D01*
X020785Y001451D01*
X020785Y001499D01*
X020737Y001548D01*
X020688Y001548D01*
X020737Y001548D02*
X020785Y001596D01*
X020785Y001644D01*
X020737Y001693D01*
X020640Y001693D01*
X020591Y001644D01*
X020490Y001644D02*
X020442Y001693D01*
X020345Y001693D01*
X020886Y001693D02*
X021080Y001693D01*
X021080Y001644D01*
X020886Y001451D01*
X020886Y001403D01*
X021297Y001451D02*
X021297Y001644D01*
X021345Y001693D01*
X021442Y001693D01*
X021490Y001644D01*
X021591Y001644D02*
X021640Y001693D01*
X021737Y001693D01*
X021785Y001644D01*
X021785Y001596D01*
X021737Y001548D01*
X021785Y001499D01*
X021785Y001451D01*
X021737Y001403D01*
X021640Y001403D01*
X021591Y001451D01*
X021490Y001451D02*
X021442Y001403D01*
X021345Y001403D01*
X021297Y001451D01*
X021688Y001548D02*
X021737Y001548D01*
X021886Y001644D02*
X021934Y001693D01*
X022031Y001693D01*
X022080Y001644D01*
X022080Y001596D01*
X021886Y001403D01*
X022080Y001403D01*
X022359Y001451D02*
X022359Y001644D01*
X022408Y001693D01*
X022504Y001693D01*
X022553Y001644D01*
X022654Y001644D02*
X022702Y001693D01*
X022799Y001693D01*
X022847Y001644D01*
X022847Y001596D01*
X022799Y001548D01*
X022847Y001499D01*
X022847Y001451D01*
X022799Y001403D01*
X022702Y001403D01*
X022654Y001451D01*
X022553Y001451D02*
X022504Y001403D01*
X022408Y001403D01*
X022359Y001451D01*
X022751Y001548D02*
X022799Y001548D01*
X022949Y001596D02*
X023045Y001693D01*
X023045Y001403D01*
X022949Y001403D02*
X023142Y001403D01*
X024441Y002072D02*
X024634Y002072D01*
X024735Y002120D02*
X024735Y002169D01*
X024784Y002217D01*
X024880Y002217D01*
X024929Y002169D01*
X024929Y002120D01*
X024880Y002072D01*
X024784Y002072D01*
X024735Y002120D01*
X024784Y002217D02*
X024735Y002265D01*
X024735Y002314D01*
X024784Y002362D01*
X024880Y002362D01*
X024929Y002314D01*
X024929Y002265D01*
X024880Y002217D01*
X024441Y002362D02*
X024441Y002072D01*
X024461Y002509D02*
X024509Y002558D01*
X024461Y002509D02*
X024364Y002509D01*
X024316Y002558D01*
X024316Y002751D01*
X024364Y002800D01*
X024461Y002800D01*
X024509Y002751D01*
X024610Y002655D02*
X024804Y002655D01*
X024905Y002751D02*
X024953Y002800D01*
X025050Y002800D01*
X025098Y002751D01*
X025098Y002703D01*
X025050Y002655D01*
X025098Y002606D01*
X025098Y002558D01*
X025050Y002509D01*
X024953Y002509D01*
X024905Y002558D01*
X025002Y002655D02*
X025050Y002655D01*
X024755Y002800D02*
X024610Y002655D01*
X024755Y002509D02*
X024755Y002800D01*
X022955Y003138D02*
X022906Y003090D01*
X022809Y003090D01*
X022761Y003138D01*
X022761Y003235D02*
X022858Y003283D01*
X022906Y003283D01*
X022955Y003235D01*
X022955Y003138D01*
X022761Y003235D02*
X022761Y003380D01*
X022955Y003380D01*
X022660Y003332D02*
X022660Y003283D01*
X022612Y003235D01*
X022660Y003187D01*
X022660Y003138D01*
X022612Y003090D01*
X022515Y003090D01*
X022466Y003138D01*
X022365Y003138D02*
X022317Y003090D01*
X022220Y003090D01*
X022172Y003138D01*
X022172Y003332D01*
X022220Y003380D01*
X022317Y003380D01*
X022365Y003332D01*
X022466Y003332D02*
X022515Y003380D01*
X022612Y003380D01*
X022660Y003332D01*
X022612Y003235D02*
X022563Y003235D01*
X023283Y004153D02*
X023379Y004153D01*
X023428Y004201D01*
X023529Y004201D02*
X023577Y004153D01*
X023674Y004153D01*
X023722Y004201D01*
X023722Y004249D01*
X023674Y004298D01*
X023626Y004298D01*
X023674Y004298D02*
X023722Y004346D01*
X023722Y004394D01*
X023674Y004443D01*
X023577Y004443D01*
X023529Y004394D01*
X023428Y004394D02*
X023379Y004443D01*
X023283Y004443D01*
X023234Y004394D01*
X023234Y004201D01*
X023283Y004153D01*
X023824Y004201D02*
X023872Y004153D01*
X023969Y004153D01*
X024017Y004201D01*
X024017Y004249D01*
X023969Y004298D01*
X023824Y004298D01*
X023824Y004201D01*
X023824Y004298D02*
X023920Y004394D01*
X024017Y004443D01*
X023969Y004715D02*
X023872Y004715D01*
X023824Y004763D01*
X023722Y004763D02*
X023674Y004715D01*
X023577Y004715D01*
X023529Y004763D01*
X023428Y004763D02*
X023379Y004715D01*
X023283Y004715D01*
X023234Y004763D01*
X023234Y004957D01*
X023283Y005005D01*
X023379Y005005D01*
X023428Y004957D01*
X023529Y004957D02*
X023577Y005005D01*
X023674Y005005D01*
X023722Y004957D01*
X023722Y004908D01*
X023674Y004860D01*
X023722Y004812D01*
X023722Y004763D01*
X023674Y004860D02*
X023626Y004860D01*
X023824Y004957D02*
X023872Y005005D01*
X023969Y005005D01*
X024017Y004957D01*
X024017Y004908D01*
X023969Y004860D01*
X024017Y004812D01*
X024017Y004763D01*
X023969Y004715D01*
X023969Y004860D02*
X023920Y004860D01*
X021963Y005534D02*
X021770Y005534D01*
X021963Y005727D01*
X021963Y005775D01*
X021915Y005824D01*
X021818Y005824D01*
X021770Y005775D01*
X021669Y005824D02*
X021669Y005582D01*
X021620Y005534D01*
X021523Y005534D01*
X021475Y005582D01*
X021475Y005824D01*
X021143Y006815D02*
X021192Y006863D01*
X021192Y006960D01*
X021143Y007008D01*
X021192Y007110D02*
X021192Y007303D01*
X021192Y007206D02*
X020902Y007206D01*
X020998Y007110D01*
X020950Y007008D02*
X020902Y006960D01*
X020902Y006863D01*
X020950Y006815D01*
X021143Y006815D01*
X020504Y006863D02*
X020504Y006960D01*
X020456Y007008D01*
X020504Y007110D02*
X020504Y007303D01*
X020504Y007206D02*
X020214Y007206D01*
X020311Y007110D01*
X020262Y007008D02*
X020214Y006960D01*
X020214Y006863D01*
X020262Y006815D01*
X020456Y006815D01*
X020504Y006863D01*
X020456Y007404D02*
X020504Y007453D01*
X020504Y007549D01*
X020456Y007598D01*
X020359Y007598D01*
X020311Y007549D01*
X020311Y007501D01*
X020359Y007404D01*
X020214Y007404D01*
X020214Y007598D01*
X020902Y007549D02*
X021047Y007404D01*
X021047Y007598D01*
X021192Y007549D02*
X020902Y007549D01*
X021672Y007568D02*
X021672Y007278D01*
X021672Y007374D02*
X021817Y007374D01*
X021865Y007423D01*
X021865Y007519D01*
X021817Y007568D01*
X021672Y007568D01*
X021769Y007374D02*
X021865Y007278D01*
X021966Y007278D02*
X021966Y007326D01*
X022160Y007519D01*
X022160Y007568D01*
X021966Y007568D01*
X022359Y007568D02*
X022504Y007568D01*
X022553Y007519D01*
X022553Y007423D01*
X022504Y007374D01*
X022359Y007374D01*
X022359Y007278D02*
X022359Y007568D01*
X022456Y007374D02*
X022553Y007278D01*
X022654Y007326D02*
X022702Y007278D01*
X022799Y007278D01*
X022847Y007326D01*
X022847Y007374D01*
X022799Y007423D01*
X022654Y007423D01*
X022654Y007326D01*
X022654Y007423D02*
X022751Y007519D01*
X022847Y007568D01*
X023609Y007576D02*
X023658Y007528D01*
X023754Y007528D01*
X023803Y007576D01*
X023904Y007528D02*
X024097Y007721D01*
X024097Y007769D01*
X024049Y007818D01*
X023952Y007818D01*
X023904Y007769D01*
X023803Y007769D02*
X023754Y007818D01*
X023658Y007818D01*
X023609Y007769D01*
X023609Y007576D01*
X023904Y007528D02*
X024097Y007528D01*
X024199Y007576D02*
X024247Y007528D01*
X024344Y007528D01*
X024392Y007576D01*
X024392Y007624D01*
X024344Y007673D01*
X024199Y007673D01*
X024199Y007576D01*
X024199Y007673D02*
X024295Y007769D01*
X024392Y007818D01*
X025047Y007769D02*
X025047Y007576D01*
X025095Y007528D01*
X025192Y007528D01*
X025240Y007576D01*
X025341Y007576D02*
X025390Y007528D01*
X025487Y007528D01*
X025535Y007576D01*
X025535Y007673D01*
X025487Y007721D01*
X025438Y007721D01*
X025341Y007673D01*
X025341Y007818D01*
X025535Y007818D01*
X025636Y007673D02*
X025830Y007673D01*
X025781Y007528D02*
X025781Y007818D01*
X025636Y007673D01*
X025240Y007769D02*
X025192Y007818D01*
X025095Y007818D01*
X025047Y007769D01*
X025797Y007269D02*
X025797Y007076D01*
X025845Y007028D01*
X025942Y007028D01*
X025990Y007076D01*
X026091Y007076D02*
X026140Y007028D01*
X026237Y007028D01*
X026285Y007076D01*
X026285Y007173D01*
X026237Y007221D01*
X026188Y007221D01*
X026091Y007173D01*
X026091Y007318D01*
X026285Y007318D01*
X026386Y007269D02*
X026434Y007318D01*
X026531Y007318D01*
X026580Y007269D01*
X026386Y007076D01*
X026434Y007028D01*
X026531Y007028D01*
X026580Y007076D01*
X026580Y007269D01*
X026386Y007269D02*
X026386Y007076D01*
X025990Y007269D02*
X025942Y007318D01*
X025845Y007318D01*
X025797Y007269D01*
X025304Y007112D02*
X025304Y007064D01*
X025110Y006870D01*
X025110Y006822D01*
X025009Y006822D02*
X024816Y006822D01*
X024816Y007112D01*
X025110Y007112D02*
X025304Y007112D01*
X025266Y006675D02*
X025217Y006626D01*
X025266Y006675D02*
X025362Y006675D01*
X025411Y006626D01*
X025411Y006578D01*
X025217Y006384D01*
X025411Y006384D01*
X025116Y006530D02*
X024923Y006530D01*
X025068Y006675D01*
X025068Y006384D01*
X024822Y006433D02*
X024773Y006384D01*
X024676Y006384D01*
X024628Y006433D01*
X024628Y006626D01*
X024676Y006675D01*
X024773Y006675D01*
X024822Y006626D01*
X024129Y006648D02*
X024129Y006551D01*
X024081Y006503D01*
X023887Y006503D01*
X023839Y006551D01*
X023839Y006648D01*
X023887Y006696D01*
X023887Y006797D02*
X023839Y006846D01*
X023839Y006942D01*
X023887Y006991D01*
X023936Y006991D01*
X023984Y006942D01*
X024033Y006991D01*
X024081Y006991D01*
X024129Y006942D01*
X024129Y006846D01*
X024081Y006797D01*
X024081Y006696D02*
X024129Y006648D01*
X023984Y006894D02*
X023984Y006942D01*
X023984Y007092D02*
X023984Y007285D01*
X023839Y007237D02*
X023984Y007092D01*
X024129Y007237D02*
X023839Y007237D01*
X024297Y008778D02*
X024490Y008778D01*
X024591Y008826D02*
X024640Y008778D01*
X024737Y008778D01*
X024785Y008826D01*
X024785Y008874D01*
X024737Y008923D01*
X024688Y008923D01*
X024737Y008923D02*
X024785Y008971D01*
X024785Y009019D01*
X024737Y009068D01*
X024640Y009068D01*
X024591Y009019D01*
X024297Y009068D02*
X024297Y008778D01*
X024341Y009465D02*
X024535Y009658D01*
X024535Y009707D01*
X024487Y009755D01*
X024390Y009755D01*
X024341Y009707D01*
X024240Y009707D02*
X024192Y009755D01*
X024095Y009755D01*
X024047Y009707D01*
X024047Y009513D01*
X024095Y009465D01*
X024192Y009465D01*
X024240Y009513D01*
X024341Y009465D02*
X024535Y009465D01*
X024636Y009513D02*
X024830Y009707D01*
X024830Y009513D01*
X024781Y009465D01*
X024684Y009465D01*
X024636Y009513D01*
X024636Y009707D01*
X024684Y009755D01*
X024781Y009755D01*
X024830Y009707D01*
X024830Y010153D02*
X024636Y010153D01*
X024733Y010153D02*
X024733Y010443D01*
X024636Y010346D01*
X024535Y010346D02*
X024535Y010394D01*
X024487Y010443D01*
X024390Y010443D01*
X024341Y010394D01*
X024240Y010394D02*
X024192Y010443D01*
X024095Y010443D01*
X024047Y010394D01*
X024047Y010201D01*
X024095Y010153D01*
X024192Y010153D01*
X024240Y010201D01*
X024341Y010153D02*
X024535Y010346D01*
X024535Y010153D02*
X024341Y010153D01*
X023910Y010158D02*
X023716Y009965D01*
X023910Y009965D01*
X023910Y010158D02*
X023910Y010207D01*
X023862Y010255D01*
X023765Y010255D01*
X023716Y010207D01*
X023615Y009965D02*
X023422Y009965D01*
X023422Y010255D01*
X023160Y010255D02*
X022966Y010255D01*
X022966Y010110D01*
X023063Y010158D01*
X023112Y010158D01*
X023160Y010110D01*
X023160Y010013D01*
X023112Y009965D01*
X023015Y009965D01*
X022966Y010013D01*
X022865Y010013D02*
X022817Y009965D01*
X022720Y009965D01*
X022672Y010013D01*
X022672Y010207D01*
X022720Y010255D01*
X022817Y010255D01*
X022865Y010207D01*
X022472Y010110D02*
X022279Y010110D01*
X022424Y010255D01*
X022424Y009965D01*
X022178Y010013D02*
X022129Y009965D01*
X022033Y009965D01*
X021984Y010013D01*
X021984Y010207D01*
X022033Y010255D01*
X022129Y010255D01*
X022178Y010207D01*
X021785Y009965D02*
X021591Y009965D01*
X021688Y009965D02*
X021688Y010255D01*
X021591Y010158D01*
X021490Y009965D02*
X021297Y009965D01*
X021297Y010255D01*
X020442Y010178D02*
X020442Y009985D01*
X020442Y010081D02*
X020152Y010081D01*
X020248Y009985D01*
X020200Y009883D02*
X020152Y009835D01*
X020152Y009738D01*
X020200Y009690D01*
X020393Y009690D01*
X020442Y009738D01*
X020442Y009835D01*
X020393Y009883D01*
X020262Y009535D02*
X020456Y009342D01*
X020504Y009342D01*
X020504Y009241D02*
X020504Y009047D01*
X020311Y009241D01*
X020262Y009241D01*
X020214Y009192D01*
X020214Y009096D01*
X020262Y009047D01*
X020262Y008946D02*
X020214Y008898D01*
X020214Y008801D01*
X020262Y008753D01*
X020456Y008753D01*
X020504Y008801D01*
X020504Y008898D01*
X020456Y008946D01*
X020214Y009342D02*
X020214Y009535D01*
X020262Y009535D01*
X019567Y009255D02*
X019567Y009158D01*
X019518Y009110D01*
X019567Y009008D02*
X019470Y008912D01*
X019470Y008960D02*
X019470Y008815D01*
X019567Y008815D02*
X019277Y008815D01*
X019277Y008960D01*
X019325Y009008D01*
X019422Y009008D01*
X019470Y008960D01*
X019325Y009110D02*
X019277Y009158D01*
X019277Y009255D01*
X019325Y009303D01*
X019373Y009303D01*
X019422Y009255D01*
X019470Y009303D01*
X019518Y009303D01*
X019567Y009255D01*
X019422Y009255D02*
X019422Y009206D01*
X018706Y010628D02*
X018754Y010676D01*
X018754Y010773D01*
X018706Y010821D01*
X018754Y010922D02*
X018561Y011116D01*
X018512Y011116D01*
X018464Y011067D01*
X018464Y010971D01*
X018512Y010922D01*
X018512Y010821D02*
X018464Y010773D01*
X018464Y010676D01*
X018512Y010628D01*
X018706Y010628D01*
X018317Y010676D02*
X018317Y010773D01*
X018268Y010821D01*
X018268Y010922D02*
X018317Y010971D01*
X018317Y011067D01*
X018268Y011116D01*
X018220Y011116D01*
X018172Y011067D01*
X018172Y011019D01*
X018172Y011067D02*
X018123Y011116D01*
X018075Y011116D01*
X018027Y011067D01*
X018027Y010971D01*
X018075Y010922D01*
X018075Y010821D02*
X018027Y010773D01*
X018027Y010676D01*
X018075Y010628D01*
X018268Y010628D01*
X018317Y010676D01*
X018754Y010922D02*
X018754Y011116D01*
X019234Y011278D02*
X019234Y011568D01*
X019379Y011568D01*
X019428Y011519D01*
X019428Y011423D01*
X019379Y011374D01*
X019234Y011374D01*
X019331Y011374D02*
X019428Y011278D01*
X019529Y011278D02*
X019722Y011471D01*
X019722Y011519D01*
X019674Y011568D01*
X019577Y011568D01*
X019529Y011519D01*
X019529Y011278D02*
X019722Y011278D01*
X020715Y011611D02*
X020763Y011563D01*
X020957Y011563D01*
X021005Y011611D01*
X021005Y011708D01*
X020957Y011756D01*
X021005Y011857D02*
X021005Y012051D01*
X021005Y011954D02*
X020715Y011954D01*
X020812Y011857D01*
X020763Y011756D02*
X020715Y011708D01*
X020715Y011611D01*
X020715Y012152D02*
X020715Y012345D01*
X020763Y012345D01*
X020957Y012152D01*
X021005Y012152D01*
X022409Y011176D02*
X022457Y011079D01*
X022554Y010982D01*
X022554Y011127D01*
X022602Y011176D01*
X022651Y011176D01*
X022699Y011127D01*
X022699Y011031D01*
X022651Y010982D01*
X022554Y010982D01*
X022457Y010881D02*
X022409Y010833D01*
X022409Y010736D01*
X022457Y010688D01*
X022651Y010688D01*
X022699Y010736D01*
X022699Y010833D01*
X022651Y010881D01*
X023720Y012215D02*
X023817Y012215D01*
X023865Y012263D01*
X023966Y012263D02*
X024015Y012215D01*
X024112Y012215D01*
X024160Y012263D01*
X024160Y012360D01*
X024112Y012408D01*
X024063Y012408D01*
X023966Y012360D01*
X023966Y012505D01*
X024160Y012505D01*
X024261Y012408D02*
X024358Y012505D01*
X024358Y012215D01*
X024261Y012215D02*
X024455Y012215D01*
X023865Y012457D02*
X023817Y012505D01*
X023720Y012505D01*
X023672Y012457D01*
X023672Y012263D01*
X023720Y012215D01*
X024220Y013153D02*
X024317Y013153D01*
X024365Y013201D01*
X024466Y013153D02*
X024660Y013153D01*
X024563Y013153D02*
X024563Y013443D01*
X024466Y013346D01*
X024365Y013394D02*
X024317Y013443D01*
X024220Y013443D01*
X024172Y013394D01*
X024172Y013201D01*
X024220Y013153D01*
X024761Y013153D02*
X024955Y013346D01*
X024955Y013394D01*
X024906Y013443D01*
X024809Y013443D01*
X024761Y013394D01*
X024761Y013153D02*
X024955Y013153D01*
X025720Y014028D02*
X025817Y014028D01*
X025865Y014076D01*
X025966Y014076D02*
X026015Y014028D01*
X026112Y014028D01*
X026160Y014076D01*
X026160Y014269D01*
X026112Y014318D01*
X026015Y014318D01*
X025966Y014269D01*
X025966Y014221D01*
X026015Y014173D01*
X026160Y014173D01*
X025865Y014269D02*
X025817Y014318D01*
X025720Y014318D01*
X025672Y014269D01*
X025672Y014076D01*
X025720Y014028D01*
X025720Y014590D02*
X025817Y014590D01*
X025865Y014638D01*
X025966Y014638D02*
X025966Y014687D01*
X026015Y014735D01*
X026112Y014735D01*
X026160Y014687D01*
X026160Y014638D01*
X026112Y014590D01*
X026015Y014590D01*
X025966Y014638D01*
X026015Y014735D02*
X025966Y014783D01*
X025966Y014832D01*
X026015Y014880D01*
X026112Y014880D01*
X026160Y014832D01*
X026160Y014783D01*
X026112Y014735D01*
X025865Y014832D02*
X025817Y014880D01*
X025720Y014880D01*
X025672Y014832D01*
X025672Y014638D01*
X025720Y014590D01*
X026797Y013755D02*
X026942Y013755D01*
X026990Y013707D01*
X026990Y013610D01*
X026942Y013562D01*
X026797Y013562D01*
X026894Y013562D02*
X026990Y013465D01*
X027091Y013465D02*
X027285Y013465D01*
X027188Y013465D02*
X027188Y013755D01*
X027091Y013658D01*
X026797Y013755D02*
X026797Y013465D01*
X027095Y012880D02*
X027047Y012832D01*
X027047Y012638D01*
X027095Y012590D01*
X027192Y012590D01*
X027240Y012638D01*
X027341Y012590D02*
X027535Y012590D01*
X027438Y012590D02*
X027438Y012880D01*
X027341Y012783D01*
X027240Y012832D02*
X027192Y012880D01*
X027095Y012880D01*
X027636Y012832D02*
X027684Y012880D01*
X027781Y012880D01*
X027830Y012832D01*
X027830Y012783D01*
X027781Y012735D01*
X027830Y012687D01*
X027830Y012638D01*
X027781Y012590D01*
X027684Y012590D01*
X027636Y012638D01*
X027733Y012735D02*
X027781Y012735D01*
X026892Y011818D02*
X026795Y011769D01*
X026699Y011673D01*
X026844Y011673D01*
X026892Y011624D01*
X026892Y011576D01*
X026844Y011528D01*
X026747Y011528D01*
X026699Y011576D01*
X026699Y011673D01*
X026597Y011673D02*
X026404Y011673D01*
X026549Y011818D01*
X026549Y011528D01*
X026303Y011576D02*
X026254Y011528D01*
X026158Y011528D01*
X026109Y011576D01*
X026109Y011769D01*
X026158Y011818D01*
X026254Y011818D01*
X026303Y011769D01*
X026109Y011130D02*
X026109Y010840D01*
X026303Y010840D01*
X026404Y010985D02*
X026597Y010985D01*
X026549Y010840D02*
X026549Y011130D01*
X026404Y010985D01*
X028024Y011231D02*
X028217Y011231D01*
X028120Y011231D02*
X028120Y010941D01*
X028318Y010941D02*
X028318Y011231D01*
X028464Y011231D01*
X028512Y011183D01*
X028512Y011086D01*
X028464Y011038D01*
X028318Y011038D01*
X028415Y011038D02*
X028512Y010941D01*
X028613Y010941D02*
X028807Y010941D01*
X028710Y010941D02*
X028710Y011231D01*
X028613Y011135D01*
X032130Y011237D02*
X032130Y011608D01*
X032315Y011608D01*
X032377Y011546D01*
X032377Y011423D01*
X032315Y011361D01*
X032130Y011361D01*
X032253Y011361D02*
X032377Y011237D01*
X032498Y011237D02*
X032498Y011608D01*
X032745Y011608D01*
X032622Y011423D02*
X032498Y011423D01*
X032867Y011176D02*
X033114Y011176D01*
X033235Y011299D02*
X033297Y011237D01*
X033420Y011237D01*
X033482Y011299D01*
X033482Y011546D01*
X033420Y011608D01*
X033297Y011608D01*
X033235Y011546D01*
X033235Y011299D01*
X033603Y011299D02*
X033665Y011237D01*
X033788Y011237D01*
X033850Y011299D01*
X033850Y011608D01*
X033972Y011608D02*
X034218Y011608D01*
X034095Y011608D02*
X034095Y011237D01*
X034340Y011176D02*
X034587Y011176D01*
X034708Y011237D02*
X034893Y011237D01*
X034955Y011299D01*
X034955Y011361D01*
X034893Y011423D01*
X034708Y011423D01*
X034708Y011608D02*
X034708Y011237D01*
X034893Y011423D02*
X034955Y011484D01*
X034955Y011546D01*
X034893Y011608D01*
X034708Y011608D01*
X033603Y011608D02*
X033603Y011299D01*
X028205Y008380D02*
X028011Y008380D01*
X028011Y008235D01*
X028108Y008283D01*
X028156Y008283D01*
X028205Y008235D01*
X028205Y008138D01*
X028156Y008090D01*
X028059Y008090D01*
X028011Y008138D01*
X027910Y008138D02*
X027862Y008090D01*
X027765Y008090D01*
X027716Y008138D01*
X027716Y008235D02*
X027813Y008283D01*
X027862Y008283D01*
X027910Y008235D01*
X027910Y008138D01*
X027716Y008235D02*
X027716Y008380D01*
X027910Y008380D01*
X027615Y008332D02*
X027567Y008380D01*
X027470Y008380D01*
X027422Y008332D01*
X027422Y008138D01*
X027470Y008090D01*
X027567Y008090D01*
X027615Y008138D01*
X027705Y007318D02*
X027511Y007318D01*
X027362Y007318D02*
X027216Y007173D01*
X027410Y007173D01*
X027511Y007076D02*
X027511Y007028D01*
X027511Y007076D02*
X027705Y007269D01*
X027705Y007318D01*
X027362Y007318D02*
X027362Y007028D01*
X027115Y007076D02*
X027067Y007028D01*
X026970Y007028D01*
X026922Y007076D01*
X026922Y007269D01*
X026970Y007318D01*
X027067Y007318D01*
X027115Y007269D01*
X029066Y006564D02*
X029066Y006370D01*
X029114Y006322D01*
X029211Y006322D01*
X029259Y006370D01*
X029360Y006467D02*
X029554Y006467D01*
X029655Y006467D02*
X029800Y006612D01*
X029800Y006322D01*
X029848Y006467D02*
X029655Y006467D01*
X029505Y006322D02*
X029505Y006612D01*
X029360Y006467D01*
X029259Y006564D02*
X029211Y006612D01*
X029114Y006612D01*
X029066Y006564D01*
X028508Y005606D02*
X028411Y005606D01*
X028363Y005558D01*
X028262Y005558D02*
X028262Y005461D01*
X028214Y005413D01*
X028068Y005413D01*
X028068Y005316D02*
X028068Y005606D01*
X028214Y005606D01*
X028262Y005558D01*
X028165Y005413D02*
X028262Y005316D01*
X028363Y005316D02*
X028557Y005510D01*
X028557Y005558D01*
X028508Y005606D01*
X028557Y005316D02*
X028363Y005316D01*
X027967Y005606D02*
X027774Y005606D01*
X027870Y005606D02*
X027870Y005316D01*
X032084Y006237D02*
X032084Y006608D01*
X032269Y006608D01*
X032331Y006546D01*
X032331Y006423D01*
X032269Y006361D01*
X032084Y006361D01*
X032207Y006361D02*
X032331Y006237D01*
X032452Y006237D02*
X032452Y006608D01*
X032699Y006608D01*
X032576Y006423D02*
X032452Y006423D01*
X032820Y006176D02*
X033067Y006176D01*
X033189Y006299D02*
X033250Y006237D01*
X033374Y006237D01*
X033436Y006299D01*
X033436Y006546D01*
X033374Y006608D01*
X033250Y006608D01*
X033189Y006546D01*
X033189Y006299D01*
X033557Y006299D02*
X033619Y006237D01*
X033742Y006237D01*
X033804Y006299D01*
X033804Y006608D01*
X033925Y006608D02*
X034172Y006608D01*
X034049Y006608D02*
X034049Y006237D01*
X034294Y006176D02*
X034541Y006176D01*
X034662Y006237D02*
X034662Y006484D01*
X034785Y006608D01*
X034909Y006484D01*
X034909Y006237D01*
X034909Y006423D02*
X034662Y006423D01*
X033557Y006299D02*
X033557Y006608D01*
X029679Y002876D02*
X029630Y002925D01*
X029534Y002925D01*
X029485Y002876D01*
X029485Y002828D01*
X029534Y002780D01*
X029679Y002780D01*
X029679Y002876D02*
X029679Y002683D01*
X029630Y002634D01*
X029534Y002634D01*
X029485Y002683D01*
X029384Y002634D02*
X029191Y002634D01*
X029191Y002925D01*
X027392Y002082D02*
X027392Y002033D01*
X027199Y001840D01*
X027392Y001840D01*
X027097Y001888D02*
X027049Y001840D01*
X026952Y001840D01*
X026904Y001888D01*
X026904Y001985D02*
X027001Y002033D01*
X027049Y002033D01*
X027097Y001985D01*
X027097Y001888D01*
X026904Y001985D02*
X026904Y002130D01*
X027097Y002130D01*
X027199Y002082D02*
X027247Y002130D01*
X027344Y002130D01*
X027392Y002082D01*
X026803Y002082D02*
X026754Y002130D01*
X026658Y002130D01*
X026609Y002082D01*
X026609Y001888D01*
X026658Y001840D01*
X026754Y001840D01*
X026803Y001888D01*
X025830Y001457D02*
X025781Y001505D01*
X025684Y001505D01*
X025636Y001457D01*
X025535Y001505D02*
X025341Y001505D01*
X025341Y001360D01*
X025438Y001408D01*
X025487Y001408D01*
X025535Y001360D01*
X025535Y001263D01*
X025487Y001215D01*
X025390Y001215D01*
X025341Y001263D01*
X025240Y001263D02*
X025192Y001215D01*
X025095Y001215D01*
X025047Y001263D01*
X025047Y001457D01*
X025095Y001505D01*
X025192Y001505D01*
X025240Y001457D01*
X025636Y001263D02*
X025684Y001215D01*
X025781Y001215D01*
X025830Y001263D01*
X025830Y001312D01*
X025781Y001360D01*
X025733Y001360D01*
X025781Y001360D02*
X025830Y001408D01*
X025830Y001457D01*
X020392Y004451D02*
X020344Y004403D01*
X020247Y004403D01*
X020199Y004451D01*
X020392Y004644D01*
X020392Y004451D01*
X020392Y004644D02*
X020344Y004693D01*
X020247Y004693D01*
X020199Y004644D01*
X020199Y004451D01*
X020097Y004451D02*
X020097Y004499D01*
X020049Y004548D01*
X020001Y004548D01*
X020049Y004548D02*
X020097Y004596D01*
X020097Y004644D01*
X020049Y004693D01*
X019952Y004693D01*
X019904Y004644D01*
X019803Y004644D02*
X019754Y004693D01*
X019658Y004693D01*
X019609Y004644D01*
X019609Y004451D01*
X019658Y004403D01*
X019754Y004403D01*
X019803Y004451D01*
X019904Y004451D02*
X019952Y004403D01*
X020049Y004403D01*
X020097Y004451D01*
X017191Y007518D02*
X017240Y007566D01*
X017240Y007663D01*
X017191Y007711D01*
X017240Y007813D02*
X017046Y008006D01*
X016998Y008006D01*
X016950Y007958D01*
X016950Y007861D01*
X016998Y007813D01*
X016998Y007711D02*
X016950Y007663D01*
X016950Y007566D01*
X016998Y007518D01*
X017191Y007518D01*
X017240Y007813D02*
X017240Y008006D01*
X017191Y008107D02*
X017240Y008156D01*
X017240Y008252D01*
X017191Y008301D01*
X017095Y008301D01*
X017046Y008252D01*
X017046Y008204D01*
X017095Y008107D01*
X016950Y008107D01*
X016950Y008301D01*
X016981Y009660D02*
X016932Y009708D01*
X016932Y009805D01*
X016981Y009854D01*
X017077Y009955D02*
X016932Y010100D01*
X017223Y010100D01*
X017077Y010148D02*
X017077Y009955D01*
X017174Y009854D02*
X017223Y009805D01*
X017223Y009708D01*
X017174Y009660D01*
X016981Y009660D01*
X016981Y010249D02*
X016932Y010298D01*
X016932Y010395D01*
X016981Y010443D01*
X017174Y010443D01*
X017223Y010395D01*
X017223Y010298D01*
X017174Y010249D01*
X017077Y010298D02*
X017077Y010443D01*
X017077Y010298D02*
X017029Y010249D01*
X016981Y010249D01*
X016991Y011498D02*
X017185Y011498D01*
X017233Y011546D01*
X017233Y011643D01*
X017185Y011691D01*
X017088Y011792D02*
X017088Y011986D01*
X017136Y012087D02*
X017088Y012135D01*
X017088Y012232D01*
X017136Y012280D01*
X017185Y012280D01*
X017233Y012232D01*
X017233Y012135D01*
X017185Y012087D01*
X017136Y012087D01*
X017088Y012135D02*
X017039Y012087D01*
X016991Y012087D01*
X016943Y012135D01*
X016943Y012232D01*
X016991Y012280D01*
X017039Y012280D01*
X017088Y012232D01*
X017233Y011937D02*
X016943Y011937D01*
X017088Y011792D01*
X016991Y011691D02*
X016943Y011643D01*
X016943Y011546D01*
X016991Y011498D01*
X018702Y012423D02*
X018751Y012375D01*
X018944Y012375D01*
X018992Y012423D01*
X018992Y012520D01*
X018944Y012569D01*
X018992Y012670D02*
X018992Y012863D01*
X018992Y012766D02*
X018702Y012766D01*
X018799Y012670D01*
X018751Y012569D02*
X018702Y012520D01*
X018702Y012423D01*
X018751Y012964D02*
X018702Y013013D01*
X018702Y013109D01*
X018751Y013158D01*
X018944Y013158D01*
X018992Y013109D01*
X018992Y013013D01*
X018944Y012964D01*
X018847Y013013D02*
X018847Y013158D01*
X018847Y013013D02*
X018799Y012964D01*
X018751Y012964D01*
X019732Y013456D02*
X019780Y013408D01*
X019877Y013408D01*
X019925Y013456D01*
X020026Y013408D02*
X020220Y013408D01*
X020123Y013408D02*
X020123Y013698D01*
X020026Y013601D01*
X019925Y013650D02*
X019877Y013698D01*
X019780Y013698D01*
X019732Y013650D01*
X019732Y013456D01*
X020321Y013456D02*
X020321Y013505D01*
X020369Y013553D01*
X020466Y013553D01*
X020515Y013505D01*
X020515Y013456D01*
X020466Y013408D01*
X020369Y013408D01*
X020321Y013456D01*
X020369Y013553D02*
X020321Y013601D01*
X020321Y013650D01*
X020369Y013698D01*
X020466Y013698D01*
X020515Y013650D01*
X020515Y013601D01*
X020466Y013553D01*
X022163Y014019D02*
X022211Y013971D01*
X022308Y013971D01*
X022356Y014019D01*
X022356Y014261D01*
X022457Y014165D02*
X022554Y014261D01*
X022554Y013971D01*
X022457Y013971D02*
X022651Y013971D01*
X022163Y014019D02*
X022163Y014261D01*
X020379Y015301D02*
X020379Y015398D01*
X020331Y015446D01*
X020379Y015547D02*
X020186Y015741D01*
X020137Y015741D01*
X020089Y015692D01*
X020089Y015596D01*
X020137Y015547D01*
X020137Y015446D02*
X020089Y015398D01*
X020089Y015301D01*
X020137Y015253D01*
X020331Y015253D01*
X020379Y015301D01*
X020379Y015547D02*
X020379Y015741D01*
X020331Y015842D02*
X020379Y015890D01*
X020379Y015987D01*
X020331Y016035D01*
X020137Y016035D01*
X020089Y015987D01*
X020089Y015890D01*
X020137Y015842D01*
X020186Y015842D01*
X020234Y015890D01*
X020234Y016035D01*
X020714Y015942D02*
X020714Y015846D01*
X020762Y015797D01*
X020762Y015696D02*
X020714Y015648D01*
X020714Y015551D01*
X020762Y015503D01*
X020956Y015503D01*
X021004Y015551D01*
X021004Y015648D01*
X020956Y015696D01*
X021004Y015797D02*
X020811Y015991D01*
X020762Y015991D01*
X020714Y015942D01*
X020762Y016092D02*
X020811Y016092D01*
X020859Y016140D01*
X020859Y016237D01*
X020908Y016285D01*
X020956Y016285D01*
X021004Y016237D01*
X021004Y016140D01*
X020956Y016092D01*
X020908Y016092D01*
X020859Y016140D01*
X020859Y016237D02*
X020811Y016285D01*
X020762Y016285D01*
X020714Y016237D01*
X020714Y016140D01*
X020762Y016092D01*
X021004Y015991D02*
X021004Y015797D01*
X022234Y015951D02*
X022283Y015903D01*
X022379Y015903D01*
X022428Y015951D01*
X022529Y015951D02*
X022529Y015903D01*
X022529Y015951D02*
X022722Y016144D01*
X022722Y016193D01*
X022529Y016193D01*
X022428Y016144D02*
X022379Y016193D01*
X022283Y016193D01*
X022234Y016144D01*
X022234Y015951D01*
X022964Y016019D02*
X023061Y015922D01*
X023012Y015821D02*
X022964Y015773D01*
X022964Y015676D01*
X023012Y015628D01*
X023206Y015628D01*
X023254Y015676D01*
X023254Y015773D01*
X023206Y015821D01*
X023254Y015922D02*
X023254Y016116D01*
X023254Y016019D02*
X022964Y016019D01*
X023061Y016217D02*
X022964Y016314D01*
X023254Y016314D01*
X023254Y016410D02*
X023254Y016217D01*
X023652Y016265D02*
X023652Y016362D01*
X023700Y016410D01*
X023893Y016217D01*
X023942Y016265D01*
X023942Y016362D01*
X023893Y016410D01*
X023700Y016410D01*
X023652Y016265D02*
X023700Y016217D01*
X023893Y016217D01*
X023942Y016116D02*
X023942Y015922D01*
X023942Y016019D02*
X023652Y016019D01*
X023748Y015922D01*
X023700Y015821D02*
X023652Y015773D01*
X023652Y015676D01*
X023700Y015628D01*
X023893Y015628D01*
X023942Y015676D01*
X023942Y015773D01*
X023893Y015821D01*
X024191Y016009D02*
X024191Y016300D01*
X024336Y016300D01*
X024384Y016251D01*
X024384Y016155D01*
X024336Y016106D01*
X024191Y016106D01*
X024287Y016106D02*
X024384Y016009D01*
X024485Y016058D02*
X024485Y016106D01*
X024534Y016155D01*
X024630Y016155D01*
X024679Y016106D01*
X024679Y016058D01*
X024630Y016009D01*
X024534Y016009D01*
X024485Y016058D01*
X024534Y016155D02*
X024485Y016203D01*
X024485Y016251D01*
X024534Y016300D01*
X024630Y016300D01*
X024679Y016251D01*
X024679Y016203D01*
X024630Y016155D01*
X024968Y017304D02*
X025162Y017304D01*
X025263Y017353D02*
X025263Y017643D01*
X025408Y017643D01*
X025456Y017594D01*
X025456Y017498D01*
X025408Y017449D01*
X025263Y017449D01*
X025360Y017449D02*
X025456Y017353D01*
X025558Y017353D02*
X025751Y017353D01*
X025852Y017353D02*
X025852Y017643D01*
X026046Y017643D01*
X025949Y017498D02*
X025852Y017498D01*
X025751Y017643D02*
X025558Y017643D01*
X025558Y017353D01*
X025558Y017498D02*
X025654Y017498D01*
X024867Y017643D02*
X024674Y017643D01*
X024770Y017643D02*
X024770Y017353D01*
X024572Y017353D02*
X024379Y017643D01*
X024278Y017643D02*
X024084Y017643D01*
X024084Y017353D01*
X024278Y017353D01*
X024379Y017353D02*
X024572Y017643D01*
X024181Y017498D02*
X024084Y017498D01*
X026734Y016269D02*
X026734Y016076D01*
X026783Y016028D01*
X026879Y016028D01*
X026928Y016076D01*
X027029Y016173D02*
X027222Y016173D01*
X027324Y016173D02*
X027420Y016221D01*
X027469Y016221D01*
X027517Y016173D01*
X027517Y016076D01*
X027469Y016028D01*
X027372Y016028D01*
X027324Y016076D01*
X027324Y016173D02*
X027324Y016318D01*
X027517Y016318D01*
X027174Y016318D02*
X027029Y016173D01*
X026928Y016269D02*
X026879Y016318D01*
X026783Y016318D01*
X026734Y016269D01*
X027174Y016318D02*
X027174Y016028D01*
X032055Y016155D02*
X032055Y016525D01*
X032240Y016525D01*
X032302Y016464D01*
X032302Y016340D01*
X032240Y016279D01*
X032055Y016279D01*
X032178Y016279D02*
X032302Y016155D01*
X032423Y016155D02*
X032670Y016155D01*
X032791Y016155D02*
X032791Y016525D01*
X033038Y016525D01*
X032915Y016340D02*
X032791Y016340D01*
X032670Y016525D02*
X032423Y016525D01*
X032423Y016155D01*
X032423Y016340D02*
X032546Y016340D01*
X033160Y016093D02*
X033407Y016093D01*
X033528Y016155D02*
X033651Y016155D01*
X033590Y016155D02*
X033590Y016525D01*
X033651Y016525D02*
X033528Y016525D01*
X033774Y016525D02*
X034020Y016155D01*
X034020Y016525D01*
X033774Y016525D02*
X033774Y016155D01*
X020885Y017643D02*
X020691Y017643D01*
X020691Y017353D01*
X020590Y017353D02*
X020397Y017353D01*
X020397Y017643D01*
X020590Y017643D01*
X020494Y017498D02*
X020397Y017498D01*
X020296Y017498D02*
X020247Y017449D01*
X020102Y017449D01*
X020102Y017353D02*
X020102Y017643D01*
X020247Y017643D01*
X020296Y017594D01*
X020296Y017498D01*
X020199Y017449D02*
X020296Y017353D01*
X020001Y017304D02*
X019808Y017304D01*
X019610Y017353D02*
X019610Y017643D01*
X019706Y017643D02*
X019513Y017643D01*
X019412Y017643D02*
X019412Y017353D01*
X019218Y017643D01*
X019218Y017353D01*
X019119Y017353D02*
X019022Y017353D01*
X019070Y017353D02*
X019070Y017643D01*
X019022Y017643D02*
X019119Y017643D01*
X018142Y017394D02*
X018142Y017346D01*
X018094Y017298D01*
X017997Y017298D01*
X017949Y017346D01*
X017949Y017394D01*
X017997Y017443D01*
X018094Y017443D01*
X018142Y017394D01*
X018094Y017298D02*
X018142Y017249D01*
X018142Y017201D01*
X018094Y017153D01*
X017997Y017153D01*
X017949Y017201D01*
X017949Y017249D01*
X017997Y017298D01*
X017847Y017346D02*
X017799Y017298D01*
X017847Y017249D01*
X017847Y017201D01*
X017799Y017153D01*
X017702Y017153D01*
X017654Y017201D01*
X017553Y017201D02*
X017504Y017153D01*
X017408Y017153D01*
X017359Y017201D01*
X017359Y017394D01*
X017408Y017443D01*
X017504Y017443D01*
X017553Y017394D01*
X017654Y017394D02*
X017702Y017443D01*
X017799Y017443D01*
X017847Y017394D01*
X017847Y017346D01*
X017799Y017298D02*
X017751Y017298D01*
X016656Y016130D02*
X016559Y016130D01*
X016511Y016082D01*
X016511Y015888D01*
X016705Y016082D01*
X016705Y015888D01*
X016656Y015840D01*
X016559Y015840D01*
X016511Y015888D01*
X016410Y015985D02*
X016216Y015985D01*
X016362Y016130D01*
X016362Y015840D01*
X016115Y015888D02*
X016067Y015840D01*
X015970Y015840D01*
X015922Y015888D01*
X015922Y016082D01*
X015970Y016130D01*
X016067Y016130D01*
X016115Y016082D01*
X016656Y016130D02*
X016705Y016082D01*
X018544Y015338D02*
X018544Y015096D01*
X018593Y015047D01*
X018690Y015047D01*
X018738Y015096D01*
X018738Y015338D01*
X018839Y015193D02*
X019033Y015193D01*
X018984Y015338D02*
X018839Y015193D01*
X018984Y015047D02*
X018984Y015338D01*
X020691Y017498D02*
X020788Y017498D01*
X013247Y013168D02*
X013151Y013119D01*
X013054Y013023D01*
X013199Y013023D01*
X013247Y012974D01*
X013247Y012926D01*
X013199Y012878D01*
X013102Y012878D01*
X013054Y012926D01*
X013054Y013023D01*
X012953Y012926D02*
X012953Y013168D01*
X012759Y013168D02*
X012759Y012926D01*
X012808Y012878D01*
X012904Y012878D01*
X012953Y012926D01*
X012953Y010230D02*
X012953Y009988D01*
X012904Y009940D01*
X012808Y009940D01*
X012759Y009988D01*
X012759Y010230D01*
X013054Y010230D02*
X013247Y010230D01*
X013247Y010182D01*
X013054Y009988D01*
X013054Y009940D01*
X010080Y007144D02*
X010031Y007193D01*
X009934Y007193D01*
X009886Y007144D01*
X009785Y007144D02*
X009785Y007096D01*
X009591Y006903D01*
X009785Y006903D01*
X009886Y006903D02*
X010080Y007096D01*
X010080Y007144D01*
X009785Y007144D02*
X009737Y007193D01*
X009640Y007193D01*
X009591Y007144D01*
X009490Y007144D02*
X009442Y007193D01*
X009345Y007193D01*
X009297Y007144D01*
X009297Y006951D01*
X009345Y006903D01*
X009442Y006903D01*
X009490Y006951D01*
X009886Y006903D02*
X010080Y006903D01*
X007551Y006895D02*
X007502Y006846D01*
X007551Y006798D01*
X007551Y006749D01*
X007502Y006701D01*
X007406Y006701D01*
X007357Y006749D01*
X007256Y006749D02*
X007256Y006991D01*
X007357Y006943D02*
X007406Y006991D01*
X007502Y006991D01*
X007551Y006943D01*
X007551Y006895D01*
X007502Y006846D02*
X007454Y006846D01*
X007256Y006749D02*
X007208Y006701D01*
X007111Y006701D01*
X007063Y006749D01*
X007063Y006991D01*
X007145Y007378D02*
X007242Y007378D01*
X007290Y007426D01*
X007290Y007668D01*
X007391Y007668D02*
X007391Y007523D01*
X007488Y007571D01*
X007537Y007571D01*
X007585Y007523D01*
X007585Y007426D01*
X007537Y007378D01*
X007440Y007378D01*
X007391Y007426D01*
X007391Y007668D02*
X007585Y007668D01*
X007097Y007668D02*
X007097Y007426D01*
X007145Y007378D01*
X004750Y007421D02*
X004750Y007276D01*
X004701Y007227D01*
X004508Y007227D01*
X004459Y007276D01*
X004459Y007421D01*
X004750Y007421D01*
X004750Y007522D02*
X004459Y007522D01*
X004750Y007715D01*
X004459Y007715D01*
X004508Y007817D02*
X004604Y007817D01*
X004604Y007913D01*
X004508Y007817D02*
X004459Y007865D01*
X004459Y007962D01*
X004508Y008010D01*
X004701Y008010D01*
X004750Y007962D01*
X004750Y007865D01*
X004701Y007817D01*
X004750Y007010D02*
X004459Y007010D01*
X004556Y007010D02*
X004556Y006865D01*
X004604Y006817D01*
X004701Y006817D01*
X004750Y006865D01*
X004750Y007010D01*
X004556Y006913D02*
X004459Y006817D01*
X004459Y006715D02*
X004459Y006570D01*
X004508Y006522D01*
X004556Y006522D01*
X004604Y006570D01*
X004604Y006715D01*
X004459Y006715D02*
X004750Y006715D01*
X004750Y006570D01*
X004701Y006522D01*
X004653Y006522D01*
X004604Y006570D01*
X004508Y006421D02*
X004701Y006227D01*
X004508Y006227D01*
X004459Y006276D01*
X004459Y006372D01*
X004508Y006421D01*
X004701Y006421D01*
X004750Y006372D01*
X004750Y006276D01*
X004701Y006227D01*
X004750Y009209D02*
X004459Y009403D01*
X004459Y009504D02*
X004556Y009601D01*
X004556Y009552D02*
X004556Y009698D01*
X004459Y009698D02*
X004750Y009698D01*
X004750Y009552D01*
X004701Y009504D01*
X004604Y009504D01*
X004556Y009552D01*
X004750Y009403D02*
X004459Y009209D01*
X004459Y010209D02*
X004750Y010403D01*
X004750Y010504D02*
X004750Y010698D01*
X004750Y010601D02*
X004459Y010601D01*
X004459Y010403D02*
X004750Y010209D01*
X004701Y011040D02*
X004508Y011040D01*
X004459Y011088D01*
X004459Y011233D01*
X004750Y011233D01*
X004750Y011088D01*
X004701Y011040D01*
X004750Y011334D02*
X004459Y011334D01*
X004750Y011528D01*
X004459Y011528D01*
X004508Y011629D02*
X004604Y011629D01*
X004604Y011726D01*
X004508Y011823D02*
X004459Y011774D01*
X004459Y011677D01*
X004508Y011629D01*
X004701Y011629D02*
X004750Y011677D01*
X004750Y011774D01*
X004701Y011823D01*
X004508Y011823D01*
X003020Y012848D02*
X003020Y012971D01*
X002958Y013033D01*
X002711Y013033D01*
X002650Y012971D01*
X002650Y012848D01*
X002711Y012786D01*
X002958Y012786D02*
X003020Y012848D01*
X002958Y013155D02*
X002711Y013155D01*
X002650Y013216D01*
X002650Y013401D01*
X003020Y013401D01*
X003020Y013216D01*
X002958Y013155D01*
X002588Y013523D02*
X002588Y013770D01*
X002773Y013891D02*
X003020Y013891D01*
X002773Y013891D02*
X002650Y014015D01*
X002773Y014138D01*
X003020Y014138D01*
X002958Y014260D02*
X003020Y014321D01*
X003020Y014445D01*
X002958Y014506D01*
X002958Y014260D02*
X002897Y014260D01*
X002650Y014506D01*
X002650Y014260D01*
X002650Y014628D02*
X002650Y014875D01*
X002650Y014751D02*
X003020Y014751D01*
X002897Y014875D01*
X002835Y014996D02*
X002835Y015243D01*
X002773Y015365D02*
X002835Y015426D01*
X002835Y015611D01*
X002711Y015611D01*
X002650Y015550D01*
X002650Y015426D01*
X002711Y015365D01*
X002773Y015365D01*
X002958Y015488D02*
X003020Y015365D01*
X002958Y015488D02*
X002835Y015611D01*
X006459Y015776D02*
X006508Y015728D01*
X006604Y015728D01*
X006653Y015776D01*
X006754Y015873D02*
X006899Y016018D01*
X006899Y015728D01*
X007049Y015728D02*
X007242Y015728D01*
X007145Y015728D02*
X007145Y016018D01*
X007049Y015921D01*
X006947Y015873D02*
X006754Y015873D01*
X006653Y015969D02*
X006604Y016018D01*
X006508Y016018D01*
X006459Y015969D01*
X006459Y015776D01*
X010772Y015776D02*
X010820Y015728D01*
X010917Y015728D01*
X010965Y015776D01*
X011066Y015776D02*
X011115Y015728D01*
X011212Y015728D01*
X011260Y015776D01*
X011260Y015824D01*
X011212Y015873D01*
X011163Y015873D01*
X011212Y015873D02*
X011260Y015921D01*
X011260Y015969D01*
X011212Y016018D01*
X011115Y016018D01*
X011066Y015969D01*
X010965Y015969D02*
X010917Y016018D01*
X010820Y016018D01*
X010772Y015969D01*
X010772Y015776D01*
X011361Y015776D02*
X011409Y015728D01*
X011506Y015728D01*
X011555Y015776D01*
X011555Y015969D01*
X011506Y016018D01*
X011409Y016018D01*
X011361Y015969D01*
X011361Y015921D01*
X011409Y015873D01*
X011555Y015873D01*
D11*
X012384Y016153D02*
X012384Y017773D01*
X009004Y017773D01*
X009004Y016153D01*
X012384Y016153D01*
X008697Y016153D02*
X008697Y017773D01*
X005317Y017773D01*
X005317Y016153D01*
X008697Y016153D01*
X006212Y015099D02*
X006212Y014692D01*
X006212Y013724D02*
X006212Y013317D01*
X006415Y013521D02*
X006008Y013521D01*
X017291Y015638D02*
X017293Y015656D01*
X017299Y015674D01*
X017308Y015690D01*
X017320Y015703D01*
X017335Y015714D01*
X017352Y015722D01*
X017370Y015726D01*
X017388Y015726D01*
X017406Y015722D01*
X017423Y015714D01*
X017438Y015703D01*
X017450Y015690D01*
X017459Y015674D01*
X017465Y015656D01*
X017467Y015638D01*
X017465Y015620D01*
X017459Y015602D01*
X017450Y015586D01*
X017438Y015573D01*
X017423Y015562D01*
X017406Y015554D01*
X017388Y015550D01*
X017370Y015550D01*
X017352Y015554D01*
X017335Y015562D01*
X017320Y015573D01*
X017308Y015586D01*
X017299Y015602D01*
X017293Y015620D01*
X017291Y015638D01*
X017773Y015993D02*
X017773Y016307D01*
X018363Y016780D02*
X019150Y016780D01*
X019741Y016307D02*
X019741Y015993D01*
X019150Y015520D02*
X018363Y015520D01*
X021585Y013523D02*
X021821Y013759D01*
X023317Y013759D01*
X023554Y013523D01*
X023554Y012027D01*
X023317Y011791D01*
X021821Y011791D01*
X021585Y012027D01*
X021585Y013523D01*
X021238Y013464D02*
X021240Y013478D01*
X021246Y013492D01*
X021254Y013504D01*
X021266Y013512D01*
X021280Y013518D01*
X021294Y013520D01*
X021308Y013518D01*
X021322Y013512D01*
X021334Y013504D01*
X021342Y013492D01*
X021348Y013478D01*
X021350Y013464D01*
X021348Y013450D01*
X021342Y013436D01*
X021334Y013424D01*
X021322Y013416D01*
X021308Y013410D01*
X021294Y013408D01*
X021280Y013410D01*
X021266Y013416D01*
X021254Y013424D01*
X021246Y013436D01*
X021240Y013450D01*
X021238Y013464D01*
X027265Y010746D02*
X028249Y010746D01*
X028308Y010215D02*
X028308Y009585D01*
X028249Y009054D02*
X027265Y009054D01*
X027206Y009585D02*
X027206Y009624D01*
X027206Y010176D02*
X027206Y010215D01*
X022558Y005375D02*
X021456Y005375D01*
X021219Y005139D01*
X021219Y004036D01*
X021456Y003800D01*
X022558Y003800D01*
X022794Y004036D01*
X022794Y005139D01*
X022558Y005375D01*
X020888Y005099D02*
X020890Y005113D01*
X020896Y005127D01*
X020904Y005139D01*
X020916Y005147D01*
X020930Y005153D01*
X020944Y005155D01*
X020958Y005153D01*
X020972Y005147D01*
X020984Y005139D01*
X020992Y005127D01*
X020998Y005113D01*
X021000Y005099D01*
X020998Y005085D01*
X020992Y005071D01*
X020984Y005059D01*
X020972Y005051D01*
X020958Y005045D01*
X020944Y005043D01*
X020930Y005045D01*
X020916Y005051D01*
X020904Y005059D01*
X020896Y005071D01*
X020890Y005085D01*
X020888Y005099D01*
X026768Y004652D02*
X026768Y004613D01*
X026768Y004062D02*
X026768Y004023D01*
X026827Y003491D02*
X027811Y003491D01*
X027870Y004023D02*
X027870Y004652D01*
X027811Y005184D02*
X026827Y005184D01*
X010675Y002187D02*
X010675Y001400D01*
X006738Y001400D01*
X006738Y002187D01*
X010675Y002187D01*
X009991Y002396D02*
X009993Y002420D01*
X009999Y002444D01*
X010008Y002466D01*
X010021Y002486D01*
X010037Y002504D01*
X010056Y002519D01*
X010077Y002532D01*
X010099Y002540D01*
X010123Y002545D01*
X010147Y002546D01*
X010171Y002543D01*
X010194Y002536D01*
X010216Y002526D01*
X010236Y002512D01*
X010253Y002495D01*
X010268Y002476D01*
X010279Y002455D01*
X010287Y002432D01*
X010291Y002408D01*
X010291Y002384D01*
X010287Y002360D01*
X010279Y002337D01*
X010268Y002316D01*
X010253Y002297D01*
X010236Y002280D01*
X010216Y002266D01*
X010194Y002256D01*
X010171Y002249D01*
X010147Y002246D01*
X010123Y002247D01*
X010099Y002252D01*
X010077Y002260D01*
X010056Y002273D01*
X010037Y002288D01*
X010021Y002306D01*
X010008Y002326D01*
X009999Y002348D01*
X009993Y002372D01*
X009991Y002396D01*
D12*
X018632Y008963D03*
X019444Y010963D03*
X026069Y013588D03*
D13*
X024882Y014013D02*
X024882Y014037D01*
X024882Y014700D02*
X024882Y014725D01*
X023831Y014963D02*
X023807Y014963D01*
X023144Y014963D02*
X023120Y014963D01*
X022456Y015275D02*
X022432Y015275D01*
X020894Y014463D02*
X020870Y014463D01*
X020206Y014463D02*
X020182Y014463D01*
X020177Y012648D02*
X020201Y012648D01*
X019507Y012648D02*
X019483Y012648D01*
X021306Y010965D02*
X021330Y010965D01*
X021987Y010965D02*
X022011Y010965D01*
X024120Y011588D02*
X024144Y011588D01*
X025444Y011638D02*
X025444Y011662D01*
X025132Y012700D02*
X025132Y012725D01*
X026319Y012725D02*
X026319Y012700D01*
X025444Y010287D02*
X025444Y010263D01*
X025444Y009600D02*
X025444Y009575D01*
X022956Y009275D02*
X022932Y009275D01*
X022269Y009275D02*
X022245Y009275D01*
X020894Y009275D02*
X020870Y009275D01*
X019831Y009963D02*
X019807Y009963D01*
X019081Y009963D02*
X019057Y009963D01*
X018331Y009963D02*
X018307Y009963D01*
X024007Y008225D02*
X024007Y008200D01*
X025444Y008200D02*
X025444Y008225D01*
X026694Y008225D02*
X026694Y008200D01*
X026995Y006275D02*
X027019Y006275D01*
X026331Y006275D02*
X026307Y006275D01*
X023569Y006100D02*
X023569Y006075D01*
X023569Y005412D02*
X023569Y005388D01*
X021081Y006088D02*
X021057Y006088D01*
X020394Y006088D02*
X020370Y006088D01*
X020007Y004037D02*
X020007Y004013D01*
X020007Y003350D02*
X020007Y003325D01*
X020995Y002463D02*
X021019Y002463D01*
X021682Y002900D02*
X021706Y002900D01*
X022370Y002463D02*
X022394Y002463D01*
X023569Y003075D02*
X023569Y003100D01*
X023569Y003763D02*
X023569Y003787D01*
X025432Y002213D02*
X025456Y002213D01*
X026120Y002213D02*
X026144Y002213D01*
X013733Y003771D02*
X013733Y003795D01*
X012483Y003788D02*
X012483Y003764D01*
X008569Y007013D02*
X008569Y007037D01*
X026069Y016138D02*
X026069Y016162D01*
X016694Y016575D02*
X016694Y016600D01*
X016694Y017263D02*
X016694Y017287D01*
D14*
X003257Y003400D02*
X003507Y003150D01*
X004007Y003150D01*
X004257Y003400D01*
X004257Y003900D01*
X004007Y004150D01*
X004257Y004400D01*
X004257Y004900D01*
X004007Y005150D01*
X004257Y005400D01*
X004257Y005900D01*
X004007Y006150D01*
X004257Y006400D01*
X004257Y006900D01*
X004007Y007150D01*
X004257Y007400D01*
X004257Y007900D01*
X004007Y008150D01*
X003507Y008150D01*
X003257Y007900D01*
X003257Y007400D01*
X003507Y007150D01*
X003257Y006900D01*
X003257Y006400D01*
X003507Y006150D01*
X003257Y005900D01*
X003257Y005400D01*
X003507Y005150D01*
X003257Y004900D01*
X003257Y004400D01*
X003507Y004150D01*
X003257Y003900D01*
X003257Y003400D01*
X003507Y008963D02*
X004007Y008963D01*
X004257Y009213D01*
X004257Y009713D01*
X004007Y009963D01*
X004257Y010213D01*
X004257Y010713D01*
X004007Y010963D01*
X004257Y011213D01*
X004257Y011713D01*
X004007Y011963D01*
X003507Y011963D01*
X003257Y011713D01*
X003257Y011213D01*
X003507Y010963D01*
X003257Y010713D01*
X003257Y010213D01*
X003507Y009963D01*
X003257Y009713D01*
X003257Y009213D01*
X003507Y008963D01*
X013482Y007735D02*
X013482Y010315D01*
X014782Y010315D01*
X014782Y007735D01*
X013482Y007735D01*
X013482Y010673D02*
X013482Y013253D01*
X014782Y013253D01*
X014782Y010673D01*
X013482Y010673D01*
X013444Y015213D02*
X012944Y015213D01*
X012694Y015463D01*
X012694Y015963D01*
X012944Y016213D01*
X013444Y016213D01*
X013694Y015963D01*
X013944Y016213D01*
X014444Y016213D01*
X014694Y015963D01*
X014694Y015463D01*
X014444Y015213D01*
X013944Y015213D01*
X013694Y015463D01*
X013444Y015213D01*
X020944Y016775D02*
X020944Y017275D01*
X021194Y017525D01*
X021694Y017525D01*
X021944Y017275D01*
X022194Y017525D01*
X022694Y017525D01*
X022944Y017275D01*
X023194Y017525D01*
X023694Y017525D01*
X023944Y017275D01*
X023944Y016775D01*
X023694Y016525D01*
X023194Y016525D01*
X022944Y016775D01*
X022694Y016525D01*
X022194Y016525D01*
X021944Y016775D01*
X021694Y016525D01*
X021194Y016525D01*
X020944Y016775D01*
D15*
X011244Y014088D02*
X011244Y009188D01*
X010894Y009188D01*
X010894Y008588D01*
X011244Y008588D01*
X011244Y007838D01*
X007144Y007838D01*
X007144Y008588D01*
X007494Y008588D01*
X007494Y009188D01*
X007144Y009188D01*
X007144Y014088D01*
X011244Y014088D01*
X008484Y009188D02*
X008486Y009241D01*
X008492Y009294D01*
X008502Y009346D01*
X008516Y009397D01*
X008533Y009447D01*
X008554Y009496D01*
X008579Y009543D01*
X008607Y009588D01*
X008639Y009631D01*
X008674Y009671D01*
X008711Y009708D01*
X008751Y009743D01*
X008794Y009775D01*
X008839Y009803D01*
X008886Y009828D01*
X008935Y009849D01*
X008985Y009866D01*
X009036Y009880D01*
X009088Y009890D01*
X009141Y009896D01*
X009194Y009898D01*
X009247Y009896D01*
X009300Y009890D01*
X009352Y009880D01*
X009403Y009866D01*
X009453Y009849D01*
X009502Y009828D01*
X009549Y009803D01*
X009594Y009775D01*
X009637Y009743D01*
X009677Y009708D01*
X009714Y009671D01*
X009749Y009631D01*
X009781Y009588D01*
X009809Y009543D01*
X009834Y009496D01*
X009855Y009447D01*
X009872Y009397D01*
X009886Y009346D01*
X009896Y009294D01*
X009902Y009241D01*
X009904Y009188D01*
X009902Y009135D01*
X009896Y009082D01*
X009886Y009030D01*
X009872Y008979D01*
X009855Y008929D01*
X009834Y008880D01*
X009809Y008833D01*
X009781Y008788D01*
X009749Y008745D01*
X009714Y008705D01*
X009677Y008668D01*
X009637Y008633D01*
X009594Y008601D01*
X009549Y008573D01*
X009502Y008548D01*
X009453Y008527D01*
X009403Y008510D01*
X009352Y008496D01*
X009300Y008486D01*
X009247Y008480D01*
X009194Y008478D01*
X009141Y008480D01*
X009088Y008486D01*
X009036Y008496D01*
X008985Y008510D01*
X008935Y008527D01*
X008886Y008548D01*
X008839Y008573D01*
X008794Y008601D01*
X008751Y008633D01*
X008711Y008668D01*
X008674Y008705D01*
X008639Y008745D01*
X008607Y008788D01*
X008579Y008833D01*
X008554Y008880D01*
X008533Y008929D01*
X008516Y008979D01*
X008502Y009030D01*
X008492Y009082D01*
X008486Y009135D01*
X008484Y009188D01*
X007591Y006566D02*
X007591Y006376D01*
X007591Y006566D02*
X009791Y006566D01*
X009791Y006376D01*
X009791Y002616D02*
X009791Y002426D01*
X008811Y002426D01*
X008571Y002426D01*
X007591Y002426D01*
X007591Y002616D01*
D16*
X008571Y002426D02*
X008573Y002447D01*
X008578Y002467D01*
X008587Y002486D01*
X008599Y002503D01*
X008614Y002518D01*
X008631Y002530D01*
X008650Y002539D01*
X008670Y002544D01*
X008691Y002546D01*
X008712Y002544D01*
X008732Y002539D01*
X008751Y002530D01*
X008768Y002518D01*
X008783Y002503D01*
X008795Y002486D01*
X008804Y002467D01*
X008809Y002447D01*
X008811Y002426D01*
D17*
X007394Y010588D02*
X010994Y010588D01*
X010994Y013838D01*
X007394Y013838D01*
X007394Y010588D01*
D18*
X008194Y015313D03*
X009194Y015313D03*
X010194Y015313D03*
D19*
X010194Y014638D03*
X009194Y014638D03*
X008194Y014638D03*
D20*
X005849Y015590D02*
X003290Y015590D01*
X003290Y015394D01*
X003290Y014409D02*
X003290Y014016D01*
X003290Y013031D02*
X003290Y012835D01*
X005849Y012835D01*
X005849Y015590D01*
D21*
X007507Y016963D02*
X007757Y016963D01*
X009944Y016963D02*
X010194Y016963D01*
D22*
X012559Y015063D02*
X012739Y015063D01*
X012799Y015003D01*
X012799Y014883D01*
X012739Y014823D01*
X012559Y014823D01*
X012559Y014703D02*
X012559Y015063D01*
X012928Y015063D02*
X013048Y015063D01*
X012988Y015063D02*
X012988Y014703D01*
X012928Y014703D02*
X013048Y014703D01*
X013173Y014763D02*
X013233Y014703D01*
X013353Y014703D01*
X013413Y014763D01*
X013541Y014642D02*
X013782Y014642D01*
X013910Y014703D02*
X013910Y015063D01*
X014090Y015063D01*
X014150Y015003D01*
X014150Y014883D01*
X014090Y014823D01*
X013910Y014823D01*
X014030Y014823D02*
X014150Y014703D01*
X014278Y014703D02*
X014518Y014703D01*
X014646Y014703D02*
X014646Y015063D01*
X014887Y015063D01*
X014766Y014883D02*
X014646Y014883D01*
X014518Y015063D02*
X014278Y015063D01*
X014278Y014703D01*
X014278Y014883D02*
X014398Y014883D01*
X013413Y015003D02*
X013353Y015063D01*
X013233Y015063D01*
X013173Y015003D01*
X013173Y014763D01*
X002982Y011785D02*
X002982Y011605D01*
X002922Y011545D01*
X002802Y011545D01*
X002742Y011605D01*
X002742Y011785D01*
X002622Y011785D02*
X002982Y011785D01*
X002982Y011417D02*
X002982Y011297D01*
X002982Y011357D02*
X002622Y011357D01*
X002622Y011417D02*
X002622Y011297D01*
X002682Y011171D02*
X002622Y011111D01*
X002622Y010991D01*
X002682Y010931D01*
X002562Y010803D02*
X002562Y010563D01*
X002682Y010435D02*
X002622Y010374D01*
X002622Y010254D01*
X002682Y010194D01*
X002982Y010194D01*
X002862Y010066D02*
X002622Y010066D01*
X002802Y010066D02*
X002802Y009826D01*
X002862Y009826D02*
X002622Y009826D01*
X002622Y009698D02*
X002982Y009698D01*
X002982Y009518D01*
X002922Y009458D01*
X002802Y009458D01*
X002742Y009518D01*
X002742Y009698D01*
X002742Y009578D02*
X002622Y009458D01*
X002622Y009209D02*
X002982Y009209D01*
X002982Y009089D02*
X002982Y009330D01*
X002862Y009826D02*
X002982Y009946D01*
X002862Y010066D01*
X002982Y010435D02*
X002682Y010435D01*
X002922Y010931D02*
X002982Y010991D01*
X002982Y011111D01*
X002922Y011171D01*
X002682Y011171D01*
X002742Y006910D02*
X002742Y006730D01*
X002802Y006670D01*
X002922Y006670D01*
X002982Y006730D01*
X002982Y006910D01*
X002622Y006910D01*
X002622Y006542D02*
X002622Y006422D01*
X002622Y006482D02*
X002982Y006482D01*
X002982Y006542D02*
X002982Y006422D01*
X002922Y006296D02*
X002682Y006296D01*
X002622Y006236D01*
X002622Y006116D01*
X002682Y006056D01*
X002562Y005928D02*
X002562Y005688D01*
X002682Y005560D02*
X002622Y005499D01*
X002622Y005379D01*
X002682Y005319D01*
X002802Y005319D01*
X002802Y005439D01*
X002922Y005319D02*
X002982Y005379D01*
X002982Y005499D01*
X002922Y005560D01*
X002682Y005560D01*
X002742Y005191D02*
X002742Y005011D01*
X002802Y004951D01*
X002922Y004951D01*
X002982Y005011D01*
X002982Y005191D01*
X002622Y005191D01*
X002622Y004823D02*
X002622Y004703D01*
X002622Y004763D02*
X002982Y004763D01*
X002982Y004823D02*
X002982Y004703D01*
X002922Y004577D02*
X002682Y004577D01*
X002622Y004517D01*
X002622Y004397D01*
X002682Y004337D01*
X002922Y004337D01*
X002982Y004397D01*
X002982Y004517D01*
X002922Y004577D01*
X002922Y006056D02*
X002982Y006116D01*
X002982Y006236D01*
X002922Y006296D01*
D23*
X021882Y006525D03*
X022569Y006525D03*
M02*
