%
M48
M72
T01C0.0118
T02C0.0197
T03C0.0315
T04C0.0354
T05C0.0400
T06C0.0440
T07C0.1260
T08C0.1300
%
T01
X6194Y3150
X7944Y4400
X9257Y5088
X8132Y5463
X8007Y5900
X7819Y7025
X8882Y7650
X7569Y8213
X10507Y8588
X10507Y7213
X11069Y6650
X12382Y7213
X12382Y5713
X13507Y5713
X15069Y5213
X14569Y4463
X15507Y4025
X16757Y5213
X18194Y5213
X19069Y5213
X19069Y4650
X19069Y4088
X19069Y3525
X19069Y2963
X19069Y2400
X19069Y1900
X19069Y1400
X19069Y900
X19632Y900
X20194Y900
X20757Y900
X21319Y900
X21882Y900
X22444Y900
X23007Y900
X23569Y900
X24132Y900
X24694Y900
X25257Y900
X25819Y900
X26382Y900
X26944Y900
X27507Y900
X28069Y900
X28632Y900
X29194Y900
X29632Y900
X29632Y1400
X29632Y2025
X29882Y2525
X30319Y2838
X29882Y3088
X29319Y3088
X28757Y3150
X28257Y3150
X28257Y4338
X28757Y4338
X28757Y4838
X28757Y5338
X30444Y6088
X30944Y6088
X31444Y6088
X31444Y6650
X31444Y7213
X31444Y7775
X30944Y7775
X30444Y7775
X29944Y8275
X29444Y8775
X28944Y8775
X28444Y8775
X29944Y8838
X29507Y9900
X29944Y9963
X29007Y9838
X28507Y9838
X29944Y10588
X30444Y11025
X30944Y11025
X31444Y11025
X31444Y11525
X31444Y12088
X31444Y12650
X30944Y12650
X30444Y12650
X30007Y13088
X29194Y12963
X28132Y13525
X27757Y14088
X27132Y14525
X28007Y15150
X27507Y15463
X26882Y15588
X26257Y15588
X25694Y15588
X25069Y15400
X24382Y15400
X23444Y15775
X24507Y16963
X25694Y16713
X26194Y16713
X26757Y16713
X27382Y16650
X28007Y16463
X28569Y16150
X28819Y16525
X29569Y16775
X29569Y17338
X29569Y17900
X29194Y17900
X28757Y17900
X28194Y17900
X27632Y17900
X27069Y17900
X26507Y17900
X25882Y17900
X25319Y17900
X24757Y17900
X24194Y17900
X23632Y17900
X23069Y17900
X22507Y17900
X21944Y17900
X21382Y17900
X20819Y17900
X20257Y17900
X19694Y17900
X19132Y17900
X18569Y17900
X18007Y17900
X17444Y17900
X16882Y17900
X16319Y17900
X15757Y17900
X15132Y17900
X15132Y17275
X15132Y16650
X15132Y16025
X15132Y15400
X15132Y14900
X15694Y14900
X16257Y14900
X16819Y14900
X17382Y14900
X17757Y14650
X18319Y14650
X19007Y14650
X19632Y14838
X19757Y14150
X18944Y14025
X18319Y14025
X17757Y14025
X17757Y12213
X17757Y11650
X18319Y11650
X18882Y12025
X19319Y11775
X19882Y11775
X20382Y11775
X21382Y11775
X22097Y12303
X22569Y12303
X23042Y12303
X23042Y12775
X23042Y13247
X22569Y13247
X22097Y13247
X22097Y12775
X22569Y12775
X21007Y12900
X20890Y13267
X21007Y13650
X21882Y14150
X22882Y14150
X20882Y15275
X17007Y15838
X13382Y14213
X11507Y12338
X12194Y12025
X11507Y11275
X10319Y11400
X8757Y11338
X7632Y10338
X10507Y9963
X13194Y10525
X17757Y10525
X17757Y9963
X17757Y9400
X17757Y8900
X17757Y8338
X18257Y8338
X18757Y8338
X19319Y8338
X19757Y8588
X19882Y9088
X20882Y8463
X18819Y7775
X18257Y7775
X17757Y7775
X18194Y7338
X19069Y7213
X16444Y6525
X20382Y5213
X21672Y4922
X22007Y4922
X22341Y4922
X22341Y4588
X22007Y4588
X21672Y4588
X21672Y4253
X22007Y4253
X22341Y4253
X22194Y5713
X23132Y6900
X23632Y6775
X23132Y7338
X24382Y6588
X25694Y6588
X27569Y6588
X30882Y2838
X31444Y2838
X23882Y2588
X23257Y2588
X22882Y2150
X21694Y2088
X20444Y2150
X20319Y2775
X13382Y3213
X12132Y3213
X11382Y4588
X10944Y4963
X10694Y4650
X10944Y5463
X9319Y3588
X20444Y10463
X20444Y10963
X17757Y11088
X20882Y12525
X24132Y12838
X25194Y13213
X26882Y13213
X28319Y12338
X29069Y12088
X30007Y13713
X29382Y13900
X28819Y14213
X28382Y14650
X29382Y15150
X29944Y14838
X29944Y15400
X29007Y15650
X29944Y16275
X30444Y15963
X30944Y15963
X31444Y15963
X24632Y11463
X24507Y10713
X23007Y10588
T02
X26382Y12088
X26382Y8775
X23069Y8213
X27569Y5963
X26694Y2588
X15569Y7588
X15132Y7588
X14132Y8650
X14132Y9088
X17069Y9275
X17069Y8775
X16569Y10900
X16132Y10900
X16382Y14338
X12632Y16713
X12632Y17213
X5069Y17213
X5069Y16713
T03
X7131Y1794
X7919Y1794
X8706Y1794
X9493Y1794
X10281Y1794
T04
X4569Y13524
X4569Y14901
T05
X3757Y11463
X3757Y10463
X3757Y9463
X3757Y7650
X3757Y6650
X3757Y5650
X3757Y4650
X3757Y3650
X13194Y15713
X14194Y15713
X21444Y17025
X22444Y17025
X23444Y17025
T06
X10194Y15088
X9194Y15088
X8194Y15088
T07
X3500Y1706
X30666Y1706
X30666Y17060
X3500Y17060
T08
X9194Y9188
M30
