G75*
G70*
%OFA0B0*%
%FSLAX24Y24*%
%IPPOS*%
%LPD*%
%AMOC8*
5,1,8,0,0,1.08239X$1,22.5*
%
%ADD10C,0.0318*%
%ADD11R,0.0560X0.0560*%
%ADD12C,0.0560*%
%ADD13C,0.0660*%
%ADD14C,0.0860*%
%ADD15C,0.0740*%
%ADD16R,0.1600X0.0600*%
%ADD17C,0.0100*%
%ADD18C,0.0278*%
%ADD19C,0.0357*%
%ADD20C,0.0400*%
D10*
X021672Y004253D03*
X022007Y004253D03*
X022341Y004253D03*
X022341Y004588D03*
X022007Y004588D03*
X021672Y004588D03*
X021672Y004922D03*
X022007Y004922D03*
X022341Y004922D03*
X022569Y012303D03*
X022097Y012303D03*
X022097Y012775D03*
X022569Y012775D03*
X022569Y013247D03*
X022097Y013247D03*
X023042Y013247D03*
X023042Y012775D03*
X023042Y012303D03*
D11*
X010281Y001794D03*
D12*
X009493Y001794D03*
X008706Y001794D03*
X007919Y001794D03*
X007131Y001794D03*
D13*
X008194Y014758D02*
X008194Y015418D01*
X009194Y015418D02*
X009194Y014758D01*
X010194Y014758D02*
X010194Y015418D01*
D14*
X004569Y014901D03*
X004569Y013524D03*
D15*
X003757Y011463D03*
X003757Y010463D03*
X003757Y009463D03*
X003757Y007650D03*
X003757Y006650D03*
X003757Y005650D03*
X003757Y004650D03*
X003757Y003650D03*
X013194Y015713D03*
X014194Y015713D03*
X021444Y017025D03*
X022444Y017025D03*
X023444Y017025D03*
D16*
X031059Y015305D03*
X031059Y013305D03*
X031059Y010383D03*
X031059Y008383D03*
X031059Y005462D03*
X031059Y003462D03*
D17*
X002489Y000695D02*
X002489Y018072D01*
X031677Y018072D01*
X031677Y015755D01*
X031109Y015755D01*
X031109Y015355D01*
X031009Y015355D01*
X031009Y015755D01*
X030240Y015755D01*
X030202Y015744D01*
X030167Y015725D01*
X030139Y015697D01*
X030120Y015662D01*
X030109Y015624D01*
X030109Y015355D01*
X031009Y015355D01*
X031009Y015255D01*
X030109Y015255D01*
X030109Y014985D01*
X030120Y014947D01*
X030139Y014912D01*
X030167Y014884D01*
X030202Y014865D01*
X030240Y014855D01*
X031009Y014855D01*
X031009Y015255D01*
X031109Y015255D01*
X031109Y014855D01*
X031677Y014855D01*
X031677Y013755D01*
X031109Y013755D01*
X031109Y013355D01*
X031009Y013355D01*
X031009Y013755D01*
X030240Y013755D01*
X030202Y013744D01*
X030167Y013725D01*
X030139Y013697D01*
X030120Y013662D01*
X030109Y013624D01*
X030109Y013355D01*
X031009Y013355D01*
X031009Y013255D01*
X030109Y013255D01*
X030109Y012985D01*
X030120Y012947D01*
X030139Y012912D01*
X030167Y012884D01*
X030202Y012865D01*
X030240Y012855D01*
X031009Y012855D01*
X031009Y013255D01*
X031109Y013255D01*
X031109Y012855D01*
X031677Y012855D01*
X031677Y010833D01*
X031109Y010833D01*
X031109Y010433D01*
X031009Y010433D01*
X031009Y010333D01*
X030109Y010333D01*
X030109Y010064D01*
X030120Y010025D01*
X030139Y009991D01*
X030167Y009963D01*
X030202Y009943D01*
X030240Y009933D01*
X031009Y009933D01*
X031009Y010333D01*
X031109Y010333D01*
X031109Y009933D01*
X031677Y009933D01*
X031677Y008833D01*
X031109Y008833D01*
X031109Y008433D01*
X031009Y008433D01*
X031009Y008333D01*
X030109Y008333D01*
X030109Y008064D01*
X030120Y008025D01*
X030139Y007991D01*
X030167Y007963D01*
X030202Y007943D01*
X030240Y007933D01*
X031009Y007933D01*
X031009Y008333D01*
X031109Y008333D01*
X031109Y007933D01*
X031677Y007933D01*
X031677Y005912D01*
X031109Y005912D01*
X031109Y005512D01*
X031009Y005512D01*
X031009Y005412D01*
X030109Y005412D01*
X030109Y005142D01*
X030120Y005104D01*
X030139Y005070D01*
X030167Y005042D01*
X030202Y005022D01*
X030240Y005012D01*
X031009Y005012D01*
X031009Y005412D01*
X031109Y005412D01*
X031109Y005012D01*
X031677Y005012D01*
X031677Y003912D01*
X031109Y003912D01*
X031109Y003512D01*
X031009Y003512D01*
X031009Y003412D01*
X030109Y003412D01*
X030109Y003142D01*
X030120Y003104D01*
X030139Y003070D01*
X030167Y003042D01*
X030202Y003022D01*
X030240Y003012D01*
X031009Y003012D01*
X031009Y003412D01*
X031109Y003412D01*
X031109Y003012D01*
X031677Y003012D01*
X031677Y000695D01*
X002489Y000695D01*
X002489Y000722D02*
X031677Y000722D01*
X031677Y000821D02*
X002489Y000821D01*
X002489Y000919D02*
X003310Y000919D01*
X003341Y000906D02*
X003659Y000906D01*
X003953Y001028D01*
X004179Y001253D01*
X004300Y001547D01*
X004300Y001865D01*
X004179Y002159D01*
X003953Y002384D01*
X003659Y002506D01*
X003341Y002506D01*
X003047Y002384D01*
X002822Y002159D01*
X002700Y001865D01*
X002700Y001547D01*
X002822Y001253D01*
X003047Y001028D01*
X003341Y000906D01*
X003073Y001018D02*
X002489Y001018D01*
X002489Y001116D02*
X002959Y001116D01*
X002861Y001215D02*
X002489Y001215D01*
X002489Y001313D02*
X002797Y001313D01*
X002757Y001412D02*
X002489Y001412D01*
X002489Y001510D02*
X002716Y001510D01*
X002700Y001609D02*
X002489Y001609D01*
X002489Y001707D02*
X002700Y001707D01*
X002700Y001806D02*
X002489Y001806D01*
X002489Y001904D02*
X002717Y001904D01*
X002757Y002003D02*
X002489Y002003D01*
X002489Y002101D02*
X002798Y002101D01*
X002863Y002200D02*
X002489Y002200D01*
X002489Y002298D02*
X002961Y002298D01*
X003077Y002397D02*
X002489Y002397D01*
X002489Y002495D02*
X003315Y002495D01*
X003686Y002495D02*
X020240Y002495D01*
X020262Y002486D02*
X020377Y002486D01*
X020483Y002530D01*
X020564Y002611D01*
X020608Y002718D01*
X020608Y002832D01*
X020564Y002939D01*
X020483Y003020D01*
X020377Y003064D01*
X020262Y003064D01*
X020156Y003020D01*
X020074Y002939D01*
X020030Y002832D01*
X020030Y002718D01*
X020074Y002611D01*
X020156Y002530D01*
X020262Y002486D01*
X020399Y002495D02*
X022982Y002495D01*
X022968Y002530D02*
X023012Y002424D01*
X023093Y002342D01*
X023199Y002298D01*
X023314Y002298D01*
X023421Y002342D01*
X023502Y002424D01*
X023546Y002530D01*
X023546Y002645D01*
X023502Y002751D01*
X023421Y002833D01*
X023314Y002877D01*
X023199Y002877D01*
X023093Y002833D01*
X023012Y002751D01*
X022968Y002645D01*
X022968Y002530D01*
X022968Y002594D02*
X020547Y002594D01*
X020598Y002692D02*
X022987Y002692D01*
X023051Y002791D02*
X020608Y002791D01*
X020585Y002889D02*
X026564Y002889D01*
X026508Y002866D02*
X026416Y002774D01*
X026366Y002653D01*
X026366Y002522D01*
X026416Y002401D01*
X026508Y002309D01*
X026629Y002259D01*
X026760Y002259D01*
X026880Y002309D01*
X026973Y002401D01*
X027023Y002522D01*
X027023Y002653D01*
X026973Y002774D01*
X026880Y002866D01*
X026760Y002916D01*
X026629Y002916D01*
X026508Y002866D01*
X026433Y002791D02*
X023463Y002791D01*
X023526Y002692D02*
X026382Y002692D01*
X026366Y002594D02*
X023546Y002594D01*
X023531Y002495D02*
X026377Y002495D01*
X026421Y002397D02*
X023475Y002397D01*
X023039Y002397D02*
X003924Y002397D01*
X004040Y002298D02*
X026535Y002298D01*
X026854Y002298D02*
X030126Y002298D01*
X030213Y002384D02*
X029988Y002159D01*
X029866Y001865D01*
X029866Y001547D01*
X029988Y001253D01*
X030213Y001028D01*
X030507Y000906D01*
X030825Y000906D01*
X031119Y001028D01*
X031344Y001253D01*
X031466Y001547D01*
X031466Y001865D01*
X031344Y002159D01*
X031119Y002384D01*
X030825Y002506D01*
X030507Y002506D01*
X030213Y002384D01*
X030242Y002397D02*
X026968Y002397D01*
X027011Y002495D02*
X030480Y002495D01*
X030851Y002495D02*
X031677Y002495D01*
X031677Y002397D02*
X031089Y002397D01*
X031205Y002298D02*
X031677Y002298D01*
X031677Y002200D02*
X031304Y002200D01*
X031368Y002101D02*
X031677Y002101D01*
X031677Y002003D02*
X031409Y002003D01*
X031450Y001904D02*
X031677Y001904D01*
X031677Y001806D02*
X031466Y001806D01*
X031466Y001707D02*
X031677Y001707D01*
X031677Y001609D02*
X031466Y001609D01*
X031450Y001510D02*
X031677Y001510D01*
X031677Y001412D02*
X031410Y001412D01*
X031369Y001313D02*
X031677Y001313D01*
X031677Y001215D02*
X031305Y001215D01*
X031207Y001116D02*
X031677Y001116D01*
X031677Y001018D02*
X031094Y001018D01*
X030856Y000919D02*
X031677Y000919D01*
X030476Y000919D02*
X003690Y000919D01*
X003928Y001018D02*
X030238Y001018D01*
X030125Y001116D02*
X004042Y001116D01*
X004140Y001215D02*
X030026Y001215D01*
X029963Y001313D02*
X004203Y001313D01*
X004244Y001412D02*
X006930Y001412D01*
X006888Y001429D02*
X007046Y001364D01*
X007217Y001364D01*
X007375Y001429D01*
X007496Y001550D01*
X007525Y001621D01*
X007554Y001550D01*
X007675Y001429D01*
X007833Y001364D01*
X008004Y001364D01*
X008162Y001429D01*
X008283Y001550D01*
X008312Y001620D01*
X008338Y001568D01*
X008378Y001514D01*
X008426Y001466D01*
X008481Y001426D01*
X008541Y001395D01*
X008605Y001374D01*
X008672Y001364D01*
X008677Y001364D01*
X008677Y001765D01*
X008735Y001765D01*
X008735Y001364D01*
X008740Y001364D01*
X008807Y001374D01*
X008871Y001395D01*
X008931Y001426D01*
X008986Y001466D01*
X009034Y001514D01*
X009074Y001568D01*
X009100Y001620D01*
X009129Y001550D01*
X009250Y001429D01*
X009408Y001364D01*
X009579Y001364D01*
X009737Y001429D01*
X009851Y001543D01*
X009851Y001452D01*
X009939Y001364D01*
X010623Y001364D01*
X010711Y001452D01*
X010711Y002136D01*
X010623Y002224D01*
X009939Y002224D01*
X009851Y002136D01*
X009851Y002044D01*
X009737Y002158D01*
X009579Y002224D01*
X009408Y002224D01*
X009250Y002158D01*
X009129Y002037D01*
X009100Y001968D01*
X009074Y002019D01*
X009034Y002074D01*
X008986Y002122D01*
X008931Y002161D01*
X008871Y002192D01*
X008807Y002213D01*
X008740Y002224D01*
X008735Y002224D01*
X008735Y001822D01*
X008677Y001822D01*
X008677Y002224D01*
X008672Y002224D01*
X008605Y002213D01*
X008541Y002192D01*
X008481Y002161D01*
X008426Y002122D01*
X008378Y002074D01*
X008338Y002019D01*
X008312Y001968D01*
X008283Y002037D01*
X008162Y002158D01*
X008004Y002224D01*
X007833Y002224D01*
X007675Y002158D01*
X007554Y002037D01*
X007525Y001967D01*
X007496Y002037D01*
X007375Y002158D01*
X007217Y002224D01*
X007046Y002224D01*
X006888Y002158D01*
X006767Y002037D01*
X006701Y001879D01*
X006701Y001708D01*
X006767Y001550D01*
X006888Y001429D01*
X006807Y001510D02*
X004285Y001510D01*
X004300Y001609D02*
X006743Y001609D01*
X006702Y001707D02*
X004300Y001707D01*
X004300Y001806D02*
X006701Y001806D01*
X006712Y001904D02*
X004284Y001904D01*
X004243Y002003D02*
X006752Y002003D01*
X006830Y002101D02*
X004203Y002101D01*
X004138Y002200D02*
X006987Y002200D01*
X007275Y002200D02*
X007775Y002200D01*
X007618Y002101D02*
X007432Y002101D01*
X007510Y002003D02*
X007540Y002003D01*
X008063Y002200D02*
X008564Y002200D01*
X008677Y002200D02*
X008735Y002200D01*
X008735Y002101D02*
X008677Y002101D01*
X008677Y002003D02*
X008735Y002003D01*
X008735Y001904D02*
X008677Y001904D01*
X008677Y001707D02*
X008735Y001707D01*
X008735Y001609D02*
X008677Y001609D01*
X008677Y001510D02*
X008735Y001510D01*
X008735Y001412D02*
X008677Y001412D01*
X008509Y001412D02*
X008120Y001412D01*
X008243Y001510D02*
X008382Y001510D01*
X008318Y001609D02*
X008307Y001609D01*
X008298Y002003D02*
X008330Y002003D01*
X008405Y002101D02*
X008219Y002101D01*
X008849Y002200D02*
X009350Y002200D01*
X009193Y002101D02*
X009007Y002101D01*
X009082Y002003D02*
X009115Y002003D01*
X009094Y001609D02*
X009105Y001609D01*
X009169Y001510D02*
X009030Y001510D01*
X008903Y001412D02*
X009293Y001412D01*
X009694Y001412D02*
X009891Y001412D01*
X009851Y001510D02*
X009818Y001510D01*
X009794Y002101D02*
X009851Y002101D01*
X009915Y002200D02*
X009637Y002200D01*
X010647Y002200D02*
X030028Y002200D01*
X029963Y002101D02*
X010711Y002101D01*
X010711Y002003D02*
X029923Y002003D01*
X029882Y001904D02*
X010711Y001904D01*
X010711Y001806D02*
X029866Y001806D01*
X029866Y001707D02*
X010711Y001707D01*
X010711Y001609D02*
X029866Y001609D01*
X029881Y001510D02*
X010711Y001510D01*
X010671Y001412D02*
X029922Y001412D01*
X031677Y002594D02*
X027023Y002594D01*
X027006Y002692D02*
X031677Y002692D01*
X031677Y002791D02*
X026956Y002791D01*
X026825Y002889D02*
X031677Y002889D01*
X031677Y002988D02*
X020516Y002988D01*
X020123Y002988D02*
X015440Y002988D01*
X015538Y003086D02*
X030130Y003086D01*
X030109Y003185D02*
X015637Y003185D01*
X015735Y003283D02*
X030109Y003283D01*
X030109Y003382D02*
X015834Y003382D01*
X015932Y003480D02*
X031009Y003480D01*
X031009Y003512D02*
X030109Y003512D01*
X030109Y003782D01*
X030120Y003820D01*
X030139Y003854D01*
X030167Y003882D01*
X030202Y003902D01*
X030240Y003912D01*
X031009Y003912D01*
X031009Y003512D01*
X031009Y003579D02*
X031109Y003579D01*
X031109Y003512D02*
X031677Y003512D01*
X031677Y003412D01*
X031109Y003412D01*
X031109Y003512D01*
X031109Y003480D02*
X031677Y003480D01*
X031109Y003382D02*
X031009Y003382D01*
X031009Y003283D02*
X031109Y003283D01*
X031109Y003185D02*
X031009Y003185D01*
X031009Y003086D02*
X031109Y003086D01*
X031109Y003677D02*
X031009Y003677D01*
X031009Y003776D02*
X031109Y003776D01*
X031109Y003874D02*
X031009Y003874D01*
X031677Y003973D02*
X016425Y003973D01*
X016523Y004071D02*
X031677Y004071D01*
X031677Y004170D02*
X016622Y004170D01*
X016720Y004268D02*
X031677Y004268D01*
X031677Y004367D02*
X016819Y004367D01*
X016917Y004465D02*
X031677Y004465D01*
X031677Y004564D02*
X017016Y004564D01*
X017114Y004662D02*
X031677Y004662D01*
X031677Y004761D02*
X017213Y004761D01*
X017311Y004859D02*
X031677Y004859D01*
X031677Y004958D02*
X020522Y004958D01*
X020546Y004967D02*
X020627Y005049D01*
X020671Y005155D01*
X020671Y005270D01*
X020627Y005376D01*
X020546Y005458D01*
X020439Y005502D01*
X020324Y005502D01*
X020218Y005458D01*
X020137Y005376D01*
X020093Y005270D01*
X020093Y005155D01*
X020137Y005049D01*
X020218Y004967D01*
X020324Y004923D01*
X020439Y004923D01*
X020546Y004967D01*
X020630Y005056D02*
X030153Y005056D01*
X030109Y005155D02*
X020671Y005155D01*
X020671Y005253D02*
X030109Y005253D01*
X030109Y005352D02*
X020637Y005352D01*
X020553Y005450D02*
X022073Y005450D01*
X022031Y005467D02*
X022137Y005423D01*
X022252Y005423D01*
X022358Y005467D01*
X022439Y005549D01*
X022483Y005655D01*
X022483Y005770D01*
X022439Y005876D01*
X022358Y005958D01*
X022252Y006002D01*
X022137Y006002D01*
X022031Y005958D01*
X021985Y005912D01*
X017799Y005912D01*
X014924Y003037D01*
X006590Y003037D01*
X006483Y003144D01*
X006483Y003207D01*
X006439Y003314D01*
X006358Y003395D01*
X006252Y003439D01*
X006137Y003439D01*
X006031Y003395D01*
X005949Y003314D01*
X005905Y003207D01*
X005905Y003093D01*
X005949Y002986D01*
X006031Y002905D01*
X006137Y002861D01*
X006200Y002861D01*
X006424Y002638D01*
X015090Y002638D01*
X015207Y002755D01*
X017965Y005513D01*
X021985Y005513D01*
X022031Y005467D01*
X022316Y005450D02*
X031009Y005450D01*
X031009Y005512D02*
X030109Y005512D01*
X030109Y005782D01*
X030120Y005820D01*
X030139Y005854D01*
X030167Y005882D01*
X030202Y005902D01*
X030240Y005912D01*
X031009Y005912D01*
X031009Y005512D01*
X031009Y005549D02*
X031109Y005549D01*
X031109Y005512D02*
X031677Y005512D01*
X031677Y005412D01*
X031109Y005412D01*
X031109Y005512D01*
X031109Y005450D02*
X031677Y005450D01*
X031109Y005352D02*
X031009Y005352D01*
X031009Y005253D02*
X031109Y005253D01*
X031109Y005155D02*
X031009Y005155D01*
X031009Y005056D02*
X031109Y005056D01*
X030109Y005549D02*
X022439Y005549D01*
X022480Y005647D02*
X027473Y005647D01*
X027504Y005634D02*
X027635Y005634D01*
X027755Y005684D01*
X027848Y005776D01*
X027898Y005897D01*
X027898Y006028D01*
X027848Y006149D01*
X027755Y006241D01*
X027635Y006291D01*
X027504Y006291D01*
X027383Y006241D01*
X027291Y006149D01*
X027241Y006028D01*
X027241Y005897D01*
X027291Y005776D01*
X027383Y005684D01*
X027504Y005634D01*
X027666Y005647D02*
X030109Y005647D01*
X030109Y005746D02*
X027817Y005746D01*
X027876Y005844D02*
X030134Y005844D01*
X031009Y005844D02*
X031109Y005844D01*
X031109Y005746D02*
X031009Y005746D01*
X031009Y005647D02*
X031109Y005647D01*
X031677Y005943D02*
X027898Y005943D01*
X027892Y006041D02*
X031677Y006041D01*
X031677Y006140D02*
X027851Y006140D01*
X027758Y006238D02*
X031677Y006238D01*
X031677Y006337D02*
X017539Y006337D01*
X017637Y006435D02*
X031677Y006435D01*
X031677Y006534D02*
X023799Y006534D01*
X023796Y006530D02*
X023877Y006611D01*
X023921Y006718D01*
X023921Y006832D01*
X023877Y006939D01*
X023796Y007020D01*
X023689Y007064D01*
X023574Y007064D01*
X023468Y007020D01*
X023416Y006968D01*
X023377Y007064D01*
X023296Y007145D01*
X023189Y007189D01*
X023074Y007189D01*
X022968Y007145D01*
X022923Y007100D01*
X017736Y007100D01*
X017643Y007006D01*
X017643Y007006D01*
X015299Y004662D01*
X014778Y004662D01*
X014733Y004708D01*
X014627Y004752D01*
X014512Y004752D01*
X014406Y004708D01*
X014324Y004626D01*
X014280Y004520D01*
X014280Y004405D01*
X014324Y004299D01*
X014406Y004217D01*
X014512Y004173D01*
X014627Y004173D01*
X014733Y004217D01*
X014778Y004263D01*
X015465Y004263D01*
X017902Y006700D01*
X022923Y006700D01*
X022968Y006655D01*
X023074Y006611D01*
X023189Y006611D01*
X023296Y006655D01*
X023347Y006707D01*
X023387Y006611D01*
X023468Y006530D01*
X023574Y006486D01*
X023689Y006486D01*
X023796Y006530D01*
X023885Y006632D02*
X031677Y006632D01*
X031677Y006731D02*
X023921Y006731D01*
X023921Y006829D02*
X031677Y006829D01*
X031677Y006928D02*
X023881Y006928D01*
X023781Y007026D02*
X031677Y007026D01*
X031677Y007125D02*
X023316Y007125D01*
X023392Y007026D02*
X023482Y007026D01*
X023132Y006900D02*
X017819Y006900D01*
X017757Y006838D01*
X017726Y006806D01*
X015382Y004463D01*
X014569Y004463D01*
X014360Y004662D02*
X004277Y004662D01*
X004277Y004753D02*
X004277Y004547D01*
X004198Y004355D01*
X004051Y004209D01*
X003908Y004150D01*
X004051Y004091D01*
X004198Y003945D01*
X004277Y003753D01*
X004277Y003547D01*
X004198Y003355D01*
X004051Y003209D01*
X003860Y003130D01*
X003653Y003130D01*
X003462Y003209D01*
X003316Y003355D01*
X003237Y003547D01*
X003237Y003753D01*
X003316Y003945D01*
X003462Y004091D01*
X003605Y004150D01*
X003462Y004209D01*
X003316Y004355D01*
X003237Y004547D01*
X003237Y004753D01*
X003316Y004945D01*
X003462Y005091D01*
X003605Y005150D01*
X003462Y005209D01*
X003316Y005355D01*
X003237Y005547D01*
X003237Y005753D01*
X003316Y005945D01*
X003462Y006091D01*
X003605Y006150D01*
X003462Y006209D01*
X003316Y006355D01*
X003237Y006547D01*
X003237Y006753D01*
X003316Y006945D01*
X003462Y007091D01*
X003608Y007151D01*
X003557Y007168D01*
X003484Y007205D01*
X003418Y007253D01*
X003360Y007311D01*
X003312Y007377D01*
X003275Y007450D01*
X003250Y007528D01*
X003238Y007600D01*
X003707Y007600D01*
X003707Y007700D01*
X003707Y008169D01*
X003635Y008157D01*
X003557Y008132D01*
X003484Y008095D01*
X003418Y008047D01*
X003360Y007989D01*
X003312Y007923D01*
X003275Y007850D01*
X003250Y007772D01*
X003238Y007700D01*
X003707Y007700D01*
X003807Y007700D01*
X004275Y007700D01*
X004264Y007772D01*
X004239Y007850D01*
X004202Y007923D01*
X004153Y007989D01*
X004096Y008047D01*
X004029Y008095D01*
X003956Y008132D01*
X003879Y008157D01*
X003807Y008169D01*
X003807Y007700D01*
X003807Y007600D01*
X004275Y007600D01*
X004264Y007528D01*
X004239Y007450D01*
X004202Y007377D01*
X004153Y007311D01*
X004096Y007253D01*
X004029Y007205D01*
X003956Y007168D01*
X003905Y007151D01*
X004051Y007091D01*
X004198Y006945D01*
X004277Y006753D01*
X004277Y006547D01*
X004198Y006355D01*
X004051Y006209D01*
X003908Y006150D01*
X004051Y006091D01*
X004198Y005945D01*
X004277Y005753D01*
X004277Y005547D01*
X004198Y005355D01*
X004051Y005209D01*
X003908Y005150D01*
X004051Y005091D01*
X004198Y004945D01*
X004277Y004753D01*
X004274Y004761D02*
X010737Y004761D01*
X010699Y004799D02*
X010781Y004717D01*
X010887Y004673D01*
X011002Y004673D01*
X011108Y004717D01*
X011153Y004763D01*
X011340Y004763D01*
X012090Y005513D01*
X012207Y005630D01*
X012207Y009817D01*
X014715Y012325D01*
X020673Y012325D01*
X020718Y012280D01*
X020824Y012236D01*
X020939Y012236D01*
X021046Y012280D01*
X021127Y012361D01*
X021171Y012468D01*
X021171Y012582D01*
X021145Y012644D01*
X021171Y012655D01*
X021252Y012736D01*
X021296Y012843D01*
X021296Y012957D01*
X021252Y013064D01*
X021171Y013145D01*
X021155Y013152D01*
X021179Y013210D01*
X021179Y013325D01*
X021149Y013396D01*
X021171Y013405D01*
X021252Y013486D01*
X021296Y013593D01*
X021296Y013707D01*
X021252Y013814D01*
X021171Y013895D01*
X021064Y013939D01*
X020949Y013939D01*
X020843Y013895D01*
X020798Y013850D01*
X014361Y013850D01*
X010986Y010475D01*
X010869Y010358D01*
X010869Y006859D01*
X010824Y006814D01*
X010780Y006707D01*
X010780Y006593D01*
X010824Y006486D01*
X010906Y006405D01*
X011012Y006361D01*
X011122Y006361D01*
X010861Y006100D01*
X008216Y006100D01*
X008171Y006145D01*
X008064Y006189D01*
X007949Y006189D01*
X007843Y006145D01*
X007762Y006064D01*
X007718Y005957D01*
X007718Y005843D01*
X007762Y005736D01*
X007843Y005655D01*
X007949Y005611D01*
X008064Y005611D01*
X008171Y005655D01*
X008216Y005700D01*
X010773Y005700D01*
X010699Y005626D01*
X010655Y005520D01*
X010655Y005405D01*
X010699Y005299D01*
X010781Y005217D01*
X010792Y005212D01*
X010781Y005208D01*
X010699Y005126D01*
X010655Y005020D01*
X010655Y004905D01*
X010699Y004799D01*
X010674Y004859D02*
X009437Y004859D01*
X009421Y004842D02*
X009502Y004924D01*
X009546Y005030D01*
X009546Y005145D01*
X009502Y005251D01*
X009421Y005333D01*
X009314Y005377D01*
X009199Y005377D01*
X009093Y005333D01*
X009048Y005287D01*
X008027Y005287D01*
X007394Y005920D01*
X007394Y010630D01*
X008340Y011575D01*
X009340Y011575D01*
X012996Y015232D01*
X013091Y015193D01*
X013298Y015193D01*
X013489Y015272D01*
X013635Y015418D01*
X013694Y015561D01*
X013753Y015418D01*
X013900Y015272D01*
X014091Y015193D01*
X014298Y015193D01*
X014489Y015272D01*
X014635Y015418D01*
X014674Y015513D01*
X015590Y015513D01*
X016777Y016700D01*
X020236Y016700D01*
X020682Y016255D01*
X020799Y016138D01*
X022340Y016138D01*
X022527Y016325D01*
X022644Y016442D01*
X022644Y016545D01*
X022739Y016584D01*
X022885Y016730D01*
X022944Y016873D01*
X023003Y016730D01*
X023150Y016584D01*
X023341Y016505D01*
X023548Y016505D01*
X023739Y016584D01*
X023885Y016730D01*
X023964Y016922D01*
X023964Y017128D01*
X023885Y017320D01*
X023739Y017466D01*
X023548Y017545D01*
X023341Y017545D01*
X023150Y017466D01*
X023003Y017320D01*
X022944Y017177D01*
X022885Y017320D01*
X022739Y017466D01*
X022548Y017545D01*
X022341Y017545D01*
X022150Y017466D01*
X022003Y017320D01*
X021944Y017177D01*
X021885Y017320D01*
X021739Y017466D01*
X021548Y017545D01*
X021341Y017545D01*
X021150Y017466D01*
X021003Y017320D01*
X020924Y017128D01*
X020924Y016922D01*
X021003Y016730D01*
X021150Y016584D01*
X021262Y016537D01*
X020965Y016537D01*
X020402Y017100D01*
X016611Y017100D01*
X016494Y016983D01*
X015424Y015912D01*
X014674Y015912D01*
X014635Y016007D01*
X014489Y016153D01*
X014298Y016232D01*
X014091Y016232D01*
X013900Y016153D01*
X013753Y016007D01*
X013694Y015864D01*
X013635Y016007D01*
X013489Y016153D01*
X013298Y016232D01*
X013091Y016232D01*
X012900Y016153D01*
X012753Y016007D01*
X012674Y015816D01*
X012674Y015609D01*
X012713Y015515D01*
X009174Y011975D01*
X008174Y011975D01*
X008057Y011858D01*
X006994Y010795D01*
X006994Y005755D01*
X007111Y005638D01*
X007861Y004888D01*
X009048Y004888D01*
X009093Y004842D01*
X009199Y004798D01*
X009314Y004798D01*
X009421Y004842D01*
X009516Y004958D02*
X010655Y004958D01*
X010670Y005056D02*
X009546Y005056D01*
X009542Y005155D02*
X010727Y005155D01*
X010745Y005253D02*
X009500Y005253D01*
X009375Y005352D02*
X010677Y005352D01*
X010655Y005450D02*
X007865Y005450D01*
X007963Y005352D02*
X009139Y005352D01*
X009257Y005088D02*
X007944Y005088D01*
X007194Y005838D01*
X007194Y010713D01*
X008257Y011775D01*
X009257Y011775D01*
X013194Y015713D01*
X013683Y015891D02*
X013705Y015891D01*
X013746Y015990D02*
X013642Y015990D01*
X013554Y016088D02*
X013834Y016088D01*
X013980Y016187D02*
X013409Y016187D01*
X012980Y016187D02*
X002489Y016187D01*
X002489Y016285D02*
X003282Y016285D01*
X003341Y016261D02*
X003659Y016261D01*
X003953Y016382D01*
X004179Y016607D01*
X004300Y016901D01*
X004300Y017220D01*
X004179Y017514D01*
X003953Y017739D01*
X003659Y017860D01*
X003341Y017860D01*
X003047Y017739D01*
X002822Y017514D01*
X002700Y017220D01*
X002700Y016901D01*
X002822Y016607D01*
X003047Y016382D01*
X003341Y016261D01*
X003046Y016384D02*
X002489Y016384D01*
X002489Y016482D02*
X002948Y016482D01*
X002849Y016581D02*
X002489Y016581D01*
X002489Y016679D02*
X002793Y016679D01*
X002752Y016778D02*
X002489Y016778D01*
X002489Y016876D02*
X002711Y016876D01*
X002700Y016975D02*
X002489Y016975D01*
X002489Y017073D02*
X002700Y017073D01*
X002700Y017172D02*
X002489Y017172D01*
X002489Y017270D02*
X002721Y017270D01*
X002762Y017369D02*
X002489Y017369D01*
X002489Y017467D02*
X002803Y017467D01*
X002874Y017566D02*
X002489Y017566D01*
X002489Y017664D02*
X002973Y017664D01*
X003105Y017763D02*
X002489Y017763D01*
X002489Y017861D02*
X031677Y017861D01*
X031677Y017763D02*
X031061Y017763D01*
X031119Y017739D02*
X030825Y017860D01*
X030507Y017860D01*
X030213Y017739D01*
X029988Y017514D01*
X029866Y017220D01*
X029866Y016901D01*
X029988Y016607D01*
X030213Y016382D01*
X030507Y016261D01*
X030825Y016261D01*
X031119Y016382D01*
X031344Y016607D01*
X031466Y016901D01*
X031466Y017220D01*
X031344Y017514D01*
X031119Y017739D01*
X031193Y017664D02*
X031677Y017664D01*
X031677Y017566D02*
X031292Y017566D01*
X031363Y017467D02*
X031677Y017467D01*
X031677Y017369D02*
X031404Y017369D01*
X031445Y017270D02*
X031677Y017270D01*
X031677Y017172D02*
X031466Y017172D01*
X031466Y017073D02*
X031677Y017073D01*
X031677Y016975D02*
X031466Y016975D01*
X031455Y016876D02*
X031677Y016876D01*
X031677Y016778D02*
X031414Y016778D01*
X031374Y016679D02*
X031677Y016679D01*
X031677Y016581D02*
X031317Y016581D01*
X031219Y016482D02*
X031677Y016482D01*
X031677Y016384D02*
X031120Y016384D01*
X030884Y016285D02*
X031677Y016285D01*
X031677Y016187D02*
X022389Y016187D01*
X022487Y016285D02*
X030447Y016285D01*
X030211Y016384D02*
X022586Y016384D01*
X022644Y016482D02*
X030113Y016482D01*
X030014Y016581D02*
X023730Y016581D01*
X023834Y016679D02*
X029958Y016679D01*
X029917Y016778D02*
X023905Y016778D01*
X023945Y016876D02*
X029876Y016876D01*
X029866Y016975D02*
X023964Y016975D01*
X023964Y017073D02*
X029866Y017073D01*
X029866Y017172D02*
X023946Y017172D01*
X023906Y017270D02*
X029887Y017270D01*
X029928Y017369D02*
X023836Y017369D01*
X023736Y017467D02*
X029968Y017467D01*
X030040Y017566D02*
X004127Y017566D01*
X004198Y017467D02*
X021153Y017467D01*
X021052Y017369D02*
X004239Y017369D01*
X004279Y017270D02*
X020983Y017270D01*
X020942Y017172D02*
X004300Y017172D01*
X004300Y017073D02*
X016584Y017073D01*
X016486Y016975D02*
X004300Y016975D01*
X004290Y016876D02*
X016387Y016876D01*
X016289Y016778D02*
X004249Y016778D01*
X004208Y016679D02*
X016190Y016679D01*
X016092Y016581D02*
X004152Y016581D01*
X004053Y016482D02*
X015993Y016482D01*
X015895Y016384D02*
X003955Y016384D01*
X003719Y016285D02*
X015796Y016285D01*
X015698Y016187D02*
X014409Y016187D01*
X014554Y016088D02*
X015599Y016088D01*
X015501Y015990D02*
X014642Y015990D01*
X014194Y015713D02*
X015507Y015713D01*
X016694Y016900D01*
X020319Y016900D01*
X020882Y016338D01*
X022257Y016338D01*
X022444Y016525D01*
X022444Y017025D01*
X022834Y016679D02*
X023055Y016679D01*
X022984Y016778D02*
X022905Y016778D01*
X022730Y016581D02*
X023158Y016581D01*
X022983Y017270D02*
X022906Y017270D01*
X022836Y017369D02*
X023052Y017369D01*
X023153Y017467D02*
X022736Y017467D01*
X022153Y017467D02*
X021736Y017467D01*
X021836Y017369D02*
X022052Y017369D01*
X021983Y017270D02*
X021906Y017270D01*
X020924Y017073D02*
X020429Y017073D01*
X020528Y016975D02*
X020924Y016975D01*
X020943Y016876D02*
X020626Y016876D01*
X020725Y016778D02*
X020984Y016778D01*
X021055Y016679D02*
X020823Y016679D01*
X020922Y016581D02*
X021158Y016581D01*
X020553Y016384D02*
X016461Y016384D01*
X016559Y016482D02*
X020454Y016482D01*
X020356Y016581D02*
X016658Y016581D01*
X016756Y016679D02*
X020257Y016679D01*
X020651Y016285D02*
X016362Y016285D01*
X016264Y016187D02*
X020750Y016187D01*
X019921Y014395D02*
X019814Y014439D01*
X019699Y014439D01*
X019593Y014395D01*
X019512Y014314D01*
X019468Y014207D01*
X019468Y014093D01*
X019512Y013986D01*
X019593Y013905D01*
X019699Y013861D01*
X019814Y013861D01*
X019921Y013905D01*
X020002Y013986D01*
X020046Y014093D01*
X020046Y014207D01*
X020002Y014314D01*
X019921Y014395D01*
X019876Y014414D02*
X021763Y014414D01*
X021718Y014395D02*
X021637Y014314D01*
X021593Y014207D01*
X021593Y014093D01*
X021637Y013986D01*
X021718Y013905D01*
X021824Y013861D01*
X021939Y013861D01*
X022046Y013905D01*
X022127Y013986D01*
X022171Y014093D01*
X022171Y014207D01*
X022127Y014314D01*
X022046Y014395D01*
X021939Y014439D01*
X021824Y014439D01*
X021718Y014395D01*
X021638Y014315D02*
X020001Y014315D01*
X020042Y014217D02*
X021596Y014217D01*
X021593Y014118D02*
X020046Y014118D01*
X020016Y014020D02*
X021623Y014020D01*
X021702Y013921D02*
X021108Y013921D01*
X021243Y013823D02*
X031677Y013823D01*
X031677Y013921D02*
X023062Y013921D01*
X023046Y013905D02*
X023127Y013986D01*
X023171Y014093D01*
X023171Y014207D01*
X023127Y014314D01*
X023046Y014395D01*
X022939Y014439D01*
X022824Y014439D01*
X022718Y014395D01*
X022637Y014314D01*
X022593Y014207D01*
X022593Y014093D01*
X022637Y013986D01*
X022718Y013905D01*
X022824Y013861D01*
X022939Y013861D01*
X023046Y013905D01*
X023141Y014020D02*
X031677Y014020D01*
X031677Y014118D02*
X023171Y014118D01*
X023167Y014217D02*
X031677Y014217D01*
X031677Y014315D02*
X023126Y014315D01*
X023001Y014414D02*
X031677Y014414D01*
X031677Y014512D02*
X016665Y014512D01*
X016660Y014524D02*
X016568Y014616D01*
X016447Y014666D01*
X016316Y014666D01*
X016196Y014616D01*
X016103Y014524D01*
X016053Y014403D01*
X016053Y014272D01*
X016103Y014151D01*
X016196Y014059D01*
X016316Y014009D01*
X016447Y014009D01*
X016568Y014059D01*
X016660Y014151D01*
X016710Y014272D01*
X016710Y014403D01*
X016660Y014524D01*
X016706Y014414D02*
X019638Y014414D01*
X019513Y014315D02*
X016710Y014315D01*
X016687Y014217D02*
X019471Y014217D01*
X019468Y014118D02*
X016627Y014118D01*
X016472Y014020D02*
X019498Y014020D01*
X019577Y013921D02*
X011686Y013921D01*
X011784Y014020D02*
X016291Y014020D01*
X016137Y014118D02*
X011883Y014118D01*
X011981Y014217D02*
X016076Y014217D01*
X016053Y014315D02*
X012080Y014315D01*
X012178Y014414D02*
X016058Y014414D01*
X016099Y014512D02*
X012277Y014512D01*
X012375Y014611D02*
X016190Y014611D01*
X016573Y014611D02*
X031677Y014611D01*
X031677Y014709D02*
X012474Y014709D01*
X012572Y014808D02*
X031677Y014808D01*
X031109Y014906D02*
X031009Y014906D01*
X031009Y015005D02*
X031109Y015005D01*
X031109Y015103D02*
X031009Y015103D01*
X031009Y015202D02*
X031109Y015202D01*
X031109Y015255D02*
X031109Y015355D01*
X031677Y015355D01*
X031677Y015255D01*
X031109Y015255D01*
X031109Y015300D02*
X031677Y015300D01*
X031109Y015399D02*
X031009Y015399D01*
X031009Y015497D02*
X031109Y015497D01*
X031109Y015596D02*
X031009Y015596D01*
X031009Y015694D02*
X031109Y015694D01*
X031677Y015793D02*
X017296Y015793D01*
X017296Y015780D02*
X017252Y015674D01*
X017171Y015592D01*
X017064Y015548D01*
X016949Y015548D01*
X016843Y015592D01*
X016762Y015674D01*
X016718Y015780D01*
X016718Y015895D01*
X016762Y016001D01*
X016843Y016083D01*
X016949Y016127D01*
X017064Y016127D01*
X017171Y016083D01*
X017252Y016001D01*
X017296Y015895D01*
X017296Y015780D01*
X017260Y015694D02*
X030138Y015694D01*
X030109Y015596D02*
X017174Y015596D01*
X017296Y015891D02*
X031677Y015891D01*
X031677Y015990D02*
X017257Y015990D01*
X017157Y016088D02*
X031677Y016088D01*
X031009Y015300D02*
X014517Y015300D01*
X014616Y015399D02*
X030109Y015399D01*
X030109Y015497D02*
X014668Y015497D01*
X014320Y015202D02*
X030109Y015202D01*
X030109Y015103D02*
X012868Y015103D01*
X012966Y015202D02*
X013069Y015202D01*
X013320Y015202D02*
X014069Y015202D01*
X013871Y015300D02*
X013517Y015300D01*
X013616Y015399D02*
X013773Y015399D01*
X013721Y015497D02*
X013668Y015497D01*
X012769Y015005D02*
X030109Y015005D01*
X030146Y014906D02*
X012671Y014906D01*
X012302Y015103D02*
X010674Y015103D01*
X010674Y015005D02*
X012203Y015005D01*
X012105Y014906D02*
X010674Y014906D01*
X010674Y014808D02*
X012006Y014808D01*
X011908Y014709D02*
X010674Y014709D01*
X010674Y014662D02*
X010601Y014486D01*
X010544Y014429D01*
X010544Y013830D01*
X010491Y013702D01*
X010393Y013603D01*
X009580Y012791D01*
X009451Y012738D01*
X007187Y012738D01*
X007059Y012791D01*
X006960Y012889D01*
X006676Y013174D01*
X005040Y013174D01*
X004898Y013032D01*
X004685Y012944D01*
X004454Y012944D01*
X004241Y013032D01*
X004078Y013195D01*
X003989Y013408D01*
X003989Y013639D01*
X004078Y013852D01*
X004241Y014015D01*
X004454Y014104D01*
X004685Y014104D01*
X004898Y014015D01*
X005040Y013874D01*
X006890Y013874D01*
X007019Y013820D01*
X007402Y013437D01*
X009237Y013437D01*
X009844Y014045D01*
X009844Y014429D01*
X009787Y014486D01*
X009714Y014662D01*
X009714Y015513D01*
X009787Y015689D01*
X009922Y015824D01*
X010099Y015897D01*
X010290Y015897D01*
X010466Y015824D01*
X010601Y015689D01*
X010674Y015513D01*
X010674Y014662D01*
X010653Y014611D02*
X011809Y014611D01*
X011711Y014512D02*
X010612Y014512D01*
X010544Y014414D02*
X011612Y014414D01*
X011514Y014315D02*
X010544Y014315D01*
X010544Y014217D02*
X011415Y014217D01*
X011317Y014118D02*
X010544Y014118D01*
X010544Y014020D02*
X011218Y014020D01*
X011120Y013921D02*
X010544Y013921D01*
X010541Y013823D02*
X011021Y013823D01*
X010923Y013724D02*
X010500Y013724D01*
X010415Y013626D02*
X010824Y013626D01*
X010726Y013527D02*
X010316Y013527D01*
X010218Y013429D02*
X010627Y013429D01*
X010529Y013330D02*
X010119Y013330D01*
X010021Y013232D02*
X010430Y013232D01*
X010332Y013133D02*
X009922Y013133D01*
X009824Y013035D02*
X010233Y013035D01*
X010135Y012936D02*
X009725Y012936D01*
X009627Y012838D02*
X010036Y012838D01*
X009938Y012739D02*
X009455Y012739D01*
X009741Y012542D02*
X002489Y012542D01*
X002489Y012444D02*
X009642Y012444D01*
X009544Y012345D02*
X002489Y012345D01*
X002489Y012247D02*
X009445Y012247D01*
X009347Y012148D02*
X002489Y012148D01*
X002489Y012050D02*
X009248Y012050D01*
X009617Y011853D02*
X012364Y011853D01*
X012462Y011951D02*
X009716Y011951D01*
X009814Y012050D02*
X012561Y012050D01*
X012659Y012148D02*
X009913Y012148D01*
X010011Y012247D02*
X012758Y012247D01*
X012856Y012345D02*
X010110Y012345D01*
X010208Y012444D02*
X012955Y012444D01*
X013053Y012542D02*
X010307Y012542D01*
X010405Y012641D02*
X013152Y012641D01*
X013250Y012739D02*
X010504Y012739D01*
X010602Y012838D02*
X013349Y012838D01*
X013447Y012936D02*
X010701Y012936D01*
X010799Y013035D02*
X013546Y013035D01*
X013644Y013133D02*
X010898Y013133D01*
X010996Y013232D02*
X013743Y013232D01*
X013841Y013330D02*
X011095Y013330D01*
X011193Y013429D02*
X013940Y013429D01*
X014038Y013527D02*
X011292Y013527D01*
X011390Y013626D02*
X014137Y013626D01*
X014235Y013724D02*
X011489Y013724D01*
X011587Y013823D02*
X014334Y013823D01*
X014444Y013650D02*
X011069Y010275D01*
X011069Y006650D01*
X010805Y006534D02*
X007394Y006534D01*
X007394Y006632D02*
X010780Y006632D01*
X010790Y006731D02*
X007394Y006731D01*
X007394Y006829D02*
X010839Y006829D01*
X010869Y006928D02*
X007394Y006928D01*
X007394Y007026D02*
X010869Y007026D01*
X010869Y007125D02*
X007394Y007125D01*
X007394Y007223D02*
X010869Y007223D01*
X010869Y007322D02*
X007394Y007322D01*
X007394Y007420D02*
X008703Y007420D01*
X008718Y007405D02*
X008824Y007361D01*
X008939Y007361D01*
X009046Y007405D01*
X009127Y007486D01*
X009171Y007593D01*
X009171Y007707D01*
X009127Y007814D01*
X009046Y007895D01*
X008939Y007939D01*
X008824Y007939D01*
X008718Y007895D01*
X008637Y007814D01*
X007394Y007814D01*
X007394Y007716D02*
X008596Y007716D01*
X008593Y007707D02*
X008593Y007593D01*
X008637Y007486D01*
X008718Y007405D01*
X008623Y007519D02*
X007394Y007519D01*
X007394Y007617D02*
X008593Y007617D01*
X008593Y007707D02*
X008637Y007814D01*
X008760Y007913D02*
X007394Y007913D01*
X007394Y008011D02*
X010869Y008011D01*
X010869Y007913D02*
X009003Y007913D01*
X009043Y008038D02*
X009346Y008038D01*
X009638Y008116D01*
X009900Y008267D01*
X010114Y008481D01*
X010266Y008744D01*
X010344Y009036D01*
X010344Y009339D01*
X010266Y009631D01*
X010114Y009894D01*
X009900Y010108D01*
X009638Y010259D01*
X009346Y010337D01*
X009043Y010337D01*
X008750Y010259D01*
X008488Y010108D01*
X008274Y009894D01*
X008123Y009631D01*
X008044Y009339D01*
X008044Y009036D01*
X008123Y008744D01*
X008274Y008481D01*
X008488Y008267D01*
X008750Y008116D01*
X009043Y008038D01*
X009127Y007814D02*
X010869Y007814D01*
X010869Y007716D02*
X009168Y007716D01*
X009171Y007617D02*
X010869Y007617D01*
X010869Y007519D02*
X009140Y007519D01*
X009061Y007420D02*
X010869Y007420D01*
X010869Y008110D02*
X009614Y008110D01*
X009798Y008208D02*
X010869Y008208D01*
X010869Y008307D02*
X009940Y008307D01*
X010038Y008405D02*
X010869Y008405D01*
X010869Y008504D02*
X010127Y008504D01*
X010184Y008602D02*
X010869Y008602D01*
X010869Y008701D02*
X010241Y008701D01*
X010281Y008799D02*
X010869Y008799D01*
X010869Y008898D02*
X010307Y008898D01*
X010334Y008996D02*
X010869Y008996D01*
X010869Y009095D02*
X010344Y009095D01*
X010344Y009193D02*
X010869Y009193D01*
X010869Y009292D02*
X010344Y009292D01*
X010331Y009390D02*
X010869Y009390D01*
X010869Y009489D02*
X010304Y009489D01*
X010278Y009587D02*
X010869Y009587D01*
X010869Y009686D02*
X010235Y009686D01*
X010178Y009784D02*
X010869Y009784D01*
X010869Y009883D02*
X010121Y009883D01*
X010027Y009981D02*
X010869Y009981D01*
X010869Y010080D02*
X009929Y010080D01*
X009779Y010178D02*
X010869Y010178D01*
X010869Y010277D02*
X009573Y010277D01*
X008815Y010277D02*
X007394Y010277D01*
X007394Y010375D02*
X010886Y010375D01*
X010985Y010474D02*
X007394Y010474D01*
X007394Y010572D02*
X011083Y010572D01*
X011182Y010671D02*
X007435Y010671D01*
X007534Y010769D02*
X011280Y010769D01*
X011379Y010868D02*
X007632Y010868D01*
X007731Y010966D02*
X011477Y010966D01*
X011576Y011065D02*
X007829Y011065D01*
X007928Y011163D02*
X011674Y011163D01*
X011773Y011262D02*
X008026Y011262D01*
X008125Y011360D02*
X011871Y011360D01*
X011970Y011459D02*
X008223Y011459D01*
X008322Y011557D02*
X012068Y011557D01*
X012167Y011656D02*
X009420Y011656D01*
X009519Y011754D02*
X012265Y011754D01*
X013356Y010966D02*
X020155Y010966D01*
X020155Y011020D02*
X020155Y010905D01*
X020199Y010799D01*
X020281Y010717D01*
X020387Y010673D01*
X020502Y010673D01*
X020608Y010717D01*
X020653Y010763D01*
X023090Y010763D01*
X023207Y010880D01*
X024332Y012005D01*
X024332Y012629D01*
X024377Y012674D01*
X024421Y012780D01*
X024421Y012895D01*
X024377Y013001D01*
X024296Y013083D01*
X024189Y013127D01*
X024074Y013127D01*
X023968Y013083D01*
X023887Y013001D01*
X023843Y012895D01*
X023843Y012780D01*
X023887Y012674D01*
X023932Y012629D01*
X023932Y012170D01*
X022924Y011162D01*
X020653Y011162D01*
X020608Y011208D01*
X020502Y011252D01*
X020387Y011252D01*
X020281Y011208D01*
X020199Y011126D01*
X020155Y011020D01*
X020174Y011065D02*
X013454Y011065D01*
X013553Y011163D02*
X020236Y011163D01*
X020444Y010963D02*
X023007Y010963D01*
X024132Y012088D01*
X024132Y012838D01*
X024344Y013035D02*
X030109Y013035D01*
X030109Y013133D02*
X021183Y013133D01*
X021179Y013232D02*
X030109Y013232D01*
X030109Y013429D02*
X021194Y013429D01*
X021176Y013330D02*
X031009Y013330D01*
X031009Y013232D02*
X031109Y013232D01*
X031109Y013255D02*
X031109Y013355D01*
X031677Y013355D01*
X031677Y013255D01*
X031109Y013255D01*
X031109Y013330D02*
X031677Y013330D01*
X031109Y013429D02*
X031009Y013429D01*
X031009Y013527D02*
X031109Y013527D01*
X031109Y013626D02*
X031009Y013626D01*
X031009Y013724D02*
X031109Y013724D01*
X031109Y013133D02*
X031009Y013133D01*
X031009Y013035D02*
X031109Y013035D01*
X031109Y012936D02*
X031009Y012936D01*
X031677Y012838D02*
X024421Y012838D01*
X024404Y012936D02*
X030126Y012936D01*
X030109Y013527D02*
X021269Y013527D01*
X021296Y013626D02*
X030110Y013626D01*
X030167Y013724D02*
X021289Y013724D01*
X021007Y013650D02*
X014444Y013650D01*
X014499Y013267D02*
X011382Y010150D01*
X011382Y006338D01*
X010944Y005900D01*
X008007Y005900D01*
X007752Y006041D02*
X007394Y006041D01*
X007394Y005943D02*
X007718Y005943D01*
X007718Y005844D02*
X007471Y005844D01*
X007569Y005746D02*
X007758Y005746D01*
X007668Y005647D02*
X007862Y005647D01*
X007766Y005549D02*
X010667Y005549D01*
X010720Y005647D02*
X008151Y005647D01*
X008176Y006140D02*
X010901Y006140D01*
X010999Y006238D02*
X007394Y006238D01*
X007394Y006140D02*
X007837Y006140D01*
X007394Y006337D02*
X011098Y006337D01*
X010875Y006435D02*
X007394Y006435D01*
X006994Y006435D02*
X004231Y006435D01*
X004271Y006534D02*
X006994Y006534D01*
X006994Y006632D02*
X004277Y006632D01*
X004277Y006731D02*
X006994Y006731D01*
X006994Y006829D02*
X004245Y006829D01*
X004205Y006928D02*
X006994Y006928D01*
X006994Y007026D02*
X004116Y007026D01*
X003970Y007125D02*
X006994Y007125D01*
X006994Y007223D02*
X004054Y007223D01*
X004161Y007322D02*
X006994Y007322D01*
X006994Y007420D02*
X004223Y007420D01*
X004261Y007519D02*
X006994Y007519D01*
X006994Y007617D02*
X003807Y007617D01*
X003807Y007716D02*
X003707Y007716D01*
X003707Y007814D02*
X003807Y007814D01*
X003807Y007913D02*
X003707Y007913D01*
X003707Y008011D02*
X003807Y008011D01*
X003807Y008110D02*
X003707Y008110D01*
X003513Y008110D02*
X002489Y008110D01*
X002489Y008208D02*
X006994Y008208D01*
X006994Y008110D02*
X004000Y008110D01*
X004131Y008011D02*
X006994Y008011D01*
X006994Y007913D02*
X004207Y007913D01*
X004250Y007814D02*
X006994Y007814D01*
X006994Y007716D02*
X004273Y007716D01*
X003707Y007617D02*
X002489Y007617D01*
X002489Y007519D02*
X003253Y007519D01*
X003290Y007420D02*
X002489Y007420D01*
X002489Y007322D02*
X003353Y007322D01*
X003460Y007223D02*
X002489Y007223D01*
X002489Y007125D02*
X003544Y007125D01*
X003397Y007026D02*
X002489Y007026D01*
X002489Y006928D02*
X003309Y006928D01*
X003268Y006829D02*
X002489Y006829D01*
X002489Y006731D02*
X003237Y006731D01*
X003237Y006632D02*
X002489Y006632D01*
X002489Y006534D02*
X003242Y006534D01*
X003283Y006435D02*
X002489Y006435D01*
X002489Y006337D02*
X003335Y006337D01*
X003433Y006238D02*
X002489Y006238D01*
X002489Y006140D02*
X003580Y006140D01*
X003412Y006041D02*
X002489Y006041D01*
X002489Y005943D02*
X003315Y005943D01*
X003274Y005844D02*
X002489Y005844D01*
X002489Y005746D02*
X003237Y005746D01*
X003237Y005647D02*
X002489Y005647D01*
X002489Y005549D02*
X003237Y005549D01*
X003277Y005450D02*
X002489Y005450D01*
X002489Y005352D02*
X003320Y005352D01*
X003418Y005253D02*
X002489Y005253D01*
X002489Y005155D02*
X003594Y005155D01*
X003427Y005056D02*
X002489Y005056D01*
X002489Y004958D02*
X003329Y004958D01*
X003280Y004859D02*
X002489Y004859D01*
X002489Y004761D02*
X003240Y004761D01*
X003237Y004662D02*
X002489Y004662D01*
X002489Y004564D02*
X003237Y004564D01*
X003271Y004465D02*
X002489Y004465D01*
X002489Y004367D02*
X003311Y004367D01*
X003403Y004268D02*
X002489Y004268D01*
X002489Y004170D02*
X003558Y004170D01*
X003442Y004071D02*
X002489Y004071D01*
X002489Y003973D02*
X003344Y003973D01*
X003287Y003874D02*
X002489Y003874D01*
X002489Y003776D02*
X003246Y003776D01*
X003237Y003677D02*
X002489Y003677D01*
X002489Y003579D02*
X003237Y003579D01*
X003264Y003480D02*
X002489Y003480D01*
X002489Y003382D02*
X003305Y003382D01*
X003388Y003283D02*
X002489Y003283D01*
X002489Y003185D02*
X003522Y003185D01*
X003992Y003185D02*
X005905Y003185D01*
X005908Y003086D02*
X002489Y003086D01*
X002489Y002988D02*
X005949Y002988D01*
X006069Y002889D02*
X002489Y002889D01*
X002489Y002791D02*
X006271Y002791D01*
X006369Y002692D02*
X002489Y002692D01*
X002489Y002594D02*
X020092Y002594D01*
X020041Y002692D02*
X015144Y002692D01*
X015243Y002791D02*
X020030Y002791D01*
X020054Y002889D02*
X015341Y002889D01*
X015007Y002838D02*
X006507Y002838D01*
X006194Y003150D01*
X005936Y003283D02*
X004125Y003283D01*
X004208Y003382D02*
X006017Y003382D01*
X006372Y003382D02*
X015268Y003382D01*
X015366Y003480D02*
X004249Y003480D01*
X004277Y003579D02*
X015465Y003579D01*
X015563Y003677D02*
X004277Y003677D01*
X004268Y003776D02*
X015662Y003776D01*
X015760Y003874D02*
X004227Y003874D01*
X004170Y003973D02*
X015859Y003973D01*
X015957Y004071D02*
X004071Y004071D01*
X003956Y004170D02*
X016056Y004170D01*
X016154Y004268D02*
X015470Y004268D01*
X015569Y004367D02*
X016253Y004367D01*
X016351Y004465D02*
X015667Y004465D01*
X015766Y004564D02*
X016450Y004564D01*
X016548Y004662D02*
X015864Y004662D01*
X015963Y004761D02*
X016647Y004761D01*
X016745Y004859D02*
X016061Y004859D01*
X016160Y004958D02*
X016844Y004958D01*
X016942Y005056D02*
X016258Y005056D01*
X016357Y005155D02*
X017041Y005155D01*
X017139Y005253D02*
X016455Y005253D01*
X016554Y005352D02*
X017238Y005352D01*
X017336Y005450D02*
X016652Y005450D01*
X016751Y005549D02*
X017435Y005549D01*
X017533Y005647D02*
X016849Y005647D01*
X016948Y005746D02*
X017632Y005746D01*
X017730Y005844D02*
X017046Y005844D01*
X017145Y005943D02*
X022015Y005943D01*
X022194Y005713D02*
X017882Y005713D01*
X015007Y002838D01*
X014972Y003086D02*
X006541Y003086D01*
X006483Y003185D02*
X015071Y003185D01*
X015169Y003283D02*
X006452Y003283D01*
X004243Y004465D02*
X014280Y004465D01*
X014296Y004367D02*
X004202Y004367D01*
X004110Y004268D02*
X014355Y004268D01*
X014298Y004564D02*
X004277Y004564D01*
X004233Y004859D02*
X009076Y004859D01*
X007791Y004958D02*
X004185Y004958D01*
X004086Y005056D02*
X007693Y005056D01*
X007594Y005155D02*
X003919Y005155D01*
X004095Y005253D02*
X007496Y005253D01*
X007397Y005352D02*
X004194Y005352D01*
X004237Y005450D02*
X007299Y005450D01*
X007200Y005549D02*
X004277Y005549D01*
X004277Y005647D02*
X007102Y005647D01*
X007003Y005746D02*
X004277Y005746D01*
X004239Y005844D02*
X006994Y005844D01*
X006994Y005943D02*
X004198Y005943D01*
X004101Y006041D02*
X006994Y006041D01*
X006994Y006140D02*
X003934Y006140D01*
X004080Y006238D02*
X006994Y006238D01*
X006994Y006337D02*
X004179Y006337D01*
X003241Y007716D02*
X002489Y007716D01*
X002489Y007814D02*
X003263Y007814D01*
X003307Y007913D02*
X002489Y007913D01*
X002489Y008011D02*
X003382Y008011D01*
X002489Y008307D02*
X006994Y008307D01*
X006994Y008405D02*
X002489Y008405D01*
X002489Y008504D02*
X006994Y008504D01*
X006994Y008602D02*
X002489Y008602D01*
X002489Y008701D02*
X006994Y008701D01*
X006994Y008799D02*
X002489Y008799D01*
X002489Y008898D02*
X006994Y008898D01*
X006994Y008996D02*
X003989Y008996D01*
X004051Y009022D02*
X004198Y009168D01*
X004277Y009359D01*
X004277Y009566D01*
X004198Y009757D01*
X004051Y009903D01*
X003908Y009963D01*
X004051Y010022D01*
X004198Y010168D01*
X004277Y010359D01*
X004277Y010566D01*
X004198Y010757D01*
X004051Y010903D01*
X003905Y010964D01*
X003956Y010981D01*
X004029Y011018D01*
X004096Y011066D01*
X004153Y011124D01*
X004202Y011190D01*
X004239Y011263D01*
X004264Y011341D01*
X004275Y011413D01*
X003807Y011413D01*
X003807Y011512D01*
X004275Y011512D01*
X004264Y011584D01*
X004239Y011662D01*
X004202Y011735D01*
X004153Y011801D01*
X004096Y011859D01*
X004029Y011907D01*
X003956Y011944D01*
X003879Y011970D01*
X003807Y011981D01*
X003807Y011513D01*
X003707Y011513D01*
X003707Y011981D01*
X003635Y011970D01*
X003557Y011944D01*
X003484Y011907D01*
X003418Y011859D01*
X003360Y011801D01*
X003312Y011735D01*
X003275Y011662D01*
X003250Y011584D01*
X003238Y011512D01*
X003707Y011512D01*
X003707Y011413D01*
X003238Y011413D01*
X003250Y011341D01*
X003275Y011263D01*
X003312Y011190D01*
X003360Y011124D01*
X003418Y011066D01*
X003484Y011018D01*
X003557Y010981D01*
X003608Y010964D01*
X003462Y010903D01*
X003316Y010757D01*
X003237Y010566D01*
X003237Y010359D01*
X003316Y010168D01*
X003462Y010022D01*
X003605Y009963D01*
X003462Y009903D01*
X003316Y009757D01*
X003237Y009566D01*
X003237Y009359D01*
X003316Y009168D01*
X003462Y009022D01*
X003653Y008943D01*
X003860Y008943D01*
X004051Y009022D01*
X004124Y009095D02*
X006994Y009095D01*
X006994Y009193D02*
X004208Y009193D01*
X004249Y009292D02*
X006994Y009292D01*
X006994Y009390D02*
X004277Y009390D01*
X004277Y009489D02*
X006994Y009489D01*
X006994Y009587D02*
X004268Y009587D01*
X004227Y009686D02*
X006994Y009686D01*
X006994Y009784D02*
X004171Y009784D01*
X004072Y009883D02*
X006994Y009883D01*
X006994Y009981D02*
X003953Y009981D01*
X004109Y010080D02*
X006994Y010080D01*
X006994Y010178D02*
X004202Y010178D01*
X004243Y010277D02*
X006994Y010277D01*
X006994Y010375D02*
X004277Y010375D01*
X004277Y010474D02*
X006994Y010474D01*
X006994Y010572D02*
X004274Y010572D01*
X004233Y010671D02*
X006994Y010671D01*
X006994Y010769D02*
X004186Y010769D01*
X004087Y010868D02*
X007066Y010868D01*
X007165Y010966D02*
X003912Y010966D01*
X004094Y011065D02*
X007263Y011065D01*
X007362Y011163D02*
X004182Y011163D01*
X004238Y011262D02*
X007460Y011262D01*
X007559Y011360D02*
X004267Y011360D01*
X004268Y011557D02*
X007756Y011557D01*
X007854Y011656D02*
X004241Y011656D01*
X004188Y011754D02*
X007953Y011754D01*
X008051Y011853D02*
X004102Y011853D01*
X003936Y011951D02*
X008150Y011951D01*
X007657Y011459D02*
X003807Y011459D01*
X003807Y011557D02*
X003707Y011557D01*
X003707Y011459D02*
X002489Y011459D01*
X002489Y011557D02*
X003245Y011557D01*
X003273Y011656D02*
X002489Y011656D01*
X002489Y011754D02*
X003326Y011754D01*
X003411Y011853D02*
X002489Y011853D01*
X002489Y011951D02*
X003578Y011951D01*
X003707Y011951D02*
X003807Y011951D01*
X003807Y011853D02*
X003707Y011853D01*
X003707Y011754D02*
X003807Y011754D01*
X003807Y011656D02*
X003707Y011656D01*
X003247Y011360D02*
X002489Y011360D01*
X002489Y011262D02*
X003276Y011262D01*
X003332Y011163D02*
X002489Y011163D01*
X002489Y011065D02*
X003420Y011065D01*
X003602Y010966D02*
X002489Y010966D01*
X002489Y010868D02*
X003426Y010868D01*
X003328Y010769D02*
X002489Y010769D01*
X002489Y010671D02*
X003280Y010671D01*
X003239Y010572D02*
X002489Y010572D01*
X002489Y010474D02*
X003237Y010474D01*
X003237Y010375D02*
X002489Y010375D01*
X002489Y010277D02*
X003271Y010277D01*
X003312Y010178D02*
X002489Y010178D01*
X002489Y010080D02*
X003404Y010080D01*
X003560Y009981D02*
X002489Y009981D01*
X002489Y009883D02*
X003441Y009883D01*
X003343Y009784D02*
X002489Y009784D01*
X002489Y009686D02*
X003286Y009686D01*
X003246Y009587D02*
X002489Y009587D01*
X002489Y009489D02*
X003237Y009489D01*
X003237Y009390D02*
X002489Y009390D01*
X002489Y009292D02*
X003265Y009292D01*
X003306Y009193D02*
X002489Y009193D01*
X002489Y009095D02*
X003389Y009095D01*
X003524Y008996D02*
X002489Y008996D01*
X007394Y008996D02*
X008055Y008996D01*
X008044Y009095D02*
X007394Y009095D01*
X007394Y009193D02*
X008044Y009193D01*
X008044Y009292D02*
X007394Y009292D01*
X007394Y009390D02*
X008058Y009390D01*
X008084Y009489D02*
X007394Y009489D01*
X007394Y009587D02*
X008111Y009587D01*
X008154Y009686D02*
X007394Y009686D01*
X007394Y009784D02*
X008211Y009784D01*
X008268Y009883D02*
X007394Y009883D01*
X007394Y009981D02*
X008361Y009981D01*
X008460Y010080D02*
X007394Y010080D01*
X007394Y010178D02*
X008610Y010178D01*
X008081Y008898D02*
X007394Y008898D01*
X007394Y008799D02*
X008108Y008799D01*
X008148Y008701D02*
X007394Y008701D01*
X007394Y008602D02*
X008204Y008602D01*
X008261Y008504D02*
X007394Y008504D01*
X007394Y008405D02*
X008350Y008405D01*
X008449Y008307D02*
X007394Y008307D01*
X007394Y008208D02*
X008591Y008208D01*
X008774Y008110D02*
X007394Y008110D01*
X010944Y005463D02*
X011694Y006213D01*
X011694Y010025D01*
X014569Y012900D01*
X021007Y012900D01*
X021264Y013035D02*
X023920Y013035D01*
X023860Y012936D02*
X021296Y012936D01*
X021294Y012838D02*
X023843Y012838D01*
X023860Y012739D02*
X021253Y012739D01*
X021147Y012641D02*
X023920Y012641D01*
X023932Y012542D02*
X021171Y012542D01*
X021161Y012444D02*
X023932Y012444D01*
X023932Y012345D02*
X021111Y012345D01*
X020965Y012247D02*
X023932Y012247D01*
X023909Y012148D02*
X019144Y012148D01*
X019127Y012189D02*
X019171Y012082D01*
X019171Y011968D01*
X019127Y011861D01*
X019046Y011780D01*
X018939Y011736D01*
X018824Y011736D01*
X018718Y011780D01*
X018637Y011861D01*
X018593Y011968D01*
X018593Y012082D01*
X018637Y012189D01*
X018718Y012270D01*
X018824Y012314D01*
X018939Y012314D01*
X019046Y012270D01*
X019127Y012189D01*
X019069Y012247D02*
X020799Y012247D01*
X020882Y012525D02*
X014632Y012525D01*
X012007Y009900D01*
X012007Y005713D01*
X011257Y004963D01*
X010944Y004963D01*
X011151Y004761D02*
X015397Y004761D01*
X015495Y004859D02*
X011436Y004859D01*
X011535Y004958D02*
X015594Y004958D01*
X015692Y005056D02*
X011633Y005056D01*
X011732Y005155D02*
X015791Y005155D01*
X015889Y005253D02*
X011830Y005253D01*
X011929Y005352D02*
X015988Y005352D01*
X016086Y005450D02*
X012027Y005450D01*
X012126Y005549D02*
X016185Y005549D01*
X016283Y005647D02*
X012207Y005647D01*
X012207Y005746D02*
X016382Y005746D01*
X016480Y005844D02*
X012207Y005844D01*
X012207Y005943D02*
X016579Y005943D01*
X016677Y006041D02*
X012207Y006041D01*
X012207Y006140D02*
X016776Y006140D01*
X016874Y006238D02*
X012207Y006238D01*
X012207Y006337D02*
X016973Y006337D01*
X017071Y006435D02*
X012207Y006435D01*
X012207Y006534D02*
X017170Y006534D01*
X017268Y006632D02*
X012207Y006632D01*
X012207Y006731D02*
X017367Y006731D01*
X017465Y006829D02*
X012207Y006829D01*
X012207Y006928D02*
X017564Y006928D01*
X017662Y007026D02*
X012207Y007026D01*
X012207Y007125D02*
X022947Y007125D01*
X023023Y006632D02*
X017834Y006632D01*
X017736Y006534D02*
X023464Y006534D01*
X023378Y006632D02*
X023240Y006632D01*
X022373Y005943D02*
X027241Y005943D01*
X027246Y006041D02*
X017243Y006041D01*
X017342Y006140D02*
X027287Y006140D01*
X027380Y006238D02*
X017440Y006238D01*
X017902Y005450D02*
X020210Y005450D01*
X020126Y005352D02*
X017804Y005352D01*
X017705Y005253D02*
X020093Y005253D01*
X020093Y005155D02*
X017607Y005155D01*
X017508Y005056D02*
X020134Y005056D01*
X020242Y004958D02*
X017410Y004958D01*
X016326Y003874D02*
X030159Y003874D01*
X030109Y003776D02*
X016228Y003776D01*
X016129Y003677D02*
X030109Y003677D01*
X030109Y003579D02*
X016031Y003579D01*
X022483Y005746D02*
X027322Y005746D01*
X027263Y005844D02*
X022453Y005844D01*
X023004Y007884D02*
X022883Y007934D01*
X022791Y008026D01*
X022741Y008147D01*
X022741Y008278D01*
X022791Y008399D01*
X022883Y008491D01*
X023004Y008541D01*
X023135Y008541D01*
X023255Y008491D01*
X023348Y008399D01*
X023398Y008278D01*
X023398Y008147D01*
X023348Y008026D01*
X023255Y007934D01*
X023135Y007884D01*
X023004Y007884D01*
X022935Y007913D02*
X012207Y007913D01*
X012207Y008011D02*
X022806Y008011D01*
X022756Y008110D02*
X012207Y008110D01*
X012207Y008208D02*
X020741Y008208D01*
X020718Y008217D02*
X020824Y008173D01*
X020939Y008173D01*
X021046Y008217D01*
X021127Y008299D01*
X021171Y008405D01*
X022797Y008405D01*
X022753Y008307D02*
X021130Y008307D01*
X021171Y008405D02*
X021171Y008520D01*
X021127Y008626D01*
X021046Y008708D01*
X020939Y008752D01*
X020824Y008752D01*
X020718Y008708D01*
X020637Y008626D01*
X020593Y008520D01*
X020593Y008405D01*
X014351Y008405D01*
X014318Y008372D02*
X014410Y008464D01*
X014460Y008585D01*
X014460Y008715D01*
X014410Y008836D01*
X014377Y008869D01*
X014410Y008901D01*
X014460Y009022D01*
X014460Y009153D01*
X014410Y009274D01*
X014318Y009366D01*
X014197Y009416D01*
X014066Y009416D01*
X013946Y009366D01*
X013853Y009274D01*
X013803Y009153D01*
X013803Y009022D01*
X013853Y008901D01*
X013886Y008869D01*
X013853Y008836D01*
X013803Y008715D01*
X013803Y008585D01*
X013853Y008464D01*
X013946Y008372D01*
X014066Y008322D01*
X014197Y008322D01*
X014318Y008372D01*
X014427Y008504D02*
X016876Y008504D01*
X016883Y008497D02*
X017004Y008447D01*
X017135Y008447D01*
X017255Y008497D01*
X017348Y008589D01*
X017398Y008710D01*
X017398Y008840D01*
X017348Y008961D01*
X017284Y009025D01*
X017348Y009089D01*
X017398Y009210D01*
X017398Y009340D01*
X017348Y009461D01*
X017255Y009553D01*
X017135Y009603D01*
X017004Y009603D01*
X016883Y009553D01*
X016791Y009461D01*
X016741Y009340D01*
X016741Y009210D01*
X016791Y009089D01*
X016855Y009025D01*
X016791Y008961D01*
X016741Y008840D01*
X016741Y008710D01*
X016791Y008589D01*
X016883Y008497D01*
X016785Y008602D02*
X014460Y008602D01*
X014460Y008701D02*
X016745Y008701D01*
X016741Y008799D02*
X014426Y008799D01*
X014406Y008898D02*
X016765Y008898D01*
X016826Y008996D02*
X014449Y008996D01*
X014460Y009095D02*
X016789Y009095D01*
X016748Y009193D02*
X014444Y009193D01*
X014392Y009292D02*
X016741Y009292D01*
X016761Y009390D02*
X014260Y009390D01*
X014004Y009390D02*
X012207Y009390D01*
X012207Y009292D02*
X013871Y009292D01*
X013820Y009193D02*
X012207Y009193D01*
X012207Y009095D02*
X013803Y009095D01*
X013814Y008996D02*
X012207Y008996D01*
X012207Y008898D02*
X013857Y008898D01*
X013838Y008799D02*
X012207Y008799D01*
X012207Y008701D02*
X013803Y008701D01*
X013803Y008602D02*
X012207Y008602D01*
X012207Y008504D02*
X013837Y008504D01*
X013912Y008405D02*
X012207Y008405D01*
X012207Y008307D02*
X020634Y008307D01*
X020637Y008299D02*
X020718Y008217D01*
X020637Y008299D02*
X020593Y008405D01*
X020593Y008504D02*
X017262Y008504D01*
X017353Y008602D02*
X020627Y008602D01*
X020711Y008701D02*
X017394Y008701D01*
X017398Y008799D02*
X026053Y008799D01*
X026053Y008840D02*
X026053Y008710D01*
X026103Y008589D01*
X026196Y008497D01*
X026316Y008447D01*
X026447Y008447D01*
X026568Y008497D01*
X026660Y008589D01*
X026710Y008710D01*
X026710Y008840D01*
X026660Y008961D01*
X026568Y009053D01*
X026447Y009103D01*
X026316Y009103D01*
X026196Y009053D01*
X026103Y008961D01*
X026053Y008840D01*
X026077Y008898D02*
X017374Y008898D01*
X017313Y008996D02*
X026138Y008996D01*
X026295Y009095D02*
X017350Y009095D01*
X017391Y009193D02*
X031677Y009193D01*
X031677Y009095D02*
X026469Y009095D01*
X026625Y008996D02*
X031677Y008996D01*
X031677Y008898D02*
X026687Y008898D01*
X026710Y008799D02*
X030163Y008799D01*
X030167Y008803D02*
X030139Y008775D01*
X030120Y008741D01*
X030109Y008703D01*
X030109Y008433D01*
X031009Y008433D01*
X031009Y008833D01*
X030240Y008833D01*
X030202Y008823D01*
X030167Y008803D01*
X030109Y008701D02*
X026706Y008701D01*
X026666Y008602D02*
X030109Y008602D01*
X030109Y008504D02*
X026575Y008504D01*
X026189Y008504D02*
X023225Y008504D01*
X023341Y008405D02*
X031009Y008405D01*
X031009Y008307D02*
X031109Y008307D01*
X031109Y008333D02*
X031109Y008433D01*
X031677Y008433D01*
X031677Y008333D01*
X031109Y008333D01*
X031109Y008405D02*
X031677Y008405D01*
X031109Y008504D02*
X031009Y008504D01*
X031009Y008602D02*
X031109Y008602D01*
X031109Y008701D02*
X031009Y008701D01*
X031009Y008799D02*
X031109Y008799D01*
X031109Y008208D02*
X031009Y008208D01*
X031009Y008110D02*
X031109Y008110D01*
X031109Y008011D02*
X031009Y008011D01*
X031677Y007913D02*
X023203Y007913D01*
X023332Y008011D02*
X030128Y008011D01*
X030109Y008110D02*
X023382Y008110D01*
X023398Y008208D02*
X030109Y008208D01*
X030109Y008307D02*
X023386Y008307D01*
X022914Y008504D02*
X021171Y008504D01*
X021137Y008602D02*
X026098Y008602D01*
X026057Y008701D02*
X021053Y008701D01*
X021023Y008208D02*
X022741Y008208D01*
X023096Y010769D02*
X030136Y010769D01*
X030139Y010775D02*
X030120Y010741D01*
X030109Y010703D01*
X030109Y010433D01*
X031009Y010433D01*
X031009Y010833D01*
X030240Y010833D01*
X030202Y010823D01*
X030167Y010803D01*
X030139Y010775D01*
X030109Y010671D02*
X013060Y010671D01*
X013159Y010769D02*
X020229Y010769D01*
X020171Y010868D02*
X013257Y010868D01*
X012962Y010572D02*
X030109Y010572D01*
X030109Y010474D02*
X012863Y010474D01*
X012765Y010375D02*
X031009Y010375D01*
X031009Y010277D02*
X031109Y010277D01*
X031109Y010333D02*
X031109Y010433D01*
X031677Y010433D01*
X031677Y010333D01*
X031109Y010333D01*
X031109Y010375D02*
X031677Y010375D01*
X031109Y010474D02*
X031009Y010474D01*
X031009Y010572D02*
X031109Y010572D01*
X031109Y010671D02*
X031009Y010671D01*
X031009Y010769D02*
X031109Y010769D01*
X031677Y010868D02*
X023195Y010868D01*
X023293Y010966D02*
X031677Y010966D01*
X031677Y011065D02*
X023392Y011065D01*
X023490Y011163D02*
X031677Y011163D01*
X031677Y011262D02*
X023589Y011262D01*
X023687Y011360D02*
X031677Y011360D01*
X031677Y011459D02*
X023786Y011459D01*
X023884Y011557D02*
X031677Y011557D01*
X031677Y011656D02*
X023983Y011656D01*
X024081Y011754D02*
X031677Y011754D01*
X031677Y011853D02*
X026611Y011853D01*
X026568Y011809D02*
X026660Y011901D01*
X026710Y012022D01*
X026710Y012153D01*
X026660Y012274D01*
X026568Y012366D01*
X026447Y012416D01*
X026316Y012416D01*
X026196Y012366D01*
X026103Y012274D01*
X026053Y012153D01*
X026053Y012022D01*
X026103Y011901D01*
X026196Y011809D01*
X026316Y011759D01*
X026447Y011759D01*
X026568Y011809D01*
X026681Y011951D02*
X031677Y011951D01*
X031677Y012050D02*
X026710Y012050D01*
X026710Y012148D02*
X031677Y012148D01*
X031677Y012247D02*
X026671Y012247D01*
X026589Y012345D02*
X031677Y012345D01*
X031677Y012444D02*
X024332Y012444D01*
X024332Y012542D02*
X031677Y012542D01*
X031677Y012641D02*
X024344Y012641D01*
X024404Y012739D02*
X031677Y012739D01*
X031109Y010178D02*
X031009Y010178D01*
X031009Y010080D02*
X031109Y010080D01*
X031109Y009981D02*
X031009Y009981D01*
X031677Y009883D02*
X012272Y009883D01*
X012207Y009784D02*
X031677Y009784D01*
X031677Y009686D02*
X012207Y009686D01*
X012207Y009587D02*
X016964Y009587D01*
X016818Y009489D02*
X012207Y009489D01*
X012371Y009981D02*
X030150Y009981D01*
X030109Y010080D02*
X012469Y010080D01*
X012568Y010178D02*
X030109Y010178D01*
X030109Y010277D02*
X012666Y010277D01*
X013651Y011262D02*
X023023Y011262D01*
X023121Y011360D02*
X013750Y011360D01*
X013848Y011459D02*
X023220Y011459D01*
X023318Y011557D02*
X021573Y011557D01*
X021546Y011530D02*
X021627Y011611D01*
X021671Y011718D01*
X021671Y011832D01*
X021627Y011939D01*
X021546Y012020D01*
X021439Y012064D01*
X021324Y012064D01*
X021218Y012020D01*
X021137Y011939D01*
X021093Y011832D01*
X021093Y011718D01*
X021137Y011611D01*
X021218Y011530D01*
X021324Y011486D01*
X021439Y011486D01*
X021546Y011530D01*
X021645Y011656D02*
X023417Y011656D01*
X023515Y011754D02*
X021671Y011754D01*
X021663Y011853D02*
X023614Y011853D01*
X023712Y011951D02*
X021615Y011951D01*
X021474Y012050D02*
X023811Y012050D01*
X024180Y011853D02*
X026152Y011853D01*
X026083Y011951D02*
X024278Y011951D01*
X024332Y012050D02*
X026053Y012050D01*
X026053Y012148D02*
X024332Y012148D01*
X024332Y012247D02*
X026092Y012247D01*
X026175Y012345D02*
X024332Y012345D01*
X022924Y011163D02*
X020653Y011163D01*
X021191Y011557D02*
X013947Y011557D01*
X014045Y011656D02*
X021118Y011656D01*
X021093Y011754D02*
X018983Y011754D01*
X019118Y011853D02*
X021101Y011853D01*
X021149Y011951D02*
X019164Y011951D01*
X019171Y012050D02*
X021289Y012050D01*
X020890Y013267D02*
X014499Y013267D01*
X014636Y012247D02*
X018695Y012247D01*
X018620Y012148D02*
X014538Y012148D01*
X014439Y012050D02*
X018593Y012050D01*
X018600Y011951D02*
X014341Y011951D01*
X014242Y011853D02*
X018645Y011853D01*
X018781Y011754D02*
X014144Y011754D01*
X017174Y009587D02*
X031677Y009587D01*
X031677Y009489D02*
X017320Y009489D01*
X017377Y009390D02*
X031677Y009390D01*
X031677Y009292D02*
X017398Y009292D01*
X012207Y007814D02*
X031677Y007814D01*
X031677Y007716D02*
X012207Y007716D01*
X012207Y007617D02*
X031677Y007617D01*
X031677Y007519D02*
X012207Y007519D01*
X012207Y007420D02*
X031677Y007420D01*
X031677Y007322D02*
X012207Y007322D01*
X012207Y007223D02*
X031677Y007223D01*
X022702Y013921D02*
X022062Y013921D01*
X022141Y014020D02*
X022623Y014020D01*
X022593Y014118D02*
X022171Y014118D01*
X022167Y014217D02*
X022596Y014217D01*
X022638Y014315D02*
X022126Y014315D01*
X022001Y014414D02*
X022763Y014414D01*
X020906Y013921D02*
X019937Y013921D01*
X016840Y015596D02*
X015673Y015596D01*
X015771Y015694D02*
X016753Y015694D01*
X016718Y015793D02*
X015870Y015793D01*
X015968Y015891D02*
X016718Y015891D01*
X016757Y015990D02*
X016067Y015990D01*
X016165Y016088D02*
X016856Y016088D01*
X012834Y016088D02*
X002489Y016088D01*
X002489Y015990D02*
X012746Y015990D01*
X012705Y015891D02*
X010305Y015891D01*
X010498Y015793D02*
X012674Y015793D01*
X012674Y015694D02*
X010597Y015694D01*
X010640Y015596D02*
X012680Y015596D01*
X012696Y015497D02*
X010674Y015497D01*
X010674Y015399D02*
X012597Y015399D01*
X012499Y015300D02*
X010674Y015300D01*
X010674Y015202D02*
X012400Y015202D01*
X010083Y015891D02*
X009273Y015891D01*
X009244Y015891D02*
X009144Y015891D01*
X009144Y015896D02*
X009082Y015886D01*
X009010Y015862D01*
X008943Y015828D01*
X008882Y015784D01*
X008828Y015730D01*
X008784Y015669D01*
X008749Y015602D01*
X008726Y015530D01*
X008714Y015455D01*
X008714Y015137D01*
X009144Y015137D01*
X009144Y015038D01*
X008714Y015038D01*
X008714Y014720D01*
X008726Y014645D01*
X008749Y014573D01*
X008784Y014506D01*
X008828Y014445D01*
X008882Y014391D01*
X008943Y014347D01*
X009010Y014313D01*
X009082Y014289D01*
X009144Y014279D01*
X009144Y015037D01*
X009244Y015037D01*
X009244Y014279D01*
X009307Y014289D01*
X009379Y014313D01*
X009446Y014347D01*
X009507Y014391D01*
X009560Y014445D01*
X009605Y014506D01*
X009639Y014573D01*
X009662Y014645D01*
X009674Y014720D01*
X009674Y015038D01*
X009244Y015038D01*
X009244Y015137D01*
X009674Y015137D01*
X009674Y015455D01*
X009662Y015530D01*
X009639Y015602D01*
X009605Y015669D01*
X009560Y015730D01*
X009507Y015784D01*
X009446Y015828D01*
X009379Y015862D01*
X009307Y015886D01*
X009244Y015896D01*
X009244Y015138D01*
X009144Y015138D01*
X009144Y015896D01*
X009116Y015891D02*
X008305Y015891D01*
X008290Y015897D02*
X008099Y015897D01*
X007922Y015824D01*
X007787Y015689D01*
X007714Y015513D01*
X007714Y014662D01*
X007787Y014486D01*
X007922Y014351D01*
X008099Y014278D01*
X008290Y014278D01*
X008466Y014351D01*
X008601Y014486D01*
X008674Y014662D01*
X008674Y015513D01*
X008601Y015689D01*
X008466Y015824D01*
X008290Y015897D01*
X008083Y015891D02*
X002489Y015891D01*
X002489Y015793D02*
X007890Y015793D01*
X007792Y015694D02*
X002489Y015694D01*
X002489Y015596D02*
X007748Y015596D01*
X007714Y015497D02*
X002489Y015497D01*
X002489Y015399D02*
X004267Y015399D01*
X004265Y015398D02*
X004191Y015344D01*
X004127Y015279D01*
X004073Y015205D01*
X004032Y015124D01*
X004004Y015037D01*
X003989Y014947D01*
X003989Y014940D01*
X004531Y014940D01*
X004531Y015481D01*
X004524Y015481D01*
X004433Y015467D01*
X004347Y015439D01*
X004265Y015398D01*
X004148Y015300D02*
X002489Y015300D01*
X002489Y015202D02*
X004071Y015202D01*
X004025Y015103D02*
X002489Y015103D01*
X002489Y015005D02*
X003998Y015005D01*
X003989Y014863D02*
X003989Y014856D01*
X004004Y014766D01*
X004032Y014679D01*
X004073Y014597D01*
X004127Y014524D01*
X004191Y014459D01*
X004265Y014405D01*
X004347Y014364D01*
X004433Y014336D01*
X004524Y014321D01*
X004531Y014321D01*
X004531Y014863D01*
X004608Y014863D01*
X004608Y014940D01*
X005149Y014940D01*
X005149Y014947D01*
X005135Y015037D01*
X005107Y015124D01*
X005065Y015205D01*
X005012Y015279D01*
X004947Y015344D01*
X004873Y015398D01*
X004792Y015439D01*
X004705Y015467D01*
X004615Y015481D01*
X004608Y015481D01*
X004608Y014940D01*
X004531Y014940D01*
X004531Y014863D01*
X003989Y014863D01*
X003997Y014808D02*
X002489Y014808D01*
X002489Y014906D02*
X004531Y014906D01*
X004608Y014906D02*
X007714Y014906D01*
X007714Y014808D02*
X005142Y014808D01*
X005135Y014766D02*
X005149Y014856D01*
X005149Y014863D01*
X004608Y014863D01*
X004608Y014321D01*
X004615Y014321D01*
X004705Y014336D01*
X004792Y014364D01*
X004873Y014405D01*
X004947Y014459D01*
X005012Y014524D01*
X005065Y014597D01*
X005107Y014679D01*
X005135Y014766D01*
X005117Y014709D02*
X007714Y014709D01*
X007736Y014611D02*
X005072Y014611D01*
X005000Y014512D02*
X007776Y014512D01*
X007859Y014414D02*
X004884Y014414D01*
X004608Y014414D02*
X004531Y014414D01*
X004531Y014512D02*
X004608Y014512D01*
X004608Y014611D02*
X004531Y014611D01*
X004531Y014709D02*
X004608Y014709D01*
X004608Y014808D02*
X004531Y014808D01*
X004531Y015005D02*
X004608Y015005D01*
X004608Y015103D02*
X004531Y015103D01*
X004531Y015202D02*
X004608Y015202D01*
X004608Y015300D02*
X004531Y015300D01*
X004531Y015399D02*
X004608Y015399D01*
X004871Y015399D02*
X007714Y015399D01*
X007714Y015300D02*
X004991Y015300D01*
X005067Y015202D02*
X007714Y015202D01*
X007714Y015103D02*
X005114Y015103D01*
X005140Y015005D02*
X007714Y015005D01*
X008674Y015005D02*
X008714Y015005D01*
X008714Y014906D02*
X008674Y014906D01*
X008674Y014808D02*
X008714Y014808D01*
X008716Y014709D02*
X008674Y014709D01*
X008653Y014611D02*
X008737Y014611D01*
X008781Y014512D02*
X008612Y014512D01*
X008529Y014414D02*
X008859Y014414D01*
X009005Y014315D02*
X008380Y014315D01*
X008008Y014315D02*
X002489Y014315D01*
X002489Y014217D02*
X009844Y014217D01*
X009844Y014315D02*
X009383Y014315D01*
X009244Y014315D02*
X009144Y014315D01*
X009144Y014414D02*
X009244Y014414D01*
X009244Y014512D02*
X009144Y014512D01*
X009144Y014611D02*
X009244Y014611D01*
X009244Y014709D02*
X009144Y014709D01*
X009144Y014808D02*
X009244Y014808D01*
X009244Y014906D02*
X009144Y014906D01*
X009144Y015005D02*
X009244Y015005D01*
X009244Y015103D02*
X009714Y015103D01*
X009714Y015005D02*
X009674Y015005D01*
X009674Y014906D02*
X009714Y014906D01*
X009714Y014808D02*
X009674Y014808D01*
X009673Y014709D02*
X009714Y014709D01*
X009736Y014611D02*
X009651Y014611D01*
X009608Y014512D02*
X009776Y014512D01*
X009844Y014414D02*
X009529Y014414D01*
X009844Y014118D02*
X002489Y014118D01*
X002489Y014020D02*
X004251Y014020D01*
X004147Y013921D02*
X002489Y013921D01*
X002489Y013823D02*
X004065Y013823D01*
X004025Y013724D02*
X002489Y013724D01*
X002489Y013626D02*
X003989Y013626D01*
X003989Y013527D02*
X002489Y013527D01*
X002489Y013429D02*
X003989Y013429D01*
X004022Y013330D02*
X002489Y013330D01*
X002489Y013232D02*
X004062Y013232D01*
X004140Y013133D02*
X002489Y013133D01*
X002489Y013035D02*
X004238Y013035D01*
X004901Y013035D02*
X006815Y013035D01*
X006716Y013133D02*
X004999Y013133D01*
X004992Y013921D02*
X009720Y013921D01*
X009622Y013823D02*
X007013Y013823D01*
X007115Y013724D02*
X009523Y013724D01*
X009425Y013626D02*
X007214Y013626D01*
X007312Y013527D02*
X009326Y013527D01*
X009819Y014020D02*
X004887Y014020D01*
X004254Y014414D02*
X002489Y014414D01*
X002489Y014512D02*
X004138Y014512D01*
X004067Y014611D02*
X002489Y014611D01*
X002489Y014709D02*
X004022Y014709D01*
X002489Y012936D02*
X006913Y012936D01*
X007012Y012838D02*
X002489Y012838D01*
X002489Y012739D02*
X007183Y012739D01*
X009839Y012641D02*
X002489Y012641D01*
X008674Y015103D02*
X009144Y015103D01*
X009144Y015202D02*
X009244Y015202D01*
X009244Y015300D02*
X009144Y015300D01*
X009144Y015399D02*
X009244Y015399D01*
X009244Y015497D02*
X009144Y015497D01*
X009144Y015596D02*
X009244Y015596D01*
X009244Y015694D02*
X009144Y015694D01*
X009144Y015793D02*
X009244Y015793D01*
X009495Y015793D02*
X009890Y015793D01*
X009792Y015694D02*
X009587Y015694D01*
X009641Y015596D02*
X009748Y015596D01*
X009714Y015497D02*
X009668Y015497D01*
X009674Y015399D02*
X009714Y015399D01*
X009714Y015300D02*
X009674Y015300D01*
X009674Y015202D02*
X009714Y015202D01*
X008714Y015202D02*
X008674Y015202D01*
X008674Y015300D02*
X008714Y015300D01*
X008714Y015399D02*
X008674Y015399D01*
X008674Y015497D02*
X008721Y015497D01*
X008747Y015596D02*
X008640Y015596D01*
X008597Y015694D02*
X008802Y015694D01*
X008894Y015793D02*
X008498Y015793D01*
X004028Y017664D02*
X030138Y017664D01*
X030270Y017763D02*
X003896Y017763D01*
X002489Y017960D02*
X031677Y017960D01*
X031677Y018058D02*
X002489Y018058D01*
X007520Y001609D02*
X007530Y001609D01*
X007594Y001510D02*
X007456Y001510D01*
X007332Y001412D02*
X007718Y001412D01*
D18*
X006194Y003150D03*
X007944Y004400D03*
X009257Y005088D03*
X008132Y005463D03*
X008007Y005900D03*
X007819Y007025D03*
X008882Y007650D03*
X007569Y008213D03*
X010507Y008588D03*
X010507Y007213D03*
X011069Y006650D03*
X012382Y007213D03*
X012382Y005713D03*
X013507Y005713D03*
X015069Y005213D03*
X014569Y004463D03*
X015507Y004025D03*
X016757Y005213D03*
X018194Y005213D03*
X019069Y005213D03*
X019069Y004650D03*
X019069Y004088D03*
X019069Y003525D03*
X019069Y002963D03*
X019069Y002400D03*
X019069Y001900D03*
X019069Y001400D03*
X019069Y000900D03*
X019632Y000900D03*
X020194Y000900D03*
X020757Y000900D03*
X021319Y000900D03*
X021882Y000900D03*
X022444Y000900D03*
X023007Y000900D03*
X023569Y000900D03*
X024132Y000900D03*
X024694Y000900D03*
X025257Y000900D03*
X025819Y000900D03*
X026382Y000900D03*
X026944Y000900D03*
X027507Y000900D03*
X028069Y000900D03*
X028632Y000900D03*
X029194Y000900D03*
X029632Y000900D03*
X029632Y001400D03*
X029632Y002025D03*
X029882Y002525D03*
X030319Y002838D03*
X029882Y003088D03*
X029319Y003088D03*
X028757Y003150D03*
X028257Y003150D03*
X028257Y004338D03*
X028757Y004338D03*
X028757Y004838D03*
X028757Y005338D03*
X030444Y006088D03*
X030944Y006088D03*
X031444Y006088D03*
X031444Y006650D03*
X031444Y007213D03*
X031444Y007775D03*
X030944Y007775D03*
X030444Y007775D03*
X029944Y008275D03*
X029444Y008775D03*
X028944Y008775D03*
X028444Y008775D03*
X029944Y008838D03*
X029507Y009900D03*
X029944Y009963D03*
X029007Y009838D03*
X028507Y009838D03*
X029944Y010588D03*
X030444Y011025D03*
X030944Y011025D03*
X031444Y011025D03*
X031444Y011525D03*
X031444Y012088D03*
X031444Y012650D03*
X030944Y012650D03*
X030444Y012650D03*
X030007Y013088D03*
X029194Y012963D03*
X028132Y013525D03*
X027757Y014088D03*
X027132Y014525D03*
X028007Y015150D03*
X027507Y015463D03*
X026882Y015588D03*
X026257Y015588D03*
X025694Y015588D03*
X025069Y015400D03*
X024382Y015400D03*
X023444Y015775D03*
X024507Y016963D03*
X025694Y016713D03*
X026194Y016713D03*
X026757Y016713D03*
X027382Y016650D03*
X028007Y016463D03*
X028569Y016150D03*
X028819Y016525D03*
X029569Y016775D03*
X029569Y017338D03*
X029569Y017900D03*
X029194Y017900D03*
X028757Y017900D03*
X028194Y017900D03*
X027632Y017900D03*
X027069Y017900D03*
X026507Y017900D03*
X025882Y017900D03*
X025319Y017900D03*
X024757Y017900D03*
X024194Y017900D03*
X023632Y017900D03*
X023069Y017900D03*
X022507Y017900D03*
X021944Y017900D03*
X021382Y017900D03*
X020819Y017900D03*
X020257Y017900D03*
X019694Y017900D03*
X019132Y017900D03*
X018569Y017900D03*
X018007Y017900D03*
X017444Y017900D03*
X016882Y017900D03*
X016319Y017900D03*
X015757Y017900D03*
X015132Y017900D03*
X015132Y017275D03*
X015132Y016650D03*
X015132Y016025D03*
X015132Y015400D03*
X015132Y014900D03*
X015694Y014900D03*
X016257Y014900D03*
X016819Y014900D03*
X017382Y014900D03*
X017757Y014650D03*
X018319Y014650D03*
X019007Y014650D03*
X019632Y014838D03*
X019757Y014150D03*
X018944Y014025D03*
X018319Y014025D03*
X017757Y014025D03*
X017757Y012213D03*
X017757Y011650D03*
X018319Y011650D03*
X018882Y012025D03*
X019319Y011775D03*
X019882Y011775D03*
X020382Y011775D03*
X021382Y011775D03*
X020882Y012525D03*
X021007Y012900D03*
X020890Y013267D03*
X021007Y013650D03*
X021882Y014150D03*
X022882Y014150D03*
X020882Y015275D03*
X017007Y015838D03*
X013382Y014213D03*
X011507Y012338D03*
X012194Y012025D03*
X011507Y011275D03*
X010319Y011400D03*
X008757Y011338D03*
X007632Y010338D03*
X010507Y009963D03*
X013194Y010525D03*
X017757Y010525D03*
X017757Y009963D03*
X017757Y009400D03*
X017757Y008900D03*
X017757Y008338D03*
X018257Y008338D03*
X018757Y008338D03*
X019319Y008338D03*
X019757Y008588D03*
X019882Y009088D03*
X020882Y008463D03*
X018819Y007775D03*
X018257Y007775D03*
X017757Y007775D03*
X018194Y007338D03*
X019069Y007213D03*
X016444Y006525D03*
X020382Y005213D03*
X022194Y005713D03*
X023132Y006900D03*
X023632Y006775D03*
X023132Y007338D03*
X024382Y006588D03*
X025694Y006588D03*
X027569Y006588D03*
X030882Y002838D03*
X031444Y002838D03*
X023882Y002588D03*
X023257Y002588D03*
X022882Y002150D03*
X021694Y002088D03*
X020444Y002150D03*
X020319Y002775D03*
X013382Y003213D03*
X012132Y003213D03*
X011382Y004588D03*
X010944Y004963D03*
X010694Y004650D03*
X010944Y005463D03*
X009319Y003588D03*
X020444Y010463D03*
X020444Y010963D03*
X017757Y011088D03*
X023007Y010588D03*
X024507Y010713D03*
X024632Y011463D03*
X024132Y012838D03*
X025194Y013213D03*
X026882Y013213D03*
X028319Y012338D03*
X029069Y012088D03*
X030007Y013713D03*
X029382Y013900D03*
X028819Y014213D03*
X028382Y014650D03*
X029382Y015150D03*
X029944Y014838D03*
X029944Y015400D03*
X029007Y015650D03*
X029944Y016275D03*
X030444Y015963D03*
X030944Y015963D03*
X031444Y015963D03*
D19*
X026382Y012088D03*
X026382Y008775D03*
X023069Y008213D03*
X027569Y005963D03*
X026694Y002588D03*
X015569Y007588D03*
X015132Y007588D03*
X014132Y008650D03*
X014132Y009088D03*
X017069Y009275D03*
X017069Y008775D03*
X016569Y010900D03*
X016132Y010900D03*
X016382Y014338D03*
X012632Y016713D03*
X012632Y017213D03*
X005069Y017213D03*
X005069Y016713D03*
D20*
X010194Y015088D02*
X010194Y013900D01*
X009382Y013088D01*
X007257Y013088D01*
X006821Y013524D01*
X004569Y013524D01*
M02*
